ISO-10303-21;
HEADER;
FILE_DESCRIPTION (( 'STEP AP214' ),
    '1' );
FILE_NAME ('AOTA-B201610S3R3-101-T.STEP',
    '2026-04-05T09:22:43',
    ( 'LENOVO' ),
    ( '' ),
    'SwSTEP 2.0',
    'SolidWorks 2021',
    '' );
FILE_SCHEMA (( 'AUTOMOTIVE_DESIGN' ));
ENDSEC;

DATA;
#1 = ORIENTED_EDGE ( 'NONE', *, *, #542, .F. ) ;
#2 = PLANE ( 'NONE',  #56 ) ;
#3 = EDGE_LOOP ( 'NONE', ( #498, #256, #251, #683 ) ) ;
#4 = ORIENTED_EDGE ( 'NONE', *, *, #217, .T. ) ;
#5 = MANIFOLD_SOLID_BREP ( 'Cut-Extrude1', #159 ) ;
#6 = ORIENTED_EDGE ( 'NONE', *, *, #651, .T. ) ;
#7 = CARTESIAN_POINT ( 'NONE',  ( 0.9999999999999997780, 0.04999999999999991257, 0.7999999999999999334 ) ) ;
#8 = MECHANICAL_DESIGN_GEOMETRIC_PRESENTATION_REPRESENTATION (  '', ( #273 ), #244 ) ;
#9 = CARTESIAN_POINT ( 'NONE',  ( -1.000000000000000222, 0.000000000000000000, -0.8000000000000001554 ) ) ;
#10 = CARTESIAN_POINT ( 'NONE',  ( 0.9999999999999997780, 0.000000000000000000, 0.7999999999999999334 ) ) ;
#11 = ADVANCED_FACE ( 'NONE', ( #526 ), #627, .F. ) ;
#12 = VECTOR ( 'NONE', #439, 1000.000000000000000 ) ;
#13 = CARTESIAN_POINT ( 'NONE',  ( -1.000000000000000222, 0.000000000000000000, 0.7999999999999999334 ) ) ;
#14 = EDGE_LOOP ( 'NONE', ( #470, #514, #248, #129 ) ) ;
#15 = ORIENTED_EDGE ( 'NONE', *, *, #245, .T. ) ;
#16 = EDGE_LOOP ( 'NONE', ( #298, #15, #468, #249 ) ) ;
#17 = EDGE_CURVE ( 'NONE', #247, #296, #528, .T. ) ;
#18 = UNCERTAINTY_MEASURE_WITH_UNIT (LENGTH_MEASURE( 1.000000000000000082E-05 ), #664, 'distance_accuracy_value', 'NONE');
#19 = EDGE_LOOP ( 'NONE', ( #438, #254, #1, #221 ) ) ;
#20 = EDGE_CURVE ( 'NONE', #181, #187, #279, .T. ) ;
#21 = CARTESIAN_POINT ( 'NONE',  ( -1.000000000000000222, 1.758800749063506474, 0.7999999999999999334 ) ) ;
#22 = CARTESIAN_POINT ( 'NONE',  ( 0.9999999999999997780, 4.561249694973139590, 0.7999999999999999334 ) ) ;
#23 = ORIENTED_EDGE ( 'NONE', *, *, #461, .F. ) ;
#24 = DIRECTION ( 'NONE',  ( 5.421010862427524142E-16, -0.000000000000000000, 1.000000000000000000 ) ) ;
#25 =( LENGTH_UNIT ( ) NAMED_UNIT ( * ) SI_UNIT ( .MILLI., .METRE. ) );
#26 = CARTESIAN_POINT ( 'NONE',  ( -0.6000000000000003109, 1.000000000000000000, 0.3999999999999999667 ) ) ;
#27 = ORIENTED_EDGE ( 'NONE', *, *, #338, .T. ) ;
#28 = VERTEX_POINT ( 'NONE', #136 ) ;
#29 = EDGE_CURVE ( 'NONE', #677, #28, #278, .T. ) ;
#30 = CARTESIAN_POINT ( 'NONE',  ( -1.000000000000000222, 0.05000000000000000278, 0.7999999999999999334 ) ) ;
#31 = ADVANCED_BREP_SHAPE_REPRESENTATION ( 'AOTA-B201610S3R3-101-T', ( #371, #411, #5, #96, #592 ), #333 ) ;
#32 = DIRECTION ( 'NONE',  ( 0.000000000000000000, 0.000000000000000000, 1.000000000000000000 ) ) ;
#33 = COLOUR_RGB ( '',0.7921568627450980005, 0.8196078431372548767, 0.9333333333333333481 ) ;
#34 = ORIENTED_EDGE ( 'NONE', *, *, #17, .F. ) ;
#35 = CARTESIAN_POINT ( 'NONE',  ( 0.9999999999999997780, 4.561249694973139590, 0.7999999999999999334 ) ) ;
#36 =( NAMED_UNIT ( * ) SI_UNIT ( $, .STERADIAN. ) SOLID_ANGLE_UNIT ( ) );
#37 = EDGE_CURVE ( 'NONE', #295, #41, #43, .T. ) ;
#38 = DIRECTION ( 'NONE',  ( 0.000000000000000000, 1.000000000000000000, 0.000000000000000000 ) ) ;
#39 = CARTESIAN_POINT ( 'NONE',  ( -1.000000000000000222, 1.758800749063506474, -0.8000000000000001554 ) ) ;
#40 = VECTOR ( 'NONE', #408, 1000.000000000000000 ) ;
#41 = VERTEX_POINT ( 'NONE', #304 ) ;
#42 =( NAMED_UNIT ( * ) PLANE_ANGLE_UNIT ( ) SI_UNIT ( $, .RADIAN. ) );
#43 = LINE ( 'NONE', #564, #285 ) ;
#44 = CARTESIAN_POINT ( 'NONE',  ( -1.000000000000000222, 1.758800749063506474, -0.8000000000000001554 ) ) ;
#45 = AXIS2_PLACEMENT_3D ( 'NONE', #390, #490, #216 ) ;
#46 = VERTEX_POINT ( 'NONE', #466 ) ;
#47 =( LENGTH_UNIT ( ) NAMED_UNIT ( * ) SI_UNIT ( .MILLI., .METRE. ) );
#48 = CARTESIAN_POINT ( 'NONE',  ( 0.9999999999999997780, 1.758800749063506474, -0.8000000000000001554 ) ) ;
#49 = ORIENTED_EDGE ( 'NONE', *, *, #540, .T. ) ;
#50 = PLANE ( 'NONE',  #297 ) ;
#51 = ORIENTED_EDGE ( 'NONE', *, *, #148, .F. ) ;
#52 = VERTEX_POINT ( 'NONE', #648 ) ;
#53 =( NAMED_UNIT ( * ) SI_UNIT ( $, .STERADIAN. ) SOLID_ANGLE_UNIT ( ) );
#54 = ORIENTED_EDGE ( 'NONE', *, *, #518, .F. ) ;
#55 = ORIENTED_EDGE ( 'NONE', *, *, #576, .T. ) ;
#56 = AXIS2_PLACEMENT_3D ( 'NONE', #519, #60, #301 ) ;
#57 = ORIENTED_EDGE ( 'NONE', *, *, #277, .T. ) ;
#58 = SURFACE_STYLE_USAGE ( .BOTH. , #105 ) ;
#59 = DIRECTION ( 'NONE',  ( 0.000000000000000000, 0.000000000000000000, 1.000000000000000000 ) ) ;
#60 = DIRECTION ( 'NONE',  ( -1.000000000000000000, 0.000000000000000000, 0.000000000000000000 ) ) ;
#61 = AXIS2_PLACEMENT_3D ( 'NONE', #175, #521, #527 ) ;
#62 = VECTOR ( 'NONE', #76, 1000.000000000000000 ) ;
#63 = CARTESIAN_POINT ( 'NONE',  ( 0.3999999999999998557, 1.758800749063506474, 0.8000000000000001554 ) ) ;
#64 = VECTOR ( 'NONE', #460, 1000.000000000000000 ) ;
#65 = LINE ( 'NONE', #344, #316 ) ;
#66 = CARTESIAN_POINT ( 'NONE',  ( -1.000000000000000222, 0.000000000000000000, 0.7999999999999999334 ) ) ;
#67 = COLOUR_RGB ( '',0.7921568627450980005, 0.8196078431372548767, 0.9333333333333333481 ) ;
#68 = PRODUCT ( 'AOTA-B201610S3R3-101-T', 'AOTA-B201610S3R3-101-T', '', ( #269 ) ) ;
#69 = VERTEX_POINT ( 'NONE', #623 ) ;
#70 = FACE_OUTER_BOUND ( 'NONE', #415, .T. ) ;
#71 = CYLINDRICAL_SURFACE ( 'NONE', #270, 0.1499999999999999667 ) ;
#72 = DIRECTION ( 'NONE',  ( 0.000000000000000000, 0.000000000000000000, -1.000000000000000000 ) ) ;
#73 = FACE_OUTER_BOUND ( 'NONE', #372, .T. ) ;
#74 = CIRCLE ( 'NONE', #566, 0.1499999999999999667 ) ;
#75 = DIRECTION ( 'NONE',  ( -1.000000000000000000, 0.000000000000000000, 3.614007241618348771E-16 ) ) ;
#76 = DIRECTION ( 'NONE',  ( 1.000000000000000000, -0.000000000000000000, -3.614007241618348278E-16 ) ) ;
#77 = FACE_OUTER_BOUND ( 'NONE', #268, .T. ) ;
#78 = STYLED_ITEM ( 'NONE', ( #657 ), #96 ) ;
#79 = DIRECTION ( 'NONE',  ( 1.000000000000000000, 0.000000000000000000, 5.421010862427520198E-16 ) ) ;
#80 =( NAMED_UNIT ( * ) PLANE_ANGLE_UNIT ( ) SI_UNIT ( $, .RADIAN. ) );
#81 = DIRECTION ( 'NONE',  ( -0.000000000000000000, -1.000000000000000000, -0.000000000000000000 ) ) ;
#82 = LINE ( 'NONE', #150, #567 ) ;
#83 = CARTESIAN_POINT ( 'NONE',  ( -0.6000000000000003109, 1.000000000000000000, 0.3999999999999999667 ) ) ;
#84 = LINE ( 'NONE', #107, #332 ) ;
#85 = PRESENTATION_STYLE_ASSIGNMENT (( #58 ) ) ;
#86 = AXIS2_PLACEMENT_3D ( 'NONE', #616, #593, #393 ) ;
#87 = ADVANCED_FACE ( 'NONE', ( #275 ), #274, .F. ) ;
#88 = LINE ( 'NONE', #561, #335 ) ;
#89 = UNCERTAINTY_MEASURE_WITH_UNIT (LENGTH_MEASURE( 1.000000000000000082E-05 ), #47, 'distance_accuracy_value', 'NONE');
#90 = EDGE_CURVE ( 'NONE', #711, #287, #281, .T. ) ;
#91 = CIRCLE ( 'NONE', #622, 0.1499999999999999667 ) ;
#92 =( NAMED_UNIT ( * ) SI_UNIT ( $, .STERADIAN. ) SOLID_ANGLE_UNIT ( ) );
#93 = DIRECTION ( 'NONE',  ( 0.000000000000000000, 1.000000000000000000, 0.000000000000000000 ) ) ;
#94 = VECTOR ( 'NONE', #160, 1000.000000000000000 ) ;
#95 = VECTOR ( 'NONE', #634, 1000.000000000000000 ) ;
#96 = MANIFOLD_SOLID_BREP ( 'Boss-Extrude3', #262 ) ;
#97 = CYLINDRICAL_SURFACE ( 'NONE', #347, 0.1499999999999999667 ) ;
#98 = LINE ( 'NONE', #485, #574 ) ;
#99 = VECTOR ( 'NONE', #147, 1000.000000000000000 ) ;
#100 = FACE_OUTER_BOUND ( 'NONE', #265, .T. ) ;
#101 = DIRECTION ( 'NONE',  ( 1.000000000000000000, 0.000000000000000000, 5.421010862427520198E-16 ) ) ;
#102 = LINE ( 'NONE', #324, #99 ) ;
#103 = SURFACE_STYLE_FILL_AREA ( #710 ) ;
#104 = AXIS2_PLACEMENT_3D ( 'NONE', #21, #405, #619 ) ;
#105 = SURFACE_SIDE_STYLE ('',( #103 ) ) ;
#106 = DIRECTION ( 'NONE',  ( -0.000000000000000000, -1.000000000000000000, -0.000000000000000000 ) ) ;
#107 = CARTESIAN_POINT ( 'NONE',  ( -1.000000000000000222, 4.561249694973139590, -0.8000000000000001554 ) ) ;
#108 = VECTOR ( 'NONE', #391, 1000.000000000000000 ) ;
#109 = AXIS2_PLACEMENT_3D ( 'NONE', #400, #305, #276 ) ;
#110 = CIRCLE ( 'NONE', #500, 0.1499999999999999667 ) ;
#111 =( LENGTH_UNIT ( ) NAMED_UNIT ( * ) SI_UNIT ( .MILLI., .METRE. ) );
#112 = ORIENTED_EDGE ( 'NONE', *, *, #413, .F. ) ;
#113 = LINE ( 'NONE', #139, #351 ) ;
#114 = LINE ( 'NONE', #486, #588 ) ;
#115 = ORIENTED_EDGE ( 'NONE', *, *, #534, .T. ) ;
#116 = LINE ( 'NONE', #44, #368 ) ;
#117 =( NAMED_UNIT ( * ) PLANE_ANGLE_UNIT ( ) SI_UNIT ( $, .RADIAN. ) );
#118 = ORIENTED_EDGE ( 'NONE', *, *, #701, .F. ) ;
#119 = PRESENTATION_STYLE_ASSIGNMENT (( #151 ) ) ;
#120 = EDGE_CURVE ( 'NONE', #220, #181, #691, .T. ) ;
#121 = ORIENTED_EDGE ( 'NONE', *, *, #29, .F. ) ;
#122 = DIRECTION ( 'NONE',  ( 0.000000000000000000, 1.000000000000000000, 0.000000000000000000 ) ) ;
#123 = ORIENTED_EDGE ( 'NONE', *, *, #511, .T. ) ;
#124 = VECTOR ( 'NONE', #530, 1000.000000000000000 ) ;
#125 = CARTESIAN_POINT ( 'NONE',  ( -1.000000000000000222, 4.561249694973139590, 0.7999999999999999334 ) ) ;
#126 = ORIENTED_EDGE ( 'NONE', *, *, #17, .T. ) ;
#127 = VECTOR ( 'NONE', #149, 1000.000000000000000 ) ;
#128 = DIRECTION ( 'NONE',  ( -0.000000000000000000, -0.000000000000000000, 1.000000000000000000 ) ) ;
#129 = ORIENTED_EDGE ( 'NONE', *, *, #90, .T. ) ;
#130 = FILL_AREA_STYLE ('',( #624 ) ) ;
#131 = DIRECTION ( 'NONE',  ( 0.000000000000000000, 0.000000000000000000, 1.000000000000000000 ) ) ;
#132 = ORIENTED_EDGE ( 'NONE', *, *, #235, .F. ) ;
#133 =( GEOMETRIC_REPRESENTATION_CONTEXT ( 3 ) GLOBAL_UNCERTAINTY_ASSIGNED_CONTEXT ( ( #487 ) ) GLOBAL_UNIT_ASSIGNED_CONTEXT ( ( #642, #42, #204 ) ) REPRESENTATION_CONTEXT ( 'NONE', 'WORKASPACE' ) );
#134 = FACE_OUTER_BOUND ( 'NONE', #14, .T. ) ;
#135 = DIRECTION ( 'NONE',  ( 1.000000000000000000, 0.000000000000000000, 3.614007241618345813E-16 ) ) ;
#136 = CARTESIAN_POINT ( 'NONE',  ( 0.3999999999999998557, 0.000000000000000000, 0.8000000000000001554 ) ) ;
#137 = PLANE ( 'NONE',  #61 ) ;
#138 = FACE_OUTER_BOUND ( 'NONE', #406, .T. ) ;
#139 = CARTESIAN_POINT ( 'NONE',  ( -1.000000000000000222, 0.05000000000000000278, -0.8000000000000001554 ) ) ;
#140 = AXIS2_PLACEMENT_3D ( 'NONE', #446, #452, #665 ) ;
#141 = DIRECTION ( 'NONE',  ( 0.000000000000000000, 0.000000000000000000, -1.000000000000000000 ) ) ;
#142 = CARTESIAN_POINT ( 'NONE',  ( -1.000000000000000222, 0.04999999999999991257, 0.7999999999999999334 ) ) ;
#143 = CARTESIAN_POINT ( 'NONE',  ( 0.3999999999999998557, 1.758800749063506474, 0.8000000000000001554 ) ) ;
#144 = DIRECTION ( 'NONE',  ( 0.000000000000000000, 0.000000000000000000, 1.000000000000000000 ) ) ;
#145 = DIRECTION ( 'NONE',  ( 0.000000000000000000, -1.000000000000000000, -0.000000000000000000 ) ) ;
#146 = EDGE_CURVE ( 'NONE', #69, #52, #577, .T. ) ;
#147 = DIRECTION ( 'NONE',  ( 0.000000000000000000, 1.000000000000000000, 0.000000000000000000 ) ) ;
#148 = EDGE_CURVE ( 'NONE', #190, #677, #98, .T. ) ;
#149 = DIRECTION ( 'NONE',  ( 1.000000000000000000, 0.000000000000000000, -5.421010862427524142E-16 ) ) ;
#150 = CARTESIAN_POINT ( 'NONE',  ( -1.000000000000000222, 1.758800749063506474, 0.7999999999999999334 ) ) ;
#151 = SURFACE_STYLE_USAGE ( .BOTH. , #389 ) ;
#152 = AXIS2_PLACEMENT_3D ( 'NONE', #328, #546, #331 ) ;
#153 = ADVANCED_FACE ( 'NONE', ( #334 ), #597, .F. ) ;
#154 = PLANE ( 'NONE',  #291 ) ;
#155 = DIRECTION ( 'NONE',  ( 0.000000000000000000, 0.000000000000000000, 1.000000000000000000 ) ) ;
#156 = PRODUCT_DEFINITION_SHAPE ( 'NONE', 'NONE',  #302 ) ;
#157 =( GEOMETRIC_REPRESENTATION_CONTEXT ( 3 ) GLOBAL_UNCERTAINTY_ASSIGNED_CONTEXT ( ( #89 ) ) GLOBAL_UNIT_ASSIGNED_CONTEXT ( ( #47, #383, #198 ) ) REPRESENTATION_CONTEXT ( 'NONE', 'WORKASPACE' ) );
#158 = EDGE_CURVE ( 'NONE', #705, #670, #341, .T. ) ;
#159 = CLOSED_SHELL ( 'NONE', ( #385, #299, #172, #489, #306, #168, #538, #288, #366 ) ) ;
#160 = DIRECTION ( 'NONE',  ( -0.000000000000000000, 1.000000000000000000, -0.000000000000000000 ) ) ;
#161 = EDGE_LOOP ( 'NONE', ( #230, #713, #689, #509 ) ) ;
#162 = CARTESIAN_POINT ( 'NONE',  ( -0.6000000000000003109, 0.9499999999999999556, 0.3999999999999999667 ) ) ;
#163 = DIRECTION ( 'NONE',  ( 0.000000000000000000, 1.000000000000000000, 0.000000000000000000 ) ) ;
#164 = PRESENTATION_LAYER_ASSIGNMENT (  '', '', ( #494 ) ) ;
#165 = CARTESIAN_POINT ( 'NONE',  ( -0.6000000000000003109, 0.5257359312880715008, 0.3999999999999999667 ) ) ;
#166 = CARTESIAN_POINT ( 'NONE',  ( 0.9999999999999997780, 0.000000000000000000, -0.8000000000000001554 ) ) ;
#167 = DIRECTION ( 'NONE',  ( 0.000000000000000000, 0.000000000000000000, -1.000000000000000000 ) ) ;
#168 = ADVANCED_FACE ( 'NONE', ( #100 ), #417, .T. ) ;
#169 = PRESENTATION_LAYER_ASSIGNMENT (  '', '', ( #273 ) ) ;
#170 = CARTESIAN_POINT ( 'NONE',  ( 0.3999999999999998557, 0.000000000000000000, 0.8000000000000001554 ) ) ;
#171 = CARTESIAN_POINT ( 'NONE',  ( -1.000000000000000222, 4.561249694973139590, 0.7999999999999999334 ) ) ;
#172 = ADVANCED_FACE ( 'NONE', ( #573 ), #137, .F. ) ;
#173 = COLOUR_RGB ( '',1.000000000000000000, 1.000000000000000000, 1.000000000000000000 ) ;
#174 = VECTOR ( 'NONE', #79, 1000.000000000000000 ) ;
#175 = CARTESIAN_POINT ( 'NONE',  ( -1.000000000000000222, 4.561249694973139590, -0.8000000000000001554 ) ) ;
#176 = FACE_OUTER_BOUND ( 'NONE', #313, .T. ) ;
#177 = DIRECTION ( 'NONE',  ( -1.000000000000000000, -0.000000000000000000, -0.000000000000000000 ) ) ;
#178 = EDGE_CURVE ( 'NONE', #52, #69, #572, .T. ) ;
#179 = VECTOR ( 'NONE', #381, 1000.000000000000000 ) ;
#180 = CARTESIAN_POINT ( 'NONE',  ( -0.3999999999999998557, 0.04999999999999991257, 0.8000000000000001554 ) ) ;
#181 = VERTEX_POINT ( 'NONE', #7 ) ;
#182 = ORIENTED_EDGE ( 'NONE', *, *, #350, .T. ) ;
#183 =( LENGTH_UNIT ( ) NAMED_UNIT ( * ) SI_UNIT ( .MILLI., .METRE. ) );
#184 = VERTEX_POINT ( 'NONE', #280 ) ;
#185 = VERTEX_POINT ( 'NONE', #374 ) ;
#186 = DIRECTION ( 'NONE',  ( -1.000000000000000000, 0.000000000000000000, -0.000000000000000000 ) ) ;
#187 = VERTEX_POINT ( 'NONE', #621 ) ;
#188 = ORIENTED_EDGE ( 'NONE', *, *, #542, .T. ) ;
#189 = DIRECTION ( 'NONE',  ( 0.000000000000000000, 1.000000000000000000, 0.000000000000000000 ) ) ;
#190 = VERTEX_POINT ( 'NONE', #289 ) ;
#191 = FILL_AREA_STYLE_COLOUR ( '', #375 ) ;
#192 = EDGE_LOOP ( 'NONE', ( #694, #536, #704, #433 ) ) ;
#193 = ADVANCED_FACE ( 'NONE', ( #579 ), #398, .F. ) ;
#194 = DIRECTION ( 'NONE',  ( -1.000000000000000000, 0.000000000000000000, 6.776263578034403945E-17 ) ) ;
#195 = EDGE_LOOP ( 'NONE', ( #284, #700, #504, #449 ) ) ;
#196 = CARTESIAN_POINT ( 'NONE',  ( -1.000000000000000222, 1.000000000000000000, 0.7999999999999999334 ) ) ;
#197 = ORIENTED_EDGE ( 'NONE', *, *, #148, .T. ) ;
#198 =( NAMED_UNIT ( * ) SI_UNIT ( $, .STERADIAN. ) SOLID_ANGLE_UNIT ( ) );
#199 = ORIENTED_EDGE ( 'NONE', *, *, #578, .T. ) ;
#200 = LINE ( 'NONE', #649, #680 ) ;
#201 = AXIS2_PLACEMENT_3D ( 'NONE', #143, #218, #346 ) ;
#202 = SURFACE_STYLE_FILL_AREA ( #560 ) ;
#203 = EDGE_LOOP ( 'NONE', ( #232, #474 ) ) ;
#204 =( NAMED_UNIT ( * ) SI_UNIT ( $, .STERADIAN. ) SOLID_ANGLE_UNIT ( ) );
#205 = FACE_OUTER_BOUND ( 'NONE', #286, .T. ) ;
#206 = EDGE_CURVE ( 'NONE', #703, #185, #91, .T. ) ;
#207 = CARTESIAN_POINT ( 'NONE',  ( -0.6000000000000003109, 0.9499999999999999556, 0.3999999999999999667 ) ) ;
#208 = EDGE_LOOP ( 'NONE', ( #465, #49, #594, #495 ) ) ;
#209 = VERTEX_POINT ( 'NONE', #505 ) ;
#210 = CLOSED_SHELL ( 'NONE', ( #638, #193, #264, #456, #153, #87 ) ) ;
#211 = SURFACE_STYLE_USAGE ( .BOTH. , #261 ) ;
#212 = VECTOR ( 'NONE', #141, 1000.000000000000000 ) ;
#213 = ORIENTED_EDGE ( 'NONE', *, *, #20, .T. ) ;
#214 = VECTOR ( 'NONE', #38, 1000.000000000000000 ) ;
#215 = EDGE_CURVE ( 'NONE', #187, #28, #429, .T. ) ;
#216 = DIRECTION ( 'NONE',  ( 0.000000000000000000, -0.000000000000000000, -1.000000000000000000 ) ) ;
#217 = EDGE_CURVE ( 'NONE', #240, #46, #653, .T. ) ;
#218 = DIRECTION ( 'NONE',  ( 1.000000000000000000, -0.000000000000000000, 6.776263578034403945E-17 ) ) ;
#219 = CARTESIAN_POINT ( 'NONE',  ( -0.6000000000000003109, 1.000000000000000000, 0.3999999999999999667 ) ) ;
#220 = VERTEX_POINT ( 'NONE', #618 ) ;
#221 = ORIENTED_EDGE ( 'NONE', *, *, #20, .F. ) ;
#222 = PRODUCT_DEFINITION_FORMATION_WITH_SPECIFIED_SOURCE ( 'ANY', '', #68, .NOT_KNOWN. ) ;
#223 = CARTESIAN_POINT ( 'NONE',  ( 0.000000000000000000, 0.05000000000000000278, 0.000000000000000000 ) ) ;
#224 = EDGE_CURVE ( 'NONE', #670, #458, #428, .T. ) ;
#225 = ORIENTED_EDGE ( 'NONE', *, *, #362, .F. ) ;
#226 = FACE_OUTER_BOUND ( 'NONE', #195, .T. ) ;
#227 = ORIENTED_EDGE ( 'NONE', *, *, #206, .F. ) ;
#228 = DIRECTION ( 'NONE',  ( -0.000000000000000000, -1.000000000000000000, -0.000000000000000000 ) ) ;
#229 = ORIENTED_EDGE ( 'NONE', *, *, #693, .T. ) ;
#230 = ORIENTED_EDGE ( 'NONE', *, *, #322, .F. ) ;
#231 = VERTEX_POINT ( 'NONE', #312 ) ;
#232 = ORIENTED_EDGE ( 'NONE', *, *, #690, .T. ) ;
#233 = ADVANCED_FACE ( 'NONE', ( #176 ), #432, .T. ) ;
#234 = EDGE_LOOP ( 'NONE', ( #660, #126, #229, #492 ) ) ;
#235 = EDGE_CURVE ( 'NONE', #295, #705, #650, .T. ) ;
#236 = ORIENTED_EDGE ( 'NONE', *, *, #146, .T. ) ;
#237 = CIRCLE ( 'NONE', #152, 0.1499999999999999667 ) ;
#238 = SURFACE_STYLE_USAGE ( .BOTH. , #355 ) ;
#239 = CARTESIAN_POINT ( 'NONE',  ( 0.9999999999999993339, 1.000000000000000000, 0.7999999999999999334 ) ) ;
#240 = VERTEX_POINT ( 'NONE', #272 ) ;
#241 = EDGE_LOOP ( 'NONE', ( #51, #666, #445, #549 ) ) ;
#242 = ORIENTED_EDGE ( 'NONE', *, *, #617, .F. ) ;
#243 = DIRECTION ( 'NONE',  ( -6.776263578034403945E-17, -0.000000000000000000, 1.000000000000000000 ) ) ;
#244 =( GEOMETRIC_REPRESENTATION_CONTEXT ( 3 ) GLOBAL_UNCERTAINTY_ASSIGNED_CONTEXT ( ( #18 ) ) GLOBAL_UNIT_ASSIGNED_CONTEXT ( ( #664, #282, #451 ) ) REPRESENTATION_CONTEXT ( 'NONE', 'WORKASPACE' ) );
#245 = EDGE_CURVE ( 'NONE', #52, #231, #200, .T. ) ;
#246 = DIRECTION ( 'NONE',  ( 0.000000000000000000, -0.000000000000000000, -1.000000000000000000 ) ) ;
#247 = VERTEX_POINT ( 'NONE', #563 ) ;
#248 = ORIENTED_EDGE ( 'NONE', *, *, #424, .T. ) ;
#249 = ORIENTED_EDGE ( 'NONE', *, *, #441, .F. ) ;
#250 = ORIENTED_EDGE ( 'NONE', *, *, #701, .T. ) ;
#251 = ORIENTED_EDGE ( 'NONE', *, *, #662, .T. ) ;
#252 = DIRECTION ( 'NONE',  ( 0.000000000000000000, 1.000000000000000000, 0.000000000000000000 ) ) ;
#253 = AXIS2_PLACEMENT_3D ( 'NONE', #308, #529, #418 ) ;
#254 = ORIENTED_EDGE ( 'NONE', *, *, #559, .F. ) ;
#255 = CARTESIAN_POINT ( 'NONE',  ( -0.6000000000000003109, 0.9499999999999999556, 0.3999999999999999667 ) ) ;
#256 = ORIENTED_EDGE ( 'NONE', *, *, #158, .T. ) ;
#257 = CARTESIAN_POINT ( 'NONE',  ( 0.9999999999999997780, 0.04999999999999991257, 0.7999999999999999334 ) ) ;
#258 = CARTESIAN_POINT ( 'NONE',  ( -0.6000000000000003109, 1.000000000000000000, 0.3999999999999999667 ) ) ;
#259 = FILL_AREA_STYLE ('',( #191 ) ) ;
#260 = ORIENTED_EDGE ( 'NONE', *, *, #384, .F. ) ;
#261 = SURFACE_SIDE_STYLE ('',( #320 ) ) ;
#262 = CLOSED_SHELL ( 'NONE', ( #233, #517, #544, #626 ) ) ;
#263 = CARTESIAN_POINT ( 'NONE',  ( -1.000000000000000222, 0.05000000000000000278, 0.7999999999999999334 ) ) ;
#264 = ADVANCED_FACE ( 'NONE', ( #455 ), #512, .F. ) ;
#265 = EDGE_LOOP ( 'NONE', ( #469, #369, #436, #667 ) ) ;
#266 = DIRECTION ( 'NONE',  ( 0.000000000000000000, 0.000000000000000000, 1.000000000000000000 ) ) ;
#267 = CARTESIAN_POINT ( 'NONE',  ( 0.000000000000000000, 0.000000000000000000, 0.000000000000000000 ) ) ;
#268 = EDGE_LOOP ( 'NONE', ( #55, #477, #182, #250 ) ) ;
#269 = PRODUCT_CONTEXT ( 'NONE', #698, 'mechanical' ) ;
#270 = AXIS2_PLACEMENT_3D ( 'NONE', #283, #294, #515 ) ;
#271 = ORIENTED_EDGE ( 'NONE', *, *, #540, .F. ) ;
#272 = CARTESIAN_POINT ( 'NONE',  ( -1.000000000000000222, 0.05000000000000000278, -0.8000000000000001554 ) ) ;
#273 = STYLED_ITEM ( 'NONE', ( #412 ), #5 ) ;
#274 = PLANE ( 'NONE',  #454 ) ;
#275 = FACE_OUTER_BOUND ( 'NONE', #19, .T. ) ;
#276 = DIRECTION ( 'NONE',  ( 0.000000000000000000, -0.000000000000000000, 1.000000000000000000 ) ) ;
#277 = EDGE_CURVE ( 'NONE', #696, #533, #676, .T. ) ;
#278 = LINE ( 'NONE', #170, #525 ) ;
#279 = LINE ( 'NONE', #459, #522 ) ;
#280 = CARTESIAN_POINT ( 'NONE',  ( -1.000000000000000222, 1.000000000000000000, -0.8000000000000001554 ) ) ;
#281 = LINE ( 'NONE', #9, #520 ) ;
#282 =( NAMED_UNIT ( * ) PLANE_ANGLE_UNIT ( ) SI_UNIT ( $, .RADIAN. ) );
#283 = CARTESIAN_POINT ( 'NONE',  ( -0.6000000000000003109, 0.5257359312880715008, 0.3999999999999999667 ) ) ;
#284 = ORIENTED_EDGE ( 'NONE', *, *, #424, .F. ) ;
#285 = VECTOR ( 'NONE', #293, 1000.000000000000000 ) ;
#286 = EDGE_LOOP ( 'NONE', ( #501, #123, #115, #34 ) ) ;
#287 = VERTEX_POINT ( 'NONE', #715 ) ;
#288 = ADVANCED_FACE ( 'NONE', ( #684 ), #675, .F. ) ;
#289 = CARTESIAN_POINT ( 'NONE',  ( 0.3999999999999999667, 0.04999999999999991257, -0.7999999999999998224 ) ) ;
#290 = ORIENTED_EDGE ( 'NONE', *, *, #215, .F. ) ;
#291 = AXIS2_PLACEMENT_3D ( 'NONE', #395, #194, #426 ) ;
#292 = EDGE_LOOP ( 'NONE', ( #112, #440, #199, #57 ) ) ;
#293 = DIRECTION ( 'NONE',  ( -0.000000000000000000, -1.000000000000000000, -0.000000000000000000 ) ) ;
#294 = DIRECTION ( 'NONE',  ( 0.000000000000000000, 1.000000000000000000, 0.000000000000000000 ) ) ;
#295 = VERTEX_POINT ( 'NONE', #180 ) ;
#296 = VERTEX_POINT ( 'NONE', #532 ) ;
#297 = AXIS2_PLACEMENT_3D ( 'NONE', #480, #419, #585 ) ;
#298 = ORIENTED_EDGE ( 'NONE', *, *, #178, .F. ) ;
#299 = ADVANCED_FACE ( 'NONE', ( #205 ), #685, .F. ) ;
#300 = CARTESIAN_POINT ( 'NONE',  ( 0.9999999999999997780, 4.561249694973139590, -0.8000000000000001554 ) ) ;
#301 = DIRECTION ( 'NONE',  ( 0.000000000000000000, 0.000000000000000000, 1.000000000000000000 ) ) ;
#302 = PRODUCT_DEFINITION ( 'UNKNOWN', '', #222, #655 ) ;
#303 = EDGE_CURVE ( 'NONE', #184, #240, #84, .T. ) ;
#304 = CARTESIAN_POINT ( 'NONE',  ( -0.3999999999999998557, 0.000000000000000000, 0.8000000000000001554 ) ) ;
#305 = DIRECTION ( 'NONE',  ( 0.000000000000000000, 1.000000000000000000, 0.000000000000000000 ) ) ;
#306 = ADVANCED_FACE ( 'NONE', ( #568 ), #537, .F. ) ;
#307 = CARTESIAN_POINT ( 'NONE',  ( -0.6000000000000003109, 0.9499999999999999556, 0.3999999999999999667 ) ) ;
#308 = CARTESIAN_POINT ( 'NONE',  ( 0.9999999999999997780, 1.758800749063506474, 0.7999999999999999334 ) ) ;
#309 = DIRECTION ( 'NONE',  ( 0.000000000000000000, 0.000000000000000000, -1.000000000000000000 ) ) ;
#310 = AXIS2_PLACEMENT_3D ( 'NONE', #382, #189, #318 ) ;
#311 = FACE_BOUND ( 'NONE', #714, .T. ) ;
#312 = CARTESIAN_POINT ( 'NONE',  ( -0.6000000000000003109, 1.000000000000000000, 0.2500000000000000000 ) ) ;
#313 = EDGE_LOOP ( 'NONE', ( #227, #488, #699, #260 ) ) ;
#314 = VECTOR ( 'NONE', #135, 1000.000000000000000 ) ;
#315 = LINE ( 'NONE', #22, #575 ) ;
#316 = VECTOR ( 'NONE', #167, 1000.000000000000000 ) ;
#317 = DIRECTION ( 'NONE',  ( 0.000000000000000000, 0.000000000000000000, 1.000000000000000000 ) ) ;
#318 = DIRECTION ( 'NONE',  ( 0.000000000000000000, 0.000000000000000000, 1.000000000000000000 ) ) ;
#319 = EDGE_CURVE ( 'NONE', #705, #478, #82, .T. ) ;
#320 = SURFACE_STYLE_FILL_AREA ( #706 ) ;
#321 = APPLICATION_PROTOCOL_DEFINITION ( 'draft international standard', 'automotive_design', 1998, #698 ) ;
#322 = EDGE_CURVE ( 'NONE', #703, #209, #330, .T. ) ;
#323 = PRESENTATION_STYLE_ASSIGNMENT (( #211 ) ) ;
#324 = CARTESIAN_POINT ( 'NONE',  ( -0.6000000000000003109, 0.5257359312880715008, 0.5499999999999999334 ) ) ;
#325 = VECTOR ( 'NONE', #508, 1000.000000000000000 ) ;
#326 = PLANE ( 'NONE',  #378 ) ;
#327 = ADVANCED_FACE ( 'NONE', ( #226 ), #154, .F. ) ;
#328 = CARTESIAN_POINT ( 'NONE',  ( -0.6000000000000003109, 0.9499999999999999556, 0.3999999999999999667 ) ) ;
#329 = AXIS2_PLACEMENT_3D ( 'NONE', #165, #122, #583 ) ;
#330 = LINE ( 'NONE', #422, #214 ) ;
#331 = DIRECTION ( 'NONE',  ( 0.000000000000000000, 0.000000000000000000, 1.000000000000000000 ) ) ;
#332 = VECTOR ( 'NONE', #613, 1000.000000000000000 ) ;
#333 =( GEOMETRIC_REPRESENTATION_CONTEXT ( 3 ) GLOBAL_UNCERTAINTY_ASSIGNED_CONTEXT ( ( #358 ) ) GLOBAL_UNIT_ASSIGNED_CONTEXT ( ( #183, #687, #36 ) ) REPRESENTATION_CONTEXT ( 'NONE', 'WORKASPACE' ) );
#334 = FACE_OUTER_BOUND ( 'NONE', #410, .T. ) ;
#335 = VECTOR ( 'NONE', #356, 1000.000000000000000 ) ;
#336 = DIRECTION ( 'NONE',  ( -1.000000000000000000, 0.000000000000000000, 0.000000000000000000 ) ) ;
#337 = VECTOR ( 'NONE', #144, 1000.000000000000000 ) ;
#338 = EDGE_CURVE ( 'NONE', #185, #703, #237, .T. ) ;
#339 = LINE ( 'NONE', #625, #94 ) ;
#340 = DIRECTION ( 'NONE',  ( 0.000000000000000000, 0.000000000000000000, 1.000000000000000000 ) ) ;
#341 = LINE ( 'NONE', #584, #95 ) ;
#342 = FACE_OUTER_BOUND ( 'NONE', #161, .T. ) ;
#343 = DIRECTION ( 'NONE',  ( 0.000000000000000000, -1.000000000000000000, 0.000000000000000000 ) ) ;
#344 = CARTESIAN_POINT ( 'NONE',  ( 0.9999999999999997780, 0.05000000000000000278, 0.7999999999999999334 ) ) ;
#345 = LINE ( 'NONE', #10, #62 ) ;
#346 = DIRECTION ( 'NONE',  ( 6.776263578034403945E-17, 0.000000000000000000, -1.000000000000000000 ) ) ;
#347 = AXIS2_PLACEMENT_3D ( 'NONE', #255, #386, #266 ) ;
#348 = DIRECTION ( 'NONE',  ( 0.000000000000000000, -0.000000000000000000, -1.000000000000000000 ) ) ;
#349 = LINE ( 'NONE', #263, #108 ) ;
#350 = EDGE_CURVE ( 'NONE', #247, #184, #473, .T. ) ;
#351 = VECTOR ( 'NONE', #177, 1000.000000000000000 ) ;
#352 = CIRCLE ( 'NONE', #604, 0.1499999999999999667 ) ;
#353 = CARTESIAN_POINT ( 'NONE',  ( -1.000000000000000222, 0.04999999999999991257, -0.8000000000000001554 ) ) ;
#354 = LINE ( 'NONE', #647, #127 ) ;
#355 = SURFACE_SIDE_STYLE ('',( #416 ) ) ;
#356 = DIRECTION ( 'NONE',  ( 6.776263578034403945E-17, 0.000000000000000000, -1.000000000000000000 ) ) ;
#357 = VECTOR ( 'NONE', #543, 1000.000000000000000 ) ;
#358 = UNCERTAINTY_MEASURE_WITH_UNIT (LENGTH_MEASURE( 1.000000000000000082E-05 ), #183, 'distance_accuracy_value', 'NONE');
#359 = SURFACE_STYLE_FILL_AREA ( #259 ) ;
#360 =( GEOMETRIC_REPRESENTATION_CONTEXT ( 3 ) GLOBAL_UNCERTAINTY_ASSIGNED_CONTEXT ( ( #425 ) ) GLOBAL_UNIT_ASSIGNED_CONTEXT ( ( #111, #117, #53 ) ) REPRESENTATION_CONTEXT ( 'NONE', 'WORKASPACE' ) );
#361 = FACE_OUTER_BOUND ( 'NONE', #697, .T. ) ;
#362 = EDGE_CURVE ( 'NONE', #458, #295, #712, .T. ) ;
#363 = CARTESIAN_POINT ( 'NONE',  ( -0.3999999999999999667, 1.758800749063506474, -0.7999999999999998224 ) ) ;
#364 = CIRCLE ( 'NONE', #401, 0.1499999999999999667 ) ;
#365 = VECTOR ( 'NONE', #430, 1000.000000000000000 ) ;
#366 = ADVANCED_FACE ( 'NONE', ( #138 ), #557, .T. ) ;
#367 = VECTOR ( 'NONE', #309, 1000.000000000000000 ) ;
#368 = VECTOR ( 'NONE', #106, 1000.000000000000000 ) ;
#369 = ORIENTED_EDGE ( 'NONE', *, *, #637, .F. ) ;
#370 = CARTESIAN_POINT ( 'NONE',  ( -1.000000000000000222, 0.000000000000000000, 0.7999999999999999334 ) ) ;
#371 = MANIFOLD_SOLID_BREP ( 'Boss-Extrude2[1]', #707 ) ;
#372 = EDGE_LOOP ( 'NONE', ( #132, #225, #435, #674 ) ) ;
#373 = FACE_OUTER_BOUND ( 'NONE', #551, .T. ) ;
#374 = CARTESIAN_POINT ( 'NONE',  ( -0.6000000000000003109, 0.9499999999999999556, 0.5499999999999999334 ) ) ;
#375 = COLOUR_RGB ( '',0.7921568627450980005, 0.8196078431372548767, 0.9333333333333333481 ) ;
#376 = CARTESIAN_POINT ( 'NONE',  ( 0.9999999999999997780, 0.000000000000000000, 0.7999999999999999334 ) ) ;
#377 = VERTEX_POINT ( 'NONE', #482 ) ;
#378 = AXIS2_PLACEMENT_3D ( 'NONE', #267, #145, #491 ) ;
#379 = SHAPE_DEFINITION_REPRESENTATION ( #156, #31 ) ;
#380 = ORIENTED_EDGE ( 'NONE', *, *, #651, .F. ) ;
#381 = DIRECTION ( 'NONE',  ( -1.000000000000000000, 0.000000000000000000, -3.614007241618345813E-16 ) ) ;
#382 = CARTESIAN_POINT ( 'NONE',  ( -0.6000000000000003109, 0.9499999999999999556, 0.3999999999999999667 ) ) ;
#383 =( NAMED_UNIT ( * ) PLANE_ANGLE_UNIT ( ) SI_UNIT ( $, .RADIAN. ) );
#384 = EDGE_CURVE ( 'NONE', #185, #483, #102, .T. ) ;
#385 = ADVANCED_FACE ( 'NONE', ( #558 ), #97, .F. ) ;
#386 = DIRECTION ( 'NONE',  ( -0.000000000000000000, 1.000000000000000000, -0.000000000000000000 ) ) ;
#387 = DIRECTION ( 'NONE',  ( -0.000000000000000000, -1.000000000000000000, -0.000000000000000000 ) ) ;
#388 = CARTESIAN_POINT ( 'NONE',  ( 0.9999999999999997780, 1.000000000000000000, 0.7999999999999999334 ) ) ;
#389 = SURFACE_SIDE_STYLE ('',( #359 ) ) ;
#390 = CARTESIAN_POINT ( 'NONE',  ( 0.000000000000000000, 0.05000000000000000278, 0.000000000000000000 ) ) ;
#391 = DIRECTION ( 'NONE',  ( 1.000000000000000000, 0.000000000000000000, 0.000000000000000000 ) ) ;
#392 = MECHANICAL_DESIGN_GEOMETRIC_PRESENTATION_REPRESENTATION (  '', ( #78 ), #671 ) ;
#393 = DIRECTION ( 'NONE',  ( 0.000000000000000000, -0.000000000000000000, 1.000000000000000000 ) ) ;
#394 = DIRECTION ( 'NONE',  ( -5.421010862427520198E-16, 0.000000000000000000, 1.000000000000000000 ) ) ;
#395 = CARTESIAN_POINT ( 'NONE',  ( -0.3999999999999998557, 1.758800749063506474, 0.8000000000000001554 ) ) ;
#396 = AXIS2_PLACEMENT_3D ( 'NONE', #580, #630, #340 ) ;
#397 = AXIS2_PLACEMENT_3D ( 'NONE', #39, #394, #101 ) ;
#398 = PLANE ( 'NONE',  #201 ) ;
#399 = DIRECTION ( 'NONE',  ( -1.000000000000000000, -0.000000000000000000, -5.421010862427519212E-16 ) ) ;
#400 = CARTESIAN_POINT ( 'NONE',  ( 0.000000000000000000, 1.000000000000000000, 0.000000000000000000 ) ) ;
#401 = AXIS2_PLACEMENT_3D ( 'NONE', #83, #641, #611 ) ;
#402 = DIRECTION ( 'NONE',  ( 1.000000000000000000, 0.000000000000000000, -5.421010862427524142E-16 ) ) ;
#403 = CARTESIAN_POINT ( 'NONE',  ( 0.9999999999999997780, 1.758800749063506474, -0.8000000000000001554 ) ) ;
#404 = AXIS2_PLACEMENT_3D ( 'NONE', #125, #628, #72 ) ;
#405 = DIRECTION ( 'NONE',  ( 3.614007241618345813E-16, 0.000000000000000000, -1.000000000000000000 ) ) ;
#406 = EDGE_LOOP ( 'NONE', ( #236, #708 ) ) ;
#407 = ADVANCED_FACE ( 'NONE', ( #73 ), #695, .F. ) ;
#408 = DIRECTION ( 'NONE',  ( -0.000000000000000000, -1.000000000000000000, -0.000000000000000000 ) ) ;
#409 = PLANE ( 'NONE',  #140 ) ;
#410 = EDGE_LOOP ( 'NONE', ( #448, #213, #531, #668 ) ) ;
#411 = MANIFOLD_SOLID_BREP ( 'Boss-Extrude2[2]', #210 ) ;
#412 = PRESENTATION_STYLE_ASSIGNMENT (( #238 ) ) ;
#413 = EDGE_CURVE ( 'NONE', #220, #533, #556, .T. ) ;
#414 = PLANE ( 'NONE',  #109 ) ;
#415 = EDGE_LOOP ( 'NONE', ( #118, #688, #4, #271 ) ) ;
#416 = SURFACE_STYLE_FILL_AREA ( #130 ) ;
#417 = PLANE ( 'NONE',  #510 ) ;
#418 = DIRECTION ( 'NONE',  ( -1.000000000000000000, 0.000000000000000000, 3.614007241618348771E-16 ) ) ;
#419 = DIRECTION ( 'NONE',  ( 0.000000000000000000, -1.000000000000000000, 0.000000000000000000 ) ) ;
#420 = STYLED_ITEM ( 'NONE', ( #323 ), #371 ) ;
#421 = CARTESIAN_POINT ( 'NONE',  ( -1.000000000000000222, 1.000000000000000000, 0.7999999999999999334 ) ) ;
#422 = CARTESIAN_POINT ( 'NONE',  ( -0.6000000000000003109, 0.5257359312880715008, 0.2500000000000000000 ) ) ;
#423 = CARTESIAN_POINT ( 'NONE',  ( 0.000000000000000000, 0.000000000000000000, 0.000000000000000000 ) ) ;
#424 = EDGE_CURVE ( 'NONE', #458, #711, #547, .T. ) ;
#425 = UNCERTAINTY_MEASURE_WITH_UNIT (LENGTH_MEASURE( 1.000000000000000082E-05 ), #111, 'distance_accuracy_value', 'NONE');
#426 = DIRECTION ( 'NONE',  ( 6.776263578034403945E-17, 0.000000000000000000, 1.000000000000000000 ) ) ;
#427 = APPLICATION_CONTEXT ( 'automotive_design' ) ;
#428 = LINE ( 'NONE', #353, #174 ) ;
#429 = LINE ( 'NONE', #63, #652 ) ;
#430 = DIRECTION ( 'NONE',  ( -1.000000000000000000, 0.000000000000000000, 5.421010862427524142E-16 ) ) ;
#431 = MECHANICAL_DESIGN_GEOMETRIC_PRESENTATION_REPRESENTATION (  '', ( #494 ), #133 ) ;
#432 = CYLINDRICAL_SURFACE ( 'NONE', #329, 0.1499999999999999667 ) ;
#433 = ORIENTED_EDGE ( 'NONE', *, *, #461, .T. ) ;
#434 = DIRECTION ( 'NONE',  ( 6.776263578034403945E-17, 0.000000000000000000, 1.000000000000000000 ) ) ;
#435 = ORIENTED_EDGE ( 'NONE', *, *, #224, .F. ) ;
#436 = ORIENTED_EDGE ( 'NONE', *, *, #217, .F. ) ;
#437 = VERTEX_POINT ( 'NONE', #513 ) ;
#438 = ORIENTED_EDGE ( 'NONE', *, *, #120, .F. ) ;
#439 = DIRECTION ( 'NONE',  ( -1.000000000000000000, 0.000000000000000000, 0.000000000000000000 ) ) ;
#440 = ORIENTED_EDGE ( 'NONE', *, *, #120, .T. ) ;
#441 = EDGE_CURVE ( 'NONE', #69, #377, #339, .T. ) ;
#442 = VERTEX_POINT ( 'NONE', #239 ) ;
#443 = DIRECTION ( 'NONE',  ( -0.000000000000000000, -1.000000000000000000, -0.000000000000000000 ) ) ;
#444 = ORIENTED_EDGE ( 'NONE', *, *, #596, .F. ) ;
#445 = ORIENTED_EDGE ( 'NONE', *, *, #413, .T. ) ;
#446 = CARTESIAN_POINT ( 'NONE',  ( -1.000000000000000222, 1.758800749063506474, 0.7999999999999999334 ) ) ;
#447 = DIRECTION ( 'NONE',  ( 0.000000000000000000, -1.000000000000000000, 0.000000000000000000 ) ) ;
#448 = ORIENTED_EDGE ( 'NONE', *, *, #578, .F. ) ;
#449 = ORIENTED_EDGE ( 'NONE', *, *, #617, .T. ) ;
#450 = ORIENTED_EDGE ( 'NONE', *, *, #29, .T. ) ;
#451 =( NAMED_UNIT ( * ) SI_UNIT ( $, .STERADIAN. ) SOLID_ANGLE_UNIT ( ) );
#452 = DIRECTION ( 'NONE',  ( 1.000000000000000000, -0.000000000000000000, 0.000000000000000000 ) ) ;
#453 = EDGE_LOOP ( 'NONE', ( #290, #188, #197, #450 ) ) ;
#454 = AXIS2_PLACEMENT_3D ( 'NONE', #658, #343, #348 ) ;
#455 = FACE_OUTER_BOUND ( 'NONE', #241, .T. ) ;
#456 = ADVANCED_FACE ( 'NONE', ( #571 ), #2, .F. ) ;
#457 = CARTESIAN_POINT ( 'NONE',  ( -0.3999999999999999667, 0.04999999999999991257, -0.7999999999999998224 ) ) ;
#458 = VERTEX_POINT ( 'NONE', #457 ) ;
#459 = CARTESIAN_POINT ( 'NONE',  ( 0.9999999999999997780, 0.04999999999999991257, 0.7999999999999999334 ) ) ;
#460 = DIRECTION ( 'NONE',  ( -0.000000000000000000, -0.000000000000000000, 1.000000000000000000 ) ) ;
#461 = EDGE_CURVE ( 'NONE', #478, #41, #582, .T. ) ;
#462 = ADVANCED_FACE ( 'NONE', ( #545 ), #409, .F. ) ;
#463 = ORIENTED_EDGE ( 'NONE', *, *, #206, .T. ) ;
#464 = DIRECTION ( 'NONE',  ( 0.000000000000000000, 0.000000000000000000, 1.000000000000000000 ) ) ;
#465 = ORIENTED_EDGE ( 'NONE', *, *, #576, .F. ) ;
#466 = CARTESIAN_POINT ( 'NONE',  ( -1.000000000000000222, 0.05000000000000000278, 0.7999999999999999334 ) ) ;
#467 = PLANE ( 'NONE',  #682 ) ;
#468 = ORIENTED_EDGE ( 'NONE', *, *, #554, .T. ) ;
#469 = ORIENTED_EDGE ( 'NONE', *, *, #534, .F. ) ;
#470 = ORIENTED_EDGE ( 'NONE', *, *, #662, .F. ) ;
#471 = EDGE_CURVE ( 'NONE', #287, #478, #553, .T. ) ;
#472 = DIRECTION ( 'NONE',  ( -0.000000000000000000, 1.000000000000000000, -0.000000000000000000 ) ) ;
#473 = LINE ( 'NONE', #502, #12 ) ;
#474 = ORIENTED_EDGE ( 'NONE', *, *, #516, .T. ) ;
#475 = SURFACE_STYLE_USAGE ( .BOTH. , #631 ) ;
#476 = DIRECTION ( 'NONE',  ( -0.000000000000000000, -1.000000000000000000, -0.000000000000000000 ) ) ;
#477 = ORIENTED_EDGE ( 'NONE', *, *, #663, .T. ) ;
#478 = VERTEX_POINT ( 'NONE', #66 ) ;
#479 = CARTESIAN_POINT ( 'NONE',  ( -1.000000000000000222, 0.04999999999999991257, 0.7999999999999999334 ) ) ;
#480 = CARTESIAN_POINT ( 'NONE',  ( 0.000000000000000000, 0.000000000000000000, 0.000000000000000000 ) ) ;
#481 = AXIS2_PLACEMENT_3D ( 'NONE', #162, #656, #464 ) ;
#482 = CARTESIAN_POINT ( 'NONE',  ( -0.6000000000000003109, 1.000000000000000000, 0.5499999999999999334 ) ) ;
#483 = VERTEX_POINT ( 'NONE', #659 ) ;
#484 = ORIENTED_EDGE ( 'NONE', *, *, #471, .F. ) ;
#485 = CARTESIAN_POINT ( 'NONE',  ( 0.3999999999999999667, 1.758800749063506474, -0.7999999999999998224 ) ) ;
#486 = CARTESIAN_POINT ( 'NONE',  ( 0.9999999999999997780, 1.758800749063506474, 0.7999999999999999334 ) ) ;
#487 = UNCERTAINTY_MEASURE_WITH_UNIT (LENGTH_MEASURE( 1.000000000000000082E-05 ), #642, 'distance_accuracy_value', 'NONE');
#488 = ORIENTED_EDGE ( 'NONE', *, *, #322, .T. ) ;
#489 = ADVANCED_FACE ( 'NONE', ( #70 ), #570, .F. ) ;
#490 = DIRECTION ( 'NONE',  ( 0.000000000000000000, -1.000000000000000000, 0.000000000000000000 ) ) ;
#491 = DIRECTION ( 'NONE',  ( 0.000000000000000000, 0.000000000000000000, -1.000000000000000000 ) ) ;
#492 = ORIENTED_EDGE ( 'NONE', *, *, #303, .F. ) ;
#493 = PRODUCT_RELATED_PRODUCT_CATEGORY ( 'part', '', ( #68 ) ) ;
#494 = STYLED_ITEM ( 'NONE', ( #85 ), #411 ) ;
#495 = ORIENTED_EDGE ( 'NONE', *, *, #511, .F. ) ;
#496 = DIRECTION ( 'NONE',  ( 0.000000000000000000, 0.000000000000000000, -1.000000000000000000 ) ) ;
#497 = PLANE ( 'NONE',  #562 ) ;
#498 = ORIENTED_EDGE ( 'NONE', *, *, #319, .F. ) ;
#499 = DIRECTION ( 'NONE',  ( 1.000000000000000000, 0.000000000000000000, 0.000000000000000000 ) ) ;
#500 = AXIS2_PLACEMENT_3D ( 'NONE', #258, #252, #32 ) ;
#501 = ORIENTED_EDGE ( 'NONE', *, *, #663, .F. ) ;
#502 = CARTESIAN_POINT ( 'NONE',  ( -1.000000000000000222, 1.000000000000000000, -0.8000000000000001554 ) ) ;
#503 = ORIENTED_EDGE ( 'NONE', *, *, #146, .F. ) ;
#504 = ORIENTED_EDGE ( 'NONE', *, *, #37, .T. ) ;
#505 = CARTESIAN_POINT ( 'NONE',  ( -0.6000000000000003109, 1.000000000000000000, 0.2500000000000000000 ) ) ;
#506 = ORIENTED_EDGE ( 'NONE', *, *, #90, .F. ) ;
#507 = FILL_AREA_STYLE_COLOUR ( '', #173 ) ;
#508 = DIRECTION ( 'NONE',  ( -0.000000000000000000, -1.000000000000000000, -0.000000000000000000 ) ) ;
#509 = ORIENTED_EDGE ( 'NONE', *, *, #516, .F. ) ;
#510 = AXIS2_PLACEMENT_3D ( 'NONE', #223, #447, #246 ) ;
#511 = EDGE_CURVE ( 'NONE', #442, #437, #315, .T. ) ;
#512 = PLANE ( 'NONE',  #524 ) ;
#513 = CARTESIAN_POINT ( 'NONE',  ( 0.9999999999999997780, 0.05000000000000000278, 0.7999999999999999334 ) ) ;
#514 = ORIENTED_EDGE ( 'NONE', *, *, #224, .T. ) ;
#515 = DIRECTION ( 'NONE',  ( 0.000000000000000000, 0.000000000000000000, 1.000000000000000000 ) ) ;
#516 = EDGE_CURVE ( 'NONE', #209, #483, #74, .T. ) ;
#517 = ADVANCED_FACE ( 'NONE', ( #342 ), #71, .T. ) ;
#518 = EDGE_CURVE ( 'NONE', #28, #696, #345, .T. ) ;
#519 = CARTESIAN_POINT ( 'NONE',  ( 0.9999999999999997780, 1.758800749063506474, 0.7999999999999999334 ) ) ;
#520 = VECTOR ( 'NONE', #399, 1000.000000000000000 ) ;
#521 = DIRECTION ( 'NONE',  ( 0.000000000000000000, 0.000000000000000000, 1.000000000000000000 ) ) ;
#522 = VECTOR ( 'NONE', #75, 1000.000000000000000 ) ;
#523 = DIRECTION ( 'NONE',  ( 0.000000000000000000, 1.000000000000000000, 0.000000000000000000 ) ) ;
#524 = AXIS2_PLACEMENT_3D ( 'NONE', #403, #24, #402 ) ;
#525 = VECTOR ( 'NONE', #243, 1000.000000000000000 ) ;
#526 = FACE_OUTER_BOUND ( 'NONE', #192, .T. ) ;
#527 = DIRECTION ( 'NONE',  ( 1.000000000000000000, 0.000000000000000000, -0.000000000000000000 ) ) ;
#528 = LINE ( 'NONE', #300, #40 ) ;
#529 = DIRECTION ( 'NONE',  ( -3.614007241618348771E-16, 0.000000000000000000, -1.000000000000000000 ) ) ;
#530 = DIRECTION ( 'NONE',  ( -6.776263578034403945E-17, 0.000000000000000000, -1.000000000000000000 ) ) ;
#531 = ORIENTED_EDGE ( 'NONE', *, *, #215, .T. ) ;
#532 = CARTESIAN_POINT ( 'NONE',  ( 0.9999999999999997780, 0.05000000000000000278, -0.8000000000000001554 ) ) ;
#533 = VERTEX_POINT ( 'NONE', #166 ) ;
#534 = EDGE_CURVE ( 'NONE', #437, #296, #65, .T. ) ;
#535 = DIRECTION ( 'NONE',  ( -0.000000000000000000, 0.000000000000000000, 1.000000000000000000 ) ) ;
#536 = ORIENTED_EDGE ( 'NONE', *, *, #235, .T. ) ;
#537 = PLANE ( 'NONE',  #643 ) ;
#538 = ADVANCED_FACE ( 'NONE', ( #311, #77 ), #414, .T. ) ;
#539 = CARTESIAN_POINT ( 'NONE',  ( -1.000000000000000222, 0.04999999999999991257, -0.8000000000000001554 ) ) ;
#540 = EDGE_CURVE ( 'NONE', #679, #46, #550, .T. ) ;
#541 = FILL_AREA_STYLE_COLOUR ( '', #67 ) ;
#542 = EDGE_CURVE ( 'NONE', #187, #190, #88, .T. ) ;
#543 = DIRECTION ( 'NONE',  ( 1.000000000000000000, -0.000000000000000000, 0.000000000000000000 ) ) ;
#544 = ADVANCED_FACE ( 'NONE', ( #612 ), #467, .T. ) ;
#545 = FACE_OUTER_BOUND ( 'NONE', #3, .T. ) ;
#546 = DIRECTION ( 'NONE',  ( -0.000000000000000000, -1.000000000000000000, -0.000000000000000000 ) ) ;
#547 = LINE ( 'NONE', #363, #569 ) ;
#548 = CARTESIAN_POINT ( 'NONE',  ( 0.3999999999999999667, 0.000000000000000000, -0.7999999999999998224 ) ) ;
#549 = ORIENTED_EDGE ( 'NONE', *, *, #596, .T. ) ;
#550 = LINE ( 'NONE', #171, #325 ) ;
#551 = EDGE_LOOP ( 'NONE', ( #54, #121, #444, #607 ) ) ;
#552 = PRESENTATION_LAYER_ASSIGNMENT (  '', '', ( #586 ) ) ;
#553 = LINE ( 'NONE', #370, #64 ) ;
#554 = EDGE_CURVE ( 'NONE', #231, #377, #352, .T. ) ;
#555 = VECTOR ( 'NONE', #565, 1000.000000000000000 ) ;
#556 = LINE ( 'NONE', #48, #555 ) ;
#557 = PLANE ( 'NONE',  #86 ) ;
#558 = FACE_OUTER_BOUND ( 'NONE', #16, .T. ) ;
#559 = EDGE_CURVE ( 'NONE', #190, #220, #354, .T. ) ;
#560 = FILL_AREA_STYLE ('',( #507 ) ) ;
#561 = CARTESIAN_POINT ( 'NONE',  ( 0.3999999999999998557, 0.04999999999999991257, 0.8000000000000001554 ) ) ;
#562 = AXIS2_PLACEMENT_3D ( 'NONE', #207, #93, #644 ) ;
#563 = CARTESIAN_POINT ( 'NONE',  ( 0.9999999999999997780, 1.000000000000000000, -0.8000000000000001554 ) ) ;
#564 = CARTESIAN_POINT ( 'NONE',  ( -0.3999999999999998557, 1.758800749063506474, 0.8000000000000001554 ) ) ;
#565 = DIRECTION ( 'NONE',  ( -0.000000000000000000, -1.000000000000000000, -0.000000000000000000 ) ) ;
#566 = AXIS2_PLACEMENT_3D ( 'NONE', #26, #163, #131 ) ;
#567 = VECTOR ( 'NONE', #602, 1000.000000000000000 ) ;
#568 = FACE_OUTER_BOUND ( 'NONE', #208, .T. ) ;
#569 = VECTOR ( 'NONE', #81, 1000.000000000000000 ) ;
#570 = PLANE ( 'NONE',  #404 ) ;
#571 = FACE_OUTER_BOUND ( 'NONE', #292, .T. ) ;
#572 = CIRCLE ( 'NONE', #481, 0.1499999999999999667 ) ;
#573 = FACE_OUTER_BOUND ( 'NONE', #234, .T. ) ;
#574 = VECTOR ( 'NONE', #387, 1000.000000000000000 ) ;
#575 = VECTOR ( 'NONE', #228, 1000.000000000000000 ) ;
#576 = EDGE_CURVE ( 'NONE', #679, #442, #587, .T. ) ;
#577 = CIRCLE ( 'NONE', #310, 0.1499999999999999667 ) ;
#578 = EDGE_CURVE ( 'NONE', #181, #696, #114, .T. ) ;
#579 = FACE_OUTER_BOUND ( 'NONE', #453, .T. ) ;
#580 = CARTESIAN_POINT ( 'NONE',  ( -0.6000000000000003109, 0.9499999999999999556, 0.3999999999999999667 ) ) ;
#581 = DIRECTION ( 'NONE',  ( 0.000000000000000000, -0.000000000000000000, 1.000000000000000000 ) ) ;
#582 = LINE ( 'NONE', #13, #314 ) ;
#583 = DIRECTION ( 'NONE',  ( 0.000000000000000000, 0.000000000000000000, 1.000000000000000000 ) ) ;
#584 = CARTESIAN_POINT ( 'NONE',  ( -1.000000000000000222, 0.04999999999999991257, 0.7999999999999999334 ) ) ;
#585 = DIRECTION ( 'NONE',  ( 0.000000000000000000, -0.000000000000000000, -1.000000000000000000 ) ) ;
#586 = STYLED_ITEM ( 'NONE', ( #119 ), #31 ) ;
#587 = LINE ( 'NONE', #196, #357 ) ;
#588 = VECTOR ( 'NONE', #476, 1000.000000000000000 ) ;
#589 = LINE ( 'NONE', #606, #124 ) ;
#590 = CARTESIAN_POINT ( 'NONE',  ( -0.6000000000000003109, 0.9499999999999999556, 0.2500000000000000000 ) ) ;
#591 = VECTOR ( 'NONE', #535, 1000.000000000000000 ) ;
#592 = AXIS2_PLACEMENT_3D ( 'NONE', #423, #155, #499 ) ;
#593 = DIRECTION ( 'NONE',  ( 0.000000000000000000, 1.000000000000000000, 0.000000000000000000 ) ) ;
#594 = ORIENTED_EDGE ( 'NONE', *, *, #637, .T. ) ;
#595 = LINE ( 'NONE', #388, #367 ) ;
#596 = EDGE_CURVE ( 'NONE', #533, #677, #605, .T. ) ;
#597 = PLANE ( 'NONE',  #253 ) ;
#598 = CARTESIAN_POINT ( 'NONE',  ( -1.000000000000000222, 1.000000000000000000, 0.7999999999999999334 ) ) ;
#599 = ORIENTED_EDGE ( 'NONE', *, *, #441, .T. ) ;
#600 = ORIENTED_EDGE ( 'NONE', *, *, #245, .F. ) ;
#601 = FACE_OUTER_BOUND ( 'NONE', #603, .T. ) ;
#602 = DIRECTION ( 'NONE',  ( -0.000000000000000000, -1.000000000000000000, -0.000000000000000000 ) ) ;
#603 = EDGE_LOOP ( 'NONE', ( #27, #463 ) ) ;
#604 = AXIS2_PLACEMENT_3D ( 'NONE', #673, #632, #620 ) ;
#605 = LINE ( 'NONE', #681, #365 ) ;
#606 = CARTESIAN_POINT ( 'NONE',  ( -0.3999999999999998557, 0.000000000000000000, 0.8000000000000001554 ) ) ;
#607 = ORIENTED_EDGE ( 'NONE', *, *, #277, .F. ) ;
#608 = LINE ( 'NONE', #421, #591 ) ;
#609 = PRESENTATION_LAYER_ASSIGNMENT (  '', '', ( #420 ) ) ;
#610 = CARTESIAN_POINT ( 'NONE',  ( -0.3999999999999998557, 0.04999999999999991257, 0.8000000000000001554 ) ) ;
#611 = DIRECTION ( 'NONE',  ( 0.000000000000000000, 0.000000000000000000, 1.000000000000000000 ) ) ;
#612 = FACE_OUTER_BOUND ( 'NONE', #203, .T. ) ;
#613 = DIRECTION ( 'NONE',  ( -0.000000000000000000, -1.000000000000000000, -0.000000000000000000 ) ) ;
#614 = UNCERTAINTY_MEASURE_WITH_UNIT (LENGTH_MEASURE( 1.000000000000000082E-05 ), #25, 'distance_accuracy_value', 'NONE');
#615 = MECHANICAL_DESIGN_GEOMETRIC_PRESENTATION_REPRESENTATION (  '', ( #420 ), #360 ) ;
#616 = CARTESIAN_POINT ( 'NONE',  ( -0.6000000000000003109, 0.9499999999999999556, 0.3999999999999999667 ) ) ;
#617 = EDGE_CURVE ( 'NONE', #41, #711, #589, .T. ) ;
#618 = CARTESIAN_POINT ( 'NONE',  ( 0.9999999999999997780, 0.04999999999999991257, -0.8000000000000001554 ) ) ;
#619 = DIRECTION ( 'NONE',  ( -1.000000000000000000, 0.000000000000000000, -3.614007241618345813E-16 ) ) ;
#620 = DIRECTION ( 'NONE',  ( 0.000000000000000000, 0.000000000000000000, 1.000000000000000000 ) ) ;
#621 = CARTESIAN_POINT ( 'NONE',  ( 0.3999999999999998557, 0.04999999999999991257, 0.8000000000000001554 ) ) ;
#622 = AXIS2_PLACEMENT_3D ( 'NONE', #307, #672, #59 ) ;
#623 = CARTESIAN_POINT ( 'NONE',  ( -0.6000000000000003109, 0.9499999999999999556, 0.5499999999999999334 ) ) ;
#624 = FILL_AREA_STYLE_COLOUR ( '', #646 ) ;
#625 = CARTESIAN_POINT ( 'NONE',  ( -0.6000000000000003109, 0.9499999999999999556, 0.5499999999999999334 ) ) ;
#626 = ADVANCED_FACE ( 'NONE', ( #601 ), #497, .F. ) ;
#627 = PLANE ( 'NONE',  #104 ) ;
#628 = DIRECTION ( 'NONE',  ( 1.000000000000000000, -0.000000000000000000, 0.000000000000000000 ) ) ;
#629 = ADVANCED_FACE ( 'NONE', ( #134 ), #702, .F. ) ;
#630 = DIRECTION ( 'NONE',  ( -0.000000000000000000, 1.000000000000000000, -0.000000000000000000 ) ) ;
#631 = SURFACE_SIDE_STYLE ('',( #202 ) ) ;
#632 = DIRECTION ( 'NONE',  ( 0.000000000000000000, 1.000000000000000000, 0.000000000000000000 ) ) ;
#633 = AXIS2_PLACEMENT_3D ( 'NONE', #35, #336, #317 ) ;
#634 = DIRECTION ( 'NONE',  ( 0.000000000000000000, 0.000000000000000000, -1.000000000000000000 ) ) ;
#635 = CARTESIAN_POINT ( 'NONE',  ( -0.3999999999999999667, 0.000000000000000000, -0.7999999999999998224 ) ) ;
#636 = PRESENTATION_LAYER_ASSIGNMENT (  '', '', ( #78 ) ) ;
#637 = EDGE_CURVE ( 'NONE', #46, #437, #349, .T. ) ;
#638 = ADVANCED_FACE ( 'NONE', ( #373 ), #326, .T. ) ;
#639 = FILL_AREA_STYLE_COLOUR ( '', #33 ) ;
#640 = VECTOR ( 'NONE', #434, 1000.000000000000000 ) ;
#641 = DIRECTION ( 'NONE',  ( 0.000000000000000000, 1.000000000000000000, 0.000000000000000000 ) ) ;
#642 =( LENGTH_UNIT ( ) NAMED_UNIT ( * ) SI_UNIT ( .MILLI., .METRE. ) );
#643 = AXIS2_PLACEMENT_3D ( 'NONE', #645, #496, #186 ) ;
#644 = DIRECTION ( 'NONE',  ( 0.000000000000000000, -0.000000000000000000, 1.000000000000000000 ) ) ;
#645 = CARTESIAN_POINT ( 'NONE',  ( -1.000000000000000222, 4.561249694973139590, 0.7999999999999999334 ) ) ;
#646 = COLOUR_RGB ( '',0.2509803921568627416, 0.2509803921568627416, 0.2509803921568627416 ) ;
#647 = CARTESIAN_POINT ( 'NONE',  ( 0.9999999999999997780, 0.04999999999999991257, -0.8000000000000001554 ) ) ;
#648 = CARTESIAN_POINT ( 'NONE',  ( -0.6000000000000003109, 0.9499999999999999556, 0.2500000000000000000 ) ) ;
#649 = CARTESIAN_POINT ( 'NONE',  ( -0.6000000000000003109, 0.9499999999999999556, 0.2500000000000000000 ) ) ;
#650 = LINE ( 'NONE', #479, #179 ) ;
#651 = EDGE_CURVE ( 'NONE', #377, #231, #110, .T. ) ;
#652 = VECTOR ( 'NONE', #443, 1000.000000000000000 ) ;
#653 = LINE ( 'NONE', #30, #654 ) ;
#654 = VECTOR ( 'NONE', #128, 1000.000000000000000 ) ;
#655 = PRODUCT_DEFINITION_CONTEXT ( 'detailed design', #427, 'design' ) ;
#656 = DIRECTION ( 'NONE',  ( 0.000000000000000000, 1.000000000000000000, 0.000000000000000000 ) ) ;
#657 = PRESENTATION_STYLE_ASSIGNMENT (( #475 ) ) ;
#658 = CARTESIAN_POINT ( 'NONE',  ( 0.000000000000000000, 0.05000000000000000278, 0.000000000000000000 ) ) ;
#659 = CARTESIAN_POINT ( 'NONE',  ( -0.6000000000000003109, 1.000000000000000000, 0.5499999999999999334 ) ) ;
#660 = ORIENTED_EDGE ( 'NONE', *, *, #350, .F. ) ;
#661 = EDGE_LOOP ( 'NONE', ( #600, #503, #599, #6 ) ) ;
#662 = EDGE_CURVE ( 'NONE', #670, #287, #116, .T. ) ;
#663 = EDGE_CURVE ( 'NONE', #442, #247, #595, .T. ) ;
#664 =( LENGTH_UNIT ( ) NAMED_UNIT ( * ) SI_UNIT ( .MILLI., .METRE. ) );
#665 = DIRECTION ( 'NONE',  ( 0.000000000000000000, 0.000000000000000000, -1.000000000000000000 ) ) ;
#666 = ORIENTED_EDGE ( 'NONE', *, *, #559, .T. ) ;
#667 = ORIENTED_EDGE ( 'NONE', *, *, #693, .F. ) ;
#668 = ORIENTED_EDGE ( 'NONE', *, *, #518, .T. ) ;
#669 = ORIENTED_EDGE ( 'NONE', *, *, #554, .F. ) ;
#670 = VERTEX_POINT ( 'NONE', #539 ) ;
#671 =( GEOMETRIC_REPRESENTATION_CONTEXT ( 3 ) GLOBAL_UNCERTAINTY_ASSIGNED_CONTEXT ( ( #614 ) ) GLOBAL_UNIT_ASSIGNED_CONTEXT ( ( #25, #80, #92 ) ) REPRESENTATION_CONTEXT ( 'NONE', 'WORKASPACE' ) );
#672 = DIRECTION ( 'NONE',  ( -0.000000000000000000, -1.000000000000000000, -0.000000000000000000 ) ) ;
#673 = CARTESIAN_POINT ( 'NONE',  ( -0.6000000000000003109, 1.000000000000000000, 0.3999999999999999667 ) ) ;
#674 = ORIENTED_EDGE ( 'NONE', *, *, #158, .F. ) ;
#675 = CYLINDRICAL_SURFACE ( 'NONE', #396, 0.1499999999999999667 ) ;
#676 = LINE ( 'NONE', #678, #212 ) ;
#677 = VERTEX_POINT ( 'NONE', #548 ) ;
#678 = CARTESIAN_POINT ( 'NONE',  ( 0.9999999999999997780, 0.000000000000000000, 0.7999999999999999334 ) ) ;
#679 = VERTEX_POINT ( 'NONE', #598 ) ;
#680 = VECTOR ( 'NONE', #472, 1000.000000000000000 ) ;
#681 = CARTESIAN_POINT ( 'NONE',  ( 0.9999999999999997780, 0.000000000000000000, -0.8000000000000001554 ) ) ;
#682 = AXIS2_PLACEMENT_3D ( 'NONE', #219, #523, #581 ) ;
#683 = ORIENTED_EDGE ( 'NONE', *, *, #471, .T. ) ;
#684 = FACE_OUTER_BOUND ( 'NONE', #661, .T. ) ;
#685 = PLANE ( 'NONE',  #633 ) ;
#686 = ADVANCED_FACE ( 'NONE', ( #361 ), #50, .T. ) ;
#687 =( NAMED_UNIT ( * ) PLANE_ANGLE_UNIT ( ) SI_UNIT ( $, .RADIAN. ) );
#688 = ORIENTED_EDGE ( 'NONE', *, *, #303, .T. ) ;
#689 = ORIENTED_EDGE ( 'NONE', *, *, #384, .T. ) ;
#690 = EDGE_CURVE ( 'NONE', #483, #209, #364, .T. ) ;
#691 = LINE ( 'NONE', #257, #337 ) ;
#692 = APPLICATION_PROTOCOL_DEFINITION ( 'draft international standard', 'automotive_design', 1998, #427 ) ;
#693 = EDGE_CURVE ( 'NONE', #296, #240, #113, .T. ) ;
#694 = ORIENTED_EDGE ( 'NONE', *, *, #37, .F. ) ;
#695 = PLANE ( 'NONE',  #45 ) ;
#696 = VERTEX_POINT ( 'NONE', #376 ) ;
#697 = EDGE_LOOP ( 'NONE', ( #484, #506, #242, #23 ) ) ;
#698 = APPLICATION_CONTEXT ( 'automotive_design' ) ;
#699 = ORIENTED_EDGE ( 'NONE', *, *, #690, .F. ) ;
#700 = ORIENTED_EDGE ( 'NONE', *, *, #362, .T. ) ;
#701 = EDGE_CURVE ( 'NONE', #184, #679, #608, .T. ) ;
#702 = PLANE ( 'NONE',  #397 ) ;
#703 = VERTEX_POINT ( 'NONE', #590 ) ;
#704 = ORIENTED_EDGE ( 'NONE', *, *, #319, .T. ) ;
#705 = VERTEX_POINT ( 'NONE', #142 ) ;
#706 = FILL_AREA_STYLE ('',( #639 ) ) ;
#707 = CLOSED_SHELL ( 'NONE', ( #686, #629, #327, #11, #462, #407 ) ) ;
#708 = ORIENTED_EDGE ( 'NONE', *, *, #178, .T. ) ;
#709 = MECHANICAL_DESIGN_GEOMETRIC_PRESENTATION_REPRESENTATION (  '', ( #586 ), #157 ) ;
#710 = FILL_AREA_STYLE ('',( #541 ) ) ;
#711 = VERTEX_POINT ( 'NONE', #635 ) ;
#712 = LINE ( 'NONE', #610, #640 ) ;
#713 = ORIENTED_EDGE ( 'NONE', *, *, #338, .F. ) ;
#714 = EDGE_LOOP ( 'NONE', ( #380, #669 ) ) ;
#715 = CARTESIAN_POINT ( 'NONE',  ( -1.000000000000000222, 0.000000000000000000, -0.8000000000000001554 ) ) ;
ENDSEC;
END-ISO-10303-21;
