ISO-10303-21;
HEADER;
FILE_DESCRIPTION (( 'STEP AP214' ),
    '1' );
FILE_NAME ('EEFKX0D471RB.STEP',
    '2023-10-19T09:44:18',
    ( '' ),
    ( '' ),
    'SwSTEP 2.0',
    'SolidWorks 2021',
    '' );
FILE_SCHEMA (( 'AUTOMOTIVE_DESIGN' ));
ENDSEC;

DATA;
#1 = ORIENTED_EDGE ( 'NONE', *, *, #71, .T. ) ;
#2 = CARTESIAN_POINT ( 'NONE',  ( 0.6500000000000000222, 1.199999999999999956, 0.1000000000000000056 ) ) ;
#3 = ADVANCED_FACE ( 'NONE', ( #359 ), #186, .T. ) ;
#4 = UNCERTAINTY_MEASURE_WITH_UNIT (LENGTH_MEASURE( 1.000000000000000082E-05 ), #654, 'distance_accuracy_value', 'NONE');
#5 = LINE ( 'NONE', #674, #216 ) ;
#6 = DIRECTION ( 'NONE',  ( 1.000000000000000000, 0.000000000000000000, 0.000000000000000000 ) ) ;
#7 = ORIENTED_EDGE ( 'NONE', *, *, #653, .F. ) ;
#8 = ORIENTED_EDGE ( 'NONE', *, *, #847, .F. ) ;
#9 = APPLICATION_CONTEXT ( 'automotive_design' ) ;
#10 = LINE ( 'NONE', #672, #120 ) ;
#11 = CARTESIAN_POINT ( 'NONE',  ( 4.044782859545280829, 1.248799242126309883, 0.000000000000000000 ) ) ;
#12 = VERTEX_POINT ( 'NONE', #102 ) ;
#13 = VECTOR ( 'NONE', #650, 1000.000000000000000 ) ;
#14 = PLANE ( 'NONE',  #594 ) ;
#15 = SURFACE_STYLE_USAGE ( .BOTH. , #521 ) ;
#16 = ORIENTED_EDGE ( 'NONE', *, *, #815, .T. ) ;
#17 = ORIENTED_EDGE ( 'NONE', *, *, #23, .F. ) ;
#18 = EDGE_CURVE ( 'NONE', #271, #947, #708, .T. ) ;
#19 = PRODUCT_DEFINITION_SHAPE ( 'NONE', 'NONE',  #107 ) ;
#20 = DIRECTION ( 'NONE',  ( 1.000000000000000000, 0.000000000000000000, 0.000000000000000000 ) ) ;
#21 = DIRECTION ( 'NONE',  ( 0.000000000000000000, 0.000000000000000000, 1.000000000000000000 ) ) ;
#22 = ORIENTED_EDGE ( 'NONE', *, *, #767, .F. ) ;
#23 = EDGE_CURVE ( 'NONE', #1066, #994, #1037, .T. ) ;
#24 = CARTESIAN_POINT ( 'NONE',  ( 2.699953205709259674, 3.770954161102480384, 0.000000000000000000 ) ) ;
#25 = ORIENTED_EDGE ( 'NONE', *, *, #801, .T. ) ;
#26 = PLANE ( 'NONE',  #561 ) ;
#27 = DIRECTION ( 'NONE',  ( 0.000000000000000000, 0.000000000000000000, 1.000000000000000000 ) ) ;
#28 = MANIFOLD_SOLID_BREP ( 'Imported1', #193 ) ;
#29 = EDGE_CURVE ( 'NONE', #551, #583, #861, .T. ) ;
#30 = AXIS2_PLACEMENT_3D ( 'NONE', #416, #404, #566 ) ;
#31 = DIRECTION ( 'NONE',  ( 0.000000000000000000, 0.000000000000000000, 1.000000000000000000 ) ) ;
#32 = VECTOR ( 'NONE', #633, 1000.000000000000000 ) ;
#33 = ORIENTED_EDGE ( 'NONE', *, *, #719, .T. ) ;
#34 = FACE_OUTER_BOUND ( 'NONE', #1044, .T. ) ;
#35 = MECHANICAL_DESIGN_GEOMETRIC_PRESENTATION_REPRESENTATION (  '', ( #550 ), #1013 ) ;
#36 = LINE ( 'NONE', #469, #126 ) ;
#37 = FILL_AREA_STYLE_COLOUR ( '', #426 ) ;
#38 = EDGE_CURVE ( 'NONE', #999, #12, #284, .T. ) ;
#39 = DIRECTION ( 'NONE',  ( 0.000000000000000000, 0.000000000000000000, 1.000000000000000000 ) ) ;
#40 = ORIENTED_EDGE ( 'NONE', *, *, #923, .T. ) ;
#41 = DIRECTION ( 'NONE',  ( 0.000000000000000000, 1.000000000000000000, 0.000000000000000000 ) ) ;
#42 = LINE ( 'NONE', #396, #990 ) ;
#43 = PLANE ( 'NONE',  #64 ) ;
#44 = ORIENTED_EDGE ( 'NONE', *, *, #344, .F. ) ;
#45 = CARTESIAN_POINT ( 'NONE',  ( 4.044782859545280829, 1.248799242126309883, 0.000000000000000000 ) ) ;
#46 =( NAMED_UNIT ( * ) SI_UNIT ( $, .STERADIAN. ) SOLID_ANGLE_UNIT ( ) );
#47 = LINE ( 'NONE', #480, #372 ) ;
#48 = ORIENTED_EDGE ( 'NONE', *, *, #965, .T. ) ;
#49 = AXIS2_PLACEMENT_3D ( 'NONE', #1000, #367, #317 ) ;
#50 = PRESENTATION_LAYER_ASSIGNMENT (  '', '', ( #901 ) ) ;
#51 = EDGE_CURVE ( 'NONE', #523, #151, #598, .T. ) ;
#52 = PLANE ( 'NONE',  #954 ) ;
#53 = CARTESIAN_POINT ( 'NONE',  ( 4.044782859545280829, 3.648799242126309572, 0.000000000000000000 ) ) ;
#54 = VERTEX_POINT ( 'NONE', #181 ) ;
#55 = DIRECTION ( 'NONE',  ( -1.000000000000000000, 0.000000000000000000, 0.000000000000000000 ) ) ;
#56 = DIRECTION ( 'NONE',  ( 0.000000000000000000, -1.000000000000000000, 0.000000000000000000 ) ) ;
#57 = ORIENTED_EDGE ( 'NONE', *, *, #157, .F. ) ;
#58 = CARTESIAN_POINT ( 'NONE',  ( 1.449953205709259896, 4.720954161102479674, 1.899999999999999911 ) ) ;
#59 = EDGE_CURVE ( 'NONE', #896, #862, #522, .T. ) ;
#60 = CARTESIAN_POINT ( 'NONE',  ( 4.044782859545280829, 1.248799242126309883, 0.000000000000000000 ) ) ;
#61 = ORIENTED_EDGE ( 'NONE', *, *, #261, .T. ) ;
#62 = VECTOR ( 'NONE', #229, 1000.000000000000000 ) ;
#63 = VECTOR ( 'NONE', #445, 1000.000000000000000 ) ;
#64 = AXIS2_PLACEMENT_3D ( 'NONE', #475, #391, #136 ) ;
#65 = DIRECTION ( 'NONE',  ( 0.000000000000000000, -1.000000000000000000, 0.000000000000000000 ) ) ;
#66 = CARTESIAN_POINT ( 'NONE',  ( 0.000000000000000000, 0.000000000000000000, 0.000000000000000000 ) ) ;
#67 = AXIS2_PLACEMENT_3D ( 'NONE', #848, #1009, #96 ) ;
#68 = PRODUCT_DEFINITION_CONTEXT ( 'detailed design', #888, 'design' ) ;
#69 = DIRECTION ( 'NONE',  ( 0.000000000000000000, 0.000000000000000000, 1.000000000000000000 ) ) ;
#70 = CARTESIAN_POINT ( 'NONE',  ( 8.749953205709260828, 0.4209541611024799623, 0.000000000000000000 ) ) ;
#71 = EDGE_CURVE ( 'NONE', #781, #381, #1021, .T. ) ;
#72 = ORIENTED_EDGE ( 'NONE', *, *, #261, .F. ) ;
#73 = CARTESIAN_POINT ( 'NONE',  ( 2.699953205709259674, 1.370954161102480029, 0.000000000000000000 ) ) ;
#74 = CARTESIAN_POINT ( 'NONE',  ( 1.449953205709259896, 1.370954161102480029, 0.000000000000000000 ) ) ;
#75 = LINE ( 'NONE', #240, #1062 ) ;
#76 = EDGE_LOOP ( 'NONE', ( #72, #362, #565, #33 ) ) ;
#77 = EDGE_CURVE ( 'NONE', #241, #844, #452, .T. ) ;
#78 = DIRECTION ( 'NONE',  ( 1.000000000000000000, 0.000000000000000000, 0.000000000000000000 ) ) ;
#79 = CARTESIAN_POINT ( 'NONE',  ( 4.755170346163999362, 0.1221549189760000875, 0.000000000000000000 ) ) ;
#80 = PLANE ( 'NONE',  #140 ) ;
#81 = CARTESIAN_POINT ( 'NONE',  ( 0.000000000000000000, 0.000000000000000000, 0.000000000000000000 ) ) ;
#82 = ORIENTED_EDGE ( 'NONE', *, *, #812, .T. ) ;
#83 = APPLICATION_CONTEXT ( 'automotive_design' ) ;
#84 = PRODUCT_RELATED_PRODUCT_CATEGORY ( 'part', '', ( #247 ) ) ;
#85 = VECTOR ( 'NONE', #217, 1000.000000000000000 ) ;
#86 = AXIS2_PLACEMENT_3D ( 'NONE', #201, #436, #31 ) ;
#87 =( GEOMETRIC_REPRESENTATION_CONTEXT ( 3 ) GLOBAL_UNCERTAINTY_ASSIGNED_CONTEXT ( ( #1075 ) ) GLOBAL_UNIT_ASSIGNED_CONTEXT ( ( #951, #969, #716 ) ) REPRESENTATION_CONTEXT ( 'NONE', 'WORKASPACE' ) );
#88 = LINE ( 'NONE', #573, #824 ) ;
#89 = VECTOR ( 'NONE', #239, 1000.000000000000000 ) ;
#90 = ORIENTED_EDGE ( 'NONE', *, *, #218, .T. ) ;
#91 = PRODUCT_DEFINITION_SHAPE ( 'NONE', 'NONE',  #1084 ) ;
#92 = ORIENTED_EDGE ( 'NONE', *, *, #112, .F. ) ;
#93 =( REPRESENTATION_RELATIONSHIP ('NONE','NONE', #195, #178 ) REPRESENTATION_RELATIONSHIP_WITH_TRANSFORMATION ( #858 )SHAPE_REPRESENTATION_RELATIONSHIP( ) );
#94 = CARTESIAN_POINT ( 'NONE',  ( 0.1000000000000000056, 2.399999999999999911, 0.1000000000000000056 ) ) ;
#95 = APPLICATION_PROTOCOL_DEFINITION ( 'draft international standard', 'automotive_design', 1998, #83 ) ;
#96 = DIRECTION ( 'NONE',  ( 0.000000000000000000, 1.000000000000000000, 0.000000000000000000 ) ) ;
#97 = DIRECTION ( 'NONE',  ( -4.409146245532789707E-16, -1.000000000000000000, 0.000000000000000000 ) ) ;
#98 = VERTEX_POINT ( 'NONE', #780 ) ;
#99 = APPLICATION_PROTOCOL_DEFINITION ( 'draft international standard', 'automotive_design', 1998, #350 ) ;
#100 = PLANE ( 'NONE',  #843 ) ;
#101 = EDGE_CURVE ( 'NONE', #896, #962, #226, .T. ) ;
#102 = CARTESIAN_POINT ( 'NONE',  ( 8.749953205709260828, 1.370954161102480029, 0.000000000000000000 ) ) ;
#103 = ORIENTED_EDGE ( 'NONE', *, *, #176, .F. ) ;
#104 = CARTESIAN_POINT ( 'NONE',  ( 0.000000000000000000, 0.000000000000000000, 0.000000000000000000 ) ) ;
#105 = DIRECTION ( 'NONE',  ( -1.000000000000000000, 0.000000000000000000, 0.000000000000000000 ) ) ;
#106 = CARTESIAN_POINT ( 'NONE',  ( 2.785782859545280044, 3.648799242126309572, 0.000000000000000000 ) ) ;
#107 = PRODUCT_DEFINITION ( 'UNKNOWN', '', #577, #607 ) ;
#108 = VERTEX_POINT ( 'NONE', #800 ) ;
#109 = DIRECTION ( 'NONE',  ( 0.000000000000000000, 0.000000000000000000, -1.000000000000000000 ) ) ;
#110 = ORIENTED_EDGE ( 'NONE', *, *, #856, .T. ) ;
#111 = DIRECTION ( 'NONE',  ( 0.000000000000000000, 1.000000000000000000, 0.000000000000000000 ) ) ;
#112 = EDGE_CURVE ( 'NONE', #896, #272, #402, .T. ) ;
#113 =( LENGTH_UNIT ( ) NAMED_UNIT ( * ) SI_UNIT ( .MILLI., .METRE. ) );
#114 = CARTESIAN_POINT ( 'NONE',  ( 2.785782859545280044, 3.648799242126309572, 0.1000000000000000056 ) ) ;
#115 = VERTEX_POINT ( 'NONE', #885 ) ;
#116 = VERTEX_POINT ( 'NONE', #640 ) ;
#117 = DIRECTION ( 'NONE',  ( 0.000000000000000000, 0.000000000000000000, 1.000000000000000000 ) ) ;
#118 = EDGE_CURVE ( 'NONE', #947, #207, #554, .T. ) ;
#119 = LINE ( 'NONE', #127, #244 ) ;
#120 = VECTOR ( 'NONE', #588, 1000.000000000000000 ) ;
#121 = DIRECTION ( 'NONE',  ( 2.312964634635739999E-16, -1.000000000000000000, 0.000000000000000000 ) ) ;
#122 = AXIS2_PLACEMENT_3D ( 'NONE', #104, #929, #1018 ) ;
#123 = VECTOR ( 'NONE', #527, 1000.000000000000000 ) ;
#124 = VERTEX_POINT ( 'NONE', #53 ) ;
#125 = CARTESIAN_POINT ( 'NONE',  ( 0.000000000000000000, 2.399999999999999911, 0.9000000000000000222 ) ) ;
#126 = VECTOR ( 'NONE', #892, 1000.000000000000000 ) ;
#127 = CARTESIAN_POINT ( 'NONE',  ( 3.944782859545280296, 1.248799242126309883, 0.9000000000000000222 ) ) ;
#128 = LINE ( 'NONE', #1060, #231 ) ;
#129 = ORIENTED_EDGE ( 'NONE', *, *, #983, .F. ) ;
#130 = CARTESIAN_POINT ( 'NONE',  ( 4.044782859545280829, 1.248799242126309883, 0.9000000000000000222 ) ) ;
#131 = DIRECTION ( 'NONE',  ( 0.000000000000000000, 0.000000000000000000, -1.000000000000000000 ) ) ;
#132 = CARTESIAN_POINT ( 'NONE',  ( 2.699953205709259674, 1.370954161102480029, 0.000000000000000000 ) ) ;
#133 = ORIENTED_EDGE ( 'NONE', *, *, #149, .F. ) ;
#134 = CARTESIAN_POINT ( 'NONE',  ( 1.399953205709259851, 3.770954161102480384, 0.000000000000000000 ) ) ;
#135 =( NAMED_UNIT ( * ) PLANE_ANGLE_UNIT ( ) SI_UNIT ( $, .RADIAN. ) );
#136 = DIRECTION ( 'NONE',  ( 1.000000000000000000, 0.000000000000000000, 5.479558144012189991E-31 ) ) ;
#137 = ORIENTED_EDGE ( 'NONE', *, *, #1025, .F. ) ;
#138 = EDGE_CURVE ( 'NONE', #691, #207, #398, .T. ) ;
#139 = MECHANICAL_DESIGN_GEOMETRIC_PRESENTATION_REPRESENTATION (  '', ( #993 ), #687 ) ;
#140 = AXIS2_PLACEMENT_3D ( 'NONE', #342, #331, #338 ) ;
#141 = APPLICATION_CONTEXT ( 'automotive_design' ) ;
#142 = CARTESIAN_POINT ( 'NONE',  ( 4.044782859545280829, 3.648799242126309572, 0.9000000000000000222 ) ) ;
#143 = CARTESIAN_POINT ( 'NONE',  ( 7.540953205709260310, 3.770954161102480384, 0.1000000000000000056 ) ) ;
#144 = VERTEX_POINT ( 'NONE', #727 ) ;
#145 = EDGE_CURVE ( 'NONE', #308, #999, #731, .T. ) ;
#146 = SURFACE_SIDE_STYLE ('',( #895 ) ) ;
#147 = ORIENTED_EDGE ( 'NONE', *, *, #183, .F. ) ;
#148 = CARTESIAN_POINT ( 'NONE',  ( 4.044782859545280829, 1.248799242126309883, 0.9000000000000000222 ) ) ;
#149 = EDGE_CURVE ( 'NONE', #1061, #252, #627, .T. ) ;
#150 = CARTESIAN_POINT ( 'NONE',  ( 1.449953205709259896, 0.4209541611024799623, 1.899999999999999911 ) ) ;
#151 = VERTEX_POINT ( 'NONE', #1057 ) ;
#152 = VECTOR ( 'NONE', #710, 1000.000000000000000 ) ;
#153 = COLOUR_RGB ( '',0.6392156862745097534, 0.6392156862745097534, 0.6862745098039215730 ) ;
#154 = CARTESIAN_POINT ( 'NONE',  ( 8.799953205709259763, 1.370954161102480029, 0.1000000000000000056 ) ) ;
#155 = CARTESIAN_POINT ( 'NONE',  ( 1.399953205709000059, 1.370954161101999969, 0.000000000000000000 ) ) ;
#156 = PLANE ( 'NONE',  #1032 ) ;
#157 = EDGE_CURVE ( 'NONE', #381, #732, #128, .T. ) ;
#158 = VERTEX_POINT ( 'NONE', #313 ) ;
#159 = ORIENTED_EDGE ( 'NONE', *, *, #558, .T. ) ;
#160 = DIRECTION ( 'NONE',  ( 0.000000000000000000, -1.000000000000000000, 0.000000000000000000 ) ) ;
#161 = CARTESIAN_POINT ( 'NONE',  ( 8.749953205709260828, 0.4209541611024799623, 1.899999999999999911 ) ) ;
#162 = LINE ( 'NONE', #81, #734 ) ;
#163 = ORIENTED_EDGE ( 'NONE', *, *, #686, .T. ) ;
#164 = EDGE_CURVE ( 'NONE', #292, #678, #47, .T. ) ;
#165 = LINE ( 'NONE', #154, #820 ) ;
#166 = CARTESIAN_POINT ( 'NONE',  ( 1.300000000000000044, 0.000000000000000000, 0.1000000000000000056 ) ) ;
#167 = ORIENTED_EDGE ( 'NONE', *, *, #1038, .F. ) ;
#168 = ORIENTED_EDGE ( 'NONE', *, *, #902, .T. ) ;
#169 = VECTOR ( 'NONE', #619, 1000.000000000000000 ) ;
#170 = LINE ( 'NONE', #679, #262 ) ;
#171 = AXIS2_PLACEMENT_3D ( 'NONE', #597, #27, #20 ) ;
#172 = CARTESIAN_POINT ( 'NONE',  ( 1.449953205709259896, 0.4209541611024799623, 0.000000000000000000 ) ) ;
#173 = FACE_OUTER_BOUND ( 'NONE', #1073, .T. ) ;
#174 = VECTOR ( 'NONE', #508, 1000.000000000000000 ) ;
#175 = ORIENTED_EDGE ( 'NONE', *, *, #38, .T. ) ;
#176 = EDGE_CURVE ( 'NONE', #252, #691, #302, .T. ) ;
#177 = UNCERTAINTY_MEASURE_WITH_UNIT (LENGTH_MEASURE( 1.000000000000000082E-05 ), #290, 'distance_accuracy_value', 'NONE');
#178 = SHAPE_REPRESENTATION ( 'SX2.0^GX_SX_CX_HX(2)_EEFKX0D471RB', ( #512 ), #461 ) ;
#179 = CARTESIAN_POINT ( 'NONE',  ( 8.749953205709260828, 0.4209541611024799623, 0.000000000000000000 ) ) ;
#180 = FILL_AREA_STYLE_COLOUR ( '', #153 ) ;
#181 = CARTESIAN_POINT ( 'NONE',  ( 0.1000000000000000056, 0.000000000000000000, 0.9000000000000000222 ) ) ;
#182 = ORIENTED_EDGE ( 'NONE', *, *, #71, .F. ) ;
#183 = EDGE_CURVE ( 'NONE', #98, #116, #562, .T. ) ;
#184 =( NAMED_UNIT ( * ) SI_UNIT ( $, .STERADIAN. ) SOLID_ANGLE_UNIT ( ) );
#185 = SURFACE_STYLE_USAGE ( .BOTH. , #536 ) ;
#186 = PLANE ( 'NONE',  #86 ) ;
#187 = ORIENTED_EDGE ( 'NONE', *, *, #118, .T. ) ;
#188 = APPLICATION_PROTOCOL_DEFINITION ( 'draft international standard', 'automotive_design', 1998, #888 ) ;
#189 = DIRECTION ( 'NONE',  ( 1.000000000000000000, 0.000000000000000000, 0.000000000000000000 ) ) ;
#190 =( NAMED_UNIT ( * ) PLANE_ANGLE_UNIT ( ) SI_UNIT ( $, .RADIAN. ) );
#191 = PRODUCT_DEFINITION_FORMATION_WITH_SPECIFIED_SOURCE ( 'ANY', '', #834, .NOT_KNOWN. ) ;
#192 = SURFACE_STYLE_USAGE ( .BOTH. , #206 ) ;
#193 = CLOSED_SHELL ( 'NONE', ( #484, #533, #507, #387, #1051, #725, #309, #587, #661, #463, #230, #606, #194, #1004 ) ) ;
#194 = ADVANCED_FACE ( 'NONE', ( #567 ), #795, .F. ) ;
#195 = SHAPE_REPRESENTATION ( 'GX_SX_CX_HX(2)^EEFKX0D471RB', ( #756, #232, #497, #514 ), #1010 ) ;
#196 = ORIENTED_EDGE ( 'NONE', *, *, #101, .T. ) ;
#197 = DIRECTION ( 'NONE',  ( 1.000000000000000000, 0.000000000000000000, 0.000000000000000000 ) ) ;
#198 = APPLICATION_PROTOCOL_DEFINITION ( 'draft international standard', 'automotive_design', 1998, #788 ) ;
#199 = CARTESIAN_POINT ( 'NONE',  ( 7.540953205709260310, 1.370954161102480029, 0.000000000000000000 ) ) ;
#200 = SURFACE_STYLE_FILL_AREA ( #456 ) ;
#201 = CARTESIAN_POINT ( 'NONE',  ( 3.944782859545280296, 1.248799242126309883, 0.1000000000000000056 ) ) ;
#202 = EDGE_CURVE ( 'NONE', #207, #1061, #952, .T. ) ;
#203 = DIRECTION ( 'NONE',  ( 0.000000000000000000, 0.000000000000000000, 1.000000000000000000 ) ) ;
#204 = FACE_OUTER_BOUND ( 'NONE', #604, .T. ) ;
#205 = DIRECTION ( 'NONE',  ( 1.000000000000000000, 0.000000000000000000, 0.000000000000000000 ) ) ;
#206 = SURFACE_SIDE_STYLE ('',( #768 ) ) ;
#207 = VERTEX_POINT ( 'NONE', #211 ) ;
#208 = DIRECTION ( 'NONE',  ( -1.000000000000000000, 0.000000000000000000, 0.000000000000000000 ) ) ;
#209 = LINE ( 'NONE', #306, #85 ) ;
#210 = VECTOR ( 'NONE', #541, 1000.000000000000000 ) ;
#211 = CARTESIAN_POINT ( 'NONE',  ( 2.699953205709259674, 1.370954161102480029, 0.1000000000000000056 ) ) ;
#212 = COLOUR_RGB ( '',0.5019607843137254832, 0.5019607843137254832, 0.5019607843137254832 ) ;
#213 = AXIS2_PLACEMENT_3D ( 'NONE', #307, #810, #996 ) ;
#214 = ORIENTED_EDGE ( 'NONE', *, *, #238, .T. ) ;
#215 = DIRECTION ( 'NONE',  ( 1.000000000000000000, 0.000000000000000000, 0.000000000000000000 ) ) ;
#216 = VECTOR ( 'NONE', #822, 1000.000000000000000 ) ;
#217 = DIRECTION ( 'NONE',  ( -1.000000000000000000, 0.000000000000000000, 0.000000000000000000 ) ) ;
#218 = EDGE_CURVE ( 'NONE', #811, #947, #549, .T. ) ;
#219 = DIRECTION ( 'NONE',  ( 1.000000000000000000, 0.000000000000000000, 0.000000000000000000 ) ) ;
#220 = VERTEX_POINT ( 'NONE', #876 ) ;
#221 =( REPRESENTATION_RELATIONSHIP ('NONE','NONE', #195, #897 ) REPRESENTATION_RELATIONSHIP_WITH_TRANSFORMATION ( #764 )SHAPE_REPRESENTATION_RELATIONSHIP( ) );
#222 = ADVANCED_FACE ( 'NONE', ( #472 ), #43, .T. ) ;
#223 = CARTESIAN_POINT ( 'NONE',  ( 2.699953205709259674, 1.370954161102480029, 0.1000000000000000056 ) ) ;
#224 = VERTEX_POINT ( 'NONE', #385 ) ;
#225 = CARTESIAN_POINT ( 'NONE',  ( 3.944782859545280296, 3.648799242126309572, 0.9000000000000000222 ) ) ;
#226 = LINE ( 'NONE', #804, #614 ) ;
#227 = VERTEX_POINT ( 'NONE', #717 ) ;
#228 = STYLED_ITEM ( 'NONE', ( #642 ), #751 ) ;
#229 = DIRECTION ( 'NONE',  ( 1.000000000000000000, 0.000000000000000000, 0.000000000000000000 ) ) ;
#230 = ADVANCED_FACE ( 'NONE', ( #723 ), #1053, .F. ) ;
#231 = VECTOR ( 'NONE', #813, 1000.000000000000000 ) ;
#232 = AXIS2_PLACEMENT_3D ( 'NONE', #66, #1069, #735 ) ;
#233 = AXIS2_PLACEMENT_3D ( 'NONE', #681, #451, #1026 ) ;
#234 = DIRECTION ( 'NONE',  ( 1.000000000000000000, 0.000000000000000000, 0.000000000000000000 ) ) ;
#235 = ORIENTED_EDGE ( 'NONE', *, *, #923, .F. ) ;
#236 = CARTESIAN_POINT ( 'NONE',  ( 0.000000000000000000, 0.000000000000000000, 0.000000000000000000 ) ) ;
#237 =( REPRESENTATION_RELATIONSHIP ('NONE','NONE', #383, #195 ) REPRESENTATION_RELATIONSHIP_WITH_TRANSFORMATION ( #530 )SHAPE_REPRESENTATION_RELATIONSHIP( ) );
#238 = EDGE_CURVE ( 'NONE', #224, #227, #88, .T. ) ;
#239 = DIRECTION ( 'NONE',  ( 0.000000000000000000, -1.000000000000000000, 0.000000000000000000 ) ) ;
#240 = CARTESIAN_POINT ( 'NONE',  ( 1.300000000000000044, 2.399999999999999911, 0.000000000000000000 ) ) ;
#241 = VERTEX_POINT ( 'NONE', #649 ) ;
#242 = LINE ( 'NONE', #257, #645 ) ;
#243 = ORIENTED_EDGE ( 'NONE', *, *, #352, .T. ) ;
#244 = VECTOR ( 'NONE', #959, 1000.000000000000000 ) ;
#245 = COLOUR_RGB ( '',0.5019607843137254832, 0.5019607843137254832, 0.5019607843137254832 ) ;
#246 = LINE ( 'NONE', #733, #975 ) ;
#247 = PRODUCT ( '??2^GX_SX_CX_HX(2)_EEFKX0D471RB', '??2^GX_SX_CX_HX(2)_EEFKX0D471RB', '', ( #1007 ) ) ;
#248 = EDGE_CURVE ( 'NONE', #781, #1066, #580, .T. ) ;
#249 = PRODUCT_DEFINITION_CONTEXT ( 'detailed design', #9, 'design' ) ;
#250 = DIRECTION ( 'NONE',  ( -1.000000000000000000, 0.000000000000000000, 0.000000000000000000 ) ) ;
#251 = CARTESIAN_POINT ( 'NONE',  ( 2.785782859545280044, 1.248799242126309883, 0.000000000000000000 ) ) ;
#252 = VERTEX_POINT ( 'NONE', #74 ) ;
#253 = CARTESIAN_POINT ( 'NONE',  ( 1.300000000000000044, 0.000000000000000000, 0.000000000000000000 ) ) ;
#254 = CARTESIAN_POINT ( 'NONE',  ( 2.785782859545280044, 3.648799242126309572, 0.000000000000000000 ) ) ;
#255 = ORIENTED_EDGE ( 'NONE', *, *, #420, .T. ) ;
#256 = CARTESIAN_POINT ( 'NONE',  ( 1.300000000000000044, 2.399999999999999911, 0.000000000000000000 ) ) ;
#257 = CARTESIAN_POINT ( 'NONE',  ( 8.749953205709260828, 3.645954161102480384, 0.1000000000000000056 ) ) ;
#258 = DIRECTION ( 'NONE',  ( -1.000000000000000000, 0.000000000000000000, 0.000000000000000000 ) ) ;
#259 = ORIENTED_EDGE ( 'NONE', *, *, #448, .F. ) ;
#260 = ORIENTED_EDGE ( 'NONE', *, *, #647, .F. ) ;
#261 = EDGE_CURVE ( 'NONE', #894, #943, #816, .T. ) ;
#262 = VECTOR ( 'NONE', #758, 1000.000000000000000 ) ;
#263 = LINE ( 'NONE', #376, #889 ) ;
#264 = VECTOR ( 'NONE', #379, 1000.000000000000000 ) ;
#265 = CARTESIAN_POINT ( 'NONE',  ( 5.099953205709260473, 2.570954161102480207, 1.899999999999999911 ) ) ;
#266 = VECTOR ( 'NONE', #981, 1000.000000000000000 ) ;
#267 = EDGE_LOOP ( 'NONE', ( #634, #457, #40, #424 ) ) ;
#268 = PRODUCT_RELATED_PRODUCT_CATEGORY ( 'part', '', ( #783 ) ) ;
#269 = DIRECTION ( 'NONE',  ( 0.000000000000000000, 0.000000000000000000, 1.000000000000000000 ) ) ;
#270 = PRESENTATION_STYLE_ASSIGNMENT (( #15 ) ) ;
#271 = VERTEX_POINT ( 'NONE', #499 ) ;
#272 = VERTEX_POINT ( 'NONE', #903 ) ;
#273 = PRODUCT_CONTEXT ( 'NONE', #406, 'mechanical' ) ;
#274 = DIRECTION ( 'NONE',  ( 0.000000000000000000, 1.000000000000000000, 0.000000000000000000 ) ) ;
#275 = SURFACE_STYLE_FILL_AREA ( #926 ) ;
#276 = ORIENTED_EDGE ( 'NONE', *, *, #815, .F. ) ;
#277 = EDGE_LOOP ( 'NONE', ( #651, #912, #980, #1030 ) ) ;
#278 =( NAMED_UNIT ( * ) SI_UNIT ( $, .STERADIAN. ) SOLID_ANGLE_UNIT ( ) );
#279 = COLOUR_RGB ( '',0.6392156862745097534, 0.6392156862745097534, 0.6862745098039215730 ) ;
#280 = PRODUCT_DEFINITION_CONTEXT ( 'detailed design', #466, 'design' ) ;
#281 = PLANE ( 'NONE',  #67 ) ;
#282 = AXIS2_PLACEMENT_3D ( 'NONE', #355, #695, #524 ) ;
#283 = ADVANCED_FACE ( 'NONE', ( #1076 ), #80, .T. ) ;
#284 = LINE ( 'NONE', #1016, #809 ) ;
#285 = AXIS2_PLACEMENT_3D ( 'NONE', #265, #596, #189 ) ;
#286 = CARTESIAN_POINT ( 'NONE',  ( 4.044782859545280829, 1.248799242126309883, 0.000000000000000000 ) ) ;
#287 = PRODUCT ( 'EEFKX0D471RB', 'EEFKX0D471RB', '', ( #692 ) ) ;
#288 = ADVANCED_BREP_SHAPE_REPRESENTATION ( '', ( #378, #512 ), #87 ) ;
#289 = APPLICATION_PROTOCOL_DEFINITION ( 'draft international standard', 'automotive_design', 1998, #141 ) ;
#290 =( LENGTH_UNIT ( ) NAMED_UNIT ( * ) SI_UNIT ( .MILLI., .METRE. ) );
#291 = DIRECTION ( 'NONE',  ( 0.000000000000000000, 0.000000000000000000, 1.000000000000000000 ) ) ;
#292 = VERTEX_POINT ( 'NONE', #150 ) ;
#293 = LINE ( 'NONE', #297, #390 ) ;
#294 = SURFACE_SIDE_STYLE ('',( #884 ) ) ;
#295 = CARTESIAN_POINT ( 'NONE',  ( 3.899953205709259851, 1.370954161102480029, 0.000000000000000000 ) ) ;
#296 = ORIENTED_EDGE ( 'NONE', *, *, #653, .T. ) ;
#297 = CARTESIAN_POINT ( 'NONE',  ( 1.449953205709259896, 4.720954161102479674, 0.000000000000000000 ) ) ;
#298 = ADVANCED_FACE ( 'NONE', ( #422 ), #156, .T. ) ;
#299 = PLANE ( 'NONE',  #529 ) ;
#300 = PRESENTATION_STYLE_ASSIGNMENT (( #799 ) ) ;
#301 = MECHANICAL_DESIGN_GEOMETRIC_PRESENTATION_REPRESENTATION (  '', ( #228 ), #643 ) ;
#302 = LINE ( 'NONE', #295, #1012 ) ;
#303 = DIRECTION ( 'NONE',  ( -1.000000000000000000, 4.409146245532789707E-16, 0.000000000000000000 ) ) ;
#304 = ORIENTED_EDGE ( 'NONE', *, *, #176, .T. ) ;
#305 = EDGE_CURVE ( 'NONE', #12, #108, #570, .T. ) ;
#306 = CARTESIAN_POINT ( 'NONE',  ( 2.785782859545280044, 1.248799242126309883, 0.1000000000000000056 ) ) ;
#307 = CARTESIAN_POINT ( 'NONE',  ( 7.540953205709260310, 3.770954161102480384, 0.000000000000000000 ) ) ;
#308 = VERTEX_POINT ( 'NONE', #493 ) ;
#309 = ADVANCED_FACE ( 'NONE', ( #662 ), #737, .F. ) ;
#310 = DIRECTION ( 'NONE',  ( 0.000000000000000000, 1.000000000000000000, 0.000000000000000000 ) ) ;
#311 = ORIENTED_EDGE ( 'NONE', *, *, #540, .F. ) ;
#312 = FILL_AREA_STYLE_COLOUR ( '', #279 ) ;
#313 = CARTESIAN_POINT ( 'NONE',  ( 1.300000000000000044, 2.399999999999999911, 0.000000000000000000 ) ) ;
#314 = EDGE_CURVE ( 'NONE', #862, #144, #991, .T. ) ;
#315 = VECTOR ( 'NONE', #6, 1000.000000000000000 ) ;
#316 = ORIENTED_EDGE ( 'NONE', *, *, #364, .T. ) ;
#317 = DIRECTION ( 'NONE',  ( 1.000000000000000000, 0.000000000000000000, 0.000000000000000000 ) ) ;
#318 = CLOSED_SHELL ( 'NONE', ( #949, #569, #433, #298, #1072, #698, #283, #3 ) ) ;
#319 = VECTOR ( 'NONE', #370, 1000.000000000000000 ) ;
#320 = CARTESIAN_POINT ( 'NONE',  ( 3.944782859545280296, 3.648799242126309572, 0.1000000000000000056 ) ) ;
#321 = DIRECTION ( 'NONE',  ( 0.000000000000000000, 0.000000000000000000, 1.000000000000000000 ) ) ;
#322 = CARTESIAN_POINT ( 'NONE',  ( 2.785782859545280044, 3.648799242126309572, 0.000000000000000000 ) ) ;
#323 = ORIENTED_EDGE ( 'NONE', *, *, #337, .F. ) ;
#324 = CARTESIAN_POINT ( 'NONE',  ( 0.1000000000000000056, 0.000000000000000000, 0.1000000000000000056 ) ) ;
#325 = PLANE ( 'NONE',  #1050 ) ;
#326 = FILL_AREA_STYLE_COLOUR ( '', #978 ) ;
#327 =( NAMED_UNIT ( * ) SI_UNIT ( $, .STERADIAN. ) SOLID_ANGLE_UNIT ( ) );
#328 = EDGE_LOOP ( 'NONE', ( #576, #147, #323, #393 ) ) ;
#329 = VERTEX_POINT ( 'NONE', #829 ) ;
#330 = EDGE_CURVE ( 'NONE', #701, #591, #838, .T. ) ;
#331 = DIRECTION ( 'NONE',  ( 3.449426766066690469E-29, -6.986686158121200080E-32, 1.000000000000000000 ) ) ;
#332 = PLANE ( 'NONE',  #460 ) ;
#333 = ORIENTED_EDGE ( 'NONE', *, *, #636, .F. ) ;
#334 = AXIS2_PLACEMENT_3D ( 'NONE', #134, #1055, #635 ) ;
#335 = MECHANICAL_DESIGN_GEOMETRIC_PRESENTATION_REPRESENTATION (  '', ( #901 ), #937 ) ;
#336 = SURFACE_STYLE_USAGE ( .BOTH. , #837 ) ;
#337 = EDGE_CURVE ( 'NONE', #227, #98, #759, .T. ) ;
#338 = DIRECTION ( 'NONE',  ( 1.000000000000000000, 0.000000000000000000, -3.449426766066690469E-29 ) ) ;
#339 = DIRECTION ( 'NONE',  ( 0.000000000000000000, 0.000000000000000000, 1.000000000000000000 ) ) ;
#340 = ORIENTED_EDGE ( 'NONE', *, *, #636, .T. ) ;
#341 = CARTESIAN_POINT ( 'NONE',  ( 2.699953205709259674, 3.770954161102480384, 0.1000000000000000056 ) ) ;
#342 = CARTESIAN_POINT ( 'NONE',  ( 3.994782859545280118, 2.448799242126310283, 0.9000000000000000222 ) ) ;
#343 = DIRECTION ( 'NONE',  ( 0.000000000000000000, 0.000000000000000000, 1.000000000000000000 ) ) ;
#344 = EDGE_CURVE ( 'NONE', #591, #292, #5, .T. ) ;
#345 = ORIENTED_EDGE ( 'NONE', *, *, #101, .F. ) ;
#346 = ORIENTED_EDGE ( 'NONE', *, *, #847, .T. ) ;
#347 = PRODUCT_DEFINITION_SHAPE ( 'NONE', 'NONE',  #1081 ) ;
#348 = CARTESIAN_POINT ( 'NONE',  ( 1.300000000000000044, 2.399999999999999911, 0.1000000000000000056 ) ) ;
#349 = SHAPE_DEFINITION_REPRESENTATION ( #677, #195 ) ;
#350 = APPLICATION_CONTEXT ( 'automotive_design' ) ;
#351 = PLANE ( 'NONE',  #233 ) ;
#352 = EDGE_CURVE ( 'NONE', #732, #551, #1001, .T. ) ;
#353 = AXIS2_PLACEMENT_3D ( 'NONE', #251, #581, #339 ) ;
#354 =( GEOMETRIC_REPRESENTATION_CONTEXT ( 3 ) GLOBAL_UNCERTAINTY_ASSIGNED_CONTEXT ( ( #696 ) ) GLOBAL_UNIT_ASSIGNED_CONTEXT ( ( #860, #190, #397 ) ) REPRESENTATION_CONTEXT ( 'NONE', 'WORKASPACE' ) );
#355 = CARTESIAN_POINT ( 'NONE',  ( -5.099953205709139681, 0.000000000000000000, 2.570954161102479762 ) ) ;
#356 = VECTOR ( 'NONE', #899, 1000.000000000000000 ) ;
#357 = LINE ( 'NONE', #1020, #922 ) ;
#358 = AXIS2_PLACEMENT_3D ( 'NONE', #769, #525, #269 ) ;
#359 = FACE_OUTER_BOUND ( 'NONE', #724, .T. ) ;
#360 = EDGE_LOOP ( 'NONE', ( #916, #905, #818, #1049 ) ) ;
#361 = PRODUCT_CONTEXT ( 'NONE', #557, 'mechanical' ) ;
#362 = ORIENTED_EDGE ( 'NONE', *, *, #448, .T. ) ;
#363 = ORIENTED_EDGE ( 'NONE', *, *, #639, .F. ) ;
#364 = EDGE_CURVE ( 'NONE', #108, #116, #242, .T. ) ;
#365 = FACE_OUTER_BOUND ( 'NONE', #519, .T. ) ;
#366 = ORIENTED_EDGE ( 'NONE', *, *, #414, .F. ) ;
#367 = DIRECTION ( 'NONE',  ( 0.000000000000000000, 0.000000000000000000, 1.000000000000000000 ) ) ;
#368 = VECTOR ( 'NONE', #160, 1000.000000000000000 ) ;
#369 = VECTOR ( 'NONE', #462, 1000.000000000000000 ) ;
#370 = DIRECTION ( 'NONE',  ( 0.000000000000000000, 0.000000000000000000, 1.000000000000000000 ) ) ;
#371 =( NAMED_UNIT ( * ) PLANE_ANGLE_UNIT ( ) SI_UNIT ( $, .RADIAN. ) );
#372 = VECTOR ( 'NONE', #310, 1000.000000000000000 ) ;
#373 = STYLED_ITEM ( 'NONE', ( #300 ), #288 ) ;
#374 = ORIENTED_EDGE ( 'NONE', *, *, #647, .T. ) ;
#375 = ORIENTED_EDGE ( 'NONE', *, *, #1067, .T. ) ;
#376 = CARTESIAN_POINT ( 'NONE',  ( 0.1000000000000000056, 0.000000000000000000, 0.1000000000000000056 ) ) ;
#377 = DIRECTION ( 'NONE',  ( -1.000000000000000000, 0.000000000000000000, 0.000000000000000000 ) ) ;
#378 = MANIFOLD_SOLID_BREP ( 'Imported1', #613 ) ;
#379 = DIRECTION ( 'NONE',  ( 0.000000000000000000, 0.000000000000000000, -1.000000000000000000 ) ) ;
#380 = ADVANCED_FACE ( 'NONE', ( #866 ), #743, .T. ) ;
#381 = VERTEX_POINT ( 'NONE', #114 ) ;
#382 = CARTESIAN_POINT ( 'NONE',  ( 0.000000000000000000, 0.000000000000000000, 0.9000000000000000222 ) ) ;
#383 = SHAPE_REPRESENTATION ( 'EEFKX0D471RB', ( #122, #282 ), #547 ) ;
#384 = CARTESIAN_POINT ( 'NONE',  ( 2.699953205709259674, 3.170954161102479851, 0.000000000000000000 ) ) ;
#385 = CARTESIAN_POINT ( 'NONE',  ( 8.749953205709260828, 3.770954161102480384, 0.000000000000000000 ) ) ;
#386 = ORIENTED_EDGE ( 'NONE', *, *, #112, .T. ) ;
#387 = ADVANCED_FACE ( 'NONE', ( #706 ), #14, .T. ) ;
#388 = CARTESIAN_POINT ( 'NONE',  ( 1.300000000000000044, 0.000000000000000000, 0.000000000000000000 ) ) ;
#389 = PLANE ( 'NONE',  #806 ) ;
#390 = VECTOR ( 'NONE', #117, 1000.000000000000000 ) ;
#391 = DIRECTION ( 'NONE',  ( -5.479558144012189991E-31, -3.742867584707779971E-32, 1.000000000000000000 ) ) ;
#392 = VECTOR ( 'NONE', #291, 1000.000000000000000 ) ;
#393 = ORIENTED_EDGE ( 'NONE', *, *, #238, .F. ) ;
#394 =( REPRESENTATION_RELATIONSHIP ('NONE','NONE', #195, #817 ) REPRESENTATION_RELATIONSHIP_WITH_TRANSFORMATION ( #449 )SHAPE_REPRESENTATION_RELATIONSHIP( ) );
#395 = EDGE_CURVE ( 'NONE', #790, #220, #589, .T. ) ;
#396 = CARTESIAN_POINT ( 'NONE',  ( 2.785782859545280044, 1.248799242126309883, 0.000000000000000000 ) ) ;
#397 =( NAMED_UNIT ( * ) SI_UNIT ( $, .STERADIAN. ) SOLID_ANGLE_UNIT ( ) );
#398 = LINE ( 'NONE', #132, #563 ) ;
#399 = ORIENTED_EDGE ( 'NONE', *, *, #911, .F. ) ;
#400 = LINE ( 'NONE', #729, #425 ) ;
#401 = EDGE_CURVE ( 'NONE', #308, #292, #438, .T. ) ;
#402 = LINE ( 'NONE', #881, #685 ) ;
#403 = ORIENTED_EDGE ( 'NONE', *, *, #401, .T. ) ;
#404 = DIRECTION ( 'NONE',  ( 1.000000000000000000, 0.000000000000000000, 0.000000000000000000 ) ) ;
#405 = CARTESIAN_POINT ( 'NONE',  ( 8.749953205709260828, 1.370954161102480029, 0.000000000000000000 ) ) ;
#406 = APPLICATION_CONTEXT ( 'automotive_design' ) ;
#407 = VECTOR ( 'NONE', #1068, 1000.000000000000000 ) ;
#408 = ADVANCED_BREP_SHAPE_REPRESENTATION ( '', ( #751, #512 ), #631 ) ;
#409 = EDGE_LOOP ( 'NONE', ( #988, #243, #906, #482, #496, #1 ) ) ;
#410 = DIRECTION ( 'NONE',  ( 0.000000000000000000, -1.000000000000000000, 0.000000000000000000 ) ) ;
#411 = DIRECTION ( 'NONE',  ( 0.000000000000000000, 1.000000000000000000, 0.000000000000000000 ) ) ;
#412 =( NAMED_UNIT ( * ) PLANE_ANGLE_UNIT ( ) SI_UNIT ( $, .RADIAN. ) );
#413 = ORIENTED_EDGE ( 'NONE', *, *, #51, .F. ) ;
#414 = EDGE_CURVE ( 'NONE', #921, #329, #357, .T. ) ;
#415 = ORIENTED_EDGE ( 'NONE', *, *, #305, .T. ) ;
#416 = CARTESIAN_POINT ( 'NONE',  ( 8.749953205709260828, 4.720954161102479674, 0.000000000000000000 ) ) ;
#417 = CARTESIAN_POINT ( 'NONE',  ( 3.944782859545280296, 3.648799242126309572, 0.1000000000000000056 ) ) ;
#418 = DIRECTION ( 'NONE',  ( 0.000000000000000000, 0.000000000000000000, 1.000000000000000000 ) ) ;
#419 = EDGE_LOOP ( 'NONE', ( #665, #728, #836, #7 ) ) ;
#420 = EDGE_CURVE ( 'NONE', #811, #1061, #690, .T. ) ;
#421 = DIRECTION ( 'NONE',  ( 0.000000000000000000, 0.000000000000000000, 1.000000000000000000 ) ) ;
#422 = FACE_OUTER_BOUND ( 'NONE', #409, .T. ) ;
#423 = CARTESIAN_POINT ( 'NONE',  ( 3.944782859545280296, 3.648799242126309572, 0.9000000000000000222 ) ) ;
#424 = ORIENTED_EDGE ( 'NONE', *, *, #183, .T. ) ;
#425 = VECTOR ( 'NONE', #711, 1000.000000000000000 ) ;
#426 = COLOUR_RGB ( '',0.6392156862745097534, 0.6392156862745097534, 0.6862745098039215730 ) ;
#427 = FACE_OUTER_BOUND ( 'NONE', #868, .T. ) ;
#428 = CARTESIAN_POINT ( 'NONE',  ( 2.049953205709259763, 2.570954161102480207, 0.1000000000000000056 ) ) ;
#429 = CARTESIAN_POINT ( 'NONE',  ( 0.000000000000000000, 0.000000000000000000, 0.000000000000000000 ) ) ;
#430 = ORIENTED_EDGE ( 'NONE', *, *, #395, .T. ) ;
#431 = FACE_OUTER_BOUND ( 'NONE', #586, .T. ) ;
#432 = SHAPE_DEFINITION_REPRESENTATION ( #516, #178 ) ;
#433 = ADVANCED_FACE ( 'NONE', ( #517 ), #281, .T. ) ;
#434 = DIRECTION ( 'NONE',  ( 1.000000000000000000, 2.312964634635739999E-16, 0.000000000000000000 ) ) ;
#435 = CARTESIAN_POINT ( 'NONE',  ( 8.799953205709259763, 1.370954161102480029, 0.000000000000000000 ) ) ;
#436 = DIRECTION ( 'NONE',  ( -1.000000000000000000, 0.000000000000000000, 0.000000000000000000 ) ) ;
#437 = APPLICATION_PROTOCOL_DEFINITION ( 'draft international standard', 'automotive_design', 1998, #557 ) ;
#438 = LINE ( 'NONE', #172, #757 ) ;
#439 = CARTESIAN_POINT ( 'NONE',  ( 1.300000000000000044, 2.399999999999999911, 0.1000000000000000056 ) ) ;
#440 = ORIENTED_EDGE ( 'NONE', *, *, #875, .F. ) ;
#441 = AXIS2_PLACEMENT_3D ( 'NONE', #807, #55, #1052 ) ;
#442 = MECHANICAL_DESIGN_GEOMETRIC_PRESENTATION_REPRESENTATION (  '', ( #373 ), #793 ) ;
#443 = APPLICATION_PROTOCOL_DEFINITION ( 'draft international standard', 'automotive_design', 1998, #1039 ) ;
#444 = LINE ( 'NONE', #11, #465 ) ;
#445 = DIRECTION ( 'NONE',  ( 0.000000000000000000, 0.000000000000000000, 1.000000000000000000 ) ) ;
#446 = PRODUCT_DEFINITION_SHAPE ( 'NONE', 'NONE',  #545 ) ;
#447 = ORIENTED_EDGE ( 'NONE', *, *, #138, .F. ) ;
#448 = EDGE_CURVE ( 'NONE', #894, #124, #444, .T. ) ;
#449 = ITEM_DEFINED_TRANSFORMATION ( 'NONE', 'NONE', #514,  #512 ) ;
#450 = UNCERTAINTY_MEASURE_WITH_UNIT (LENGTH_MEASURE( 1.000000000000000082E-05 ), #835, 'distance_accuracy_value', 'NONE');
#451 = DIRECTION ( 'NONE',  ( 0.000000000000000000, 0.000000000000000000, 1.000000000000000000 ) ) ;
#452 = LINE ( 'NONE', #776, #531 ) ;
#453 = ORIENTED_EDGE ( 'NONE', *, *, #305, .F. ) ;
#454 = DIRECTION ( 'NONE',  ( 0.000000000000000000, 0.000000000000000000, 1.000000000000000000 ) ) ;
#455 = PRODUCT_DEFINITION_SHAPE ( 'NONE', 'NONE',  #972 ) ;
#456 = FILL_AREA_STYLE ('',( #1015 ) ) ;
#457 = ORIENTED_EDGE ( 'NONE', *, *, #767, .T. ) ;
#458 = ORIENTED_EDGE ( 'NONE', *, *, #738, .F. ) ;
#459 = CARTESIAN_POINT ( 'NONE',  ( 1.449953205709259896, 4.720954161102479674, 0.000000000000000000 ) ) ;
#460 = AXIS2_PLACEMENT_3D ( 'NONE', #435, #97, #303 ) ;
#461 =( GEOMETRIC_REPRESENTATION_CONTEXT ( 3 ) GLOBAL_UNCERTAINTY_ASSIGNED_CONTEXT ( ( #504 ) ) GLOBAL_UNIT_ASSIGNED_CONTEXT ( ( #754, #412, #327 ) ) REPRESENTATION_CONTEXT ( 'NONE', 'WORKASPACE' ) );
#462 = DIRECTION ( 'NONE',  ( 0.000000000000000000, -1.000000000000000000, 0.000000000000000000 ) ) ;
#463 = ADVANCED_FACE ( 'NONE', ( #608 ), #933, .F. ) ;
#464 = CARTESIAN_POINT ( 'NONE',  ( 1.449953205709259896, 0.4209541611024799623, 0.000000000000000000 ) ) ;
#465 = VECTOR ( 'NONE', #274, 1000.000000000000000 ) ;
#466 = APPLICATION_CONTEXT ( 'automotive_design' ) ;
#467 = ORIENTED_EDGE ( 'NONE', *, *, #414, .T. ) ;
#468 = CARTESIAN_POINT ( 'NONE',  ( 1.449953205709259896, 3.770954161102480384, 0.000000000000000000 ) ) ;
#469 = CARTESIAN_POINT ( 'NONE',  ( 0.000000000000000000, 2.399999999999999911, 0.9000000000000000222 ) ) ;
#470 = SHAPE_REPRESENTATION_RELATIONSHIP ( 'NONE' , 'NONE' ,  #897, #408 ) ;
#471 = PRODUCT_RELATED_PRODUCT_CATEGORY ( 'part', '', ( #287 ) ) ;
#472 = FACE_OUTER_BOUND ( 'NONE', #543, .T. ) ;
#473 = EDGE_LOOP ( 'NONE', ( #646, #1040, #467, #16 ) ) ;
#474 = FACE_OUTER_BOUND ( 'NONE', #841, .T. ) ;
#475 = CARTESIAN_POINT ( 'NONE',  ( 0.05000000000000000278, 1.199999999999999956, 0.9000000000000000222 ) ) ;
#476 = ORIENTED_EDGE ( 'NONE', *, *, #851, .T. ) ;
#477 = ADVANCED_FACE ( 'NONE', ( #1014 ), #351, .F. ) ;
#478 = FACE_OUTER_BOUND ( 'NONE', #1071, .T. ) ;
#479 = AXIS2_PLACEMENT_3D ( 'NONE', #256, #197, #41 ) ;
#480 = CARTESIAN_POINT ( 'NONE',  ( 1.449953205709259896, 4.720954161102479674, 1.899999999999999911 ) ) ;
#481 = VECTOR ( 'NONE', #610, 1000.000000000000000 ) ;
#482 = ORIENTED_EDGE ( 'NONE', *, *, #1045, .F. ) ;
#483 = LINE ( 'NONE', #748, #315 ) ;
#484 = ADVANCED_FACE ( 'NONE', ( #779 ), #602, .T. ) ;
#485 = DIRECTION ( 'NONE',  ( 0.000000000000000000, -1.000000000000000000, 0.000000000000000000 ) ) ;
#486 = FILL_AREA_STYLE ('',( #37 ) ) ;
#487 = CARTESIAN_POINT ( 'NONE',  ( 2.699953205709259674, 3.770954161102480384, 0.1000000000000000056 ) ) ;
#488 = ORIENTED_EDGE ( 'NONE', *, *, #1079, .T. ) ;
#489 = SURFACE_STYLE_USAGE ( .BOTH. , #146 ) ;
#490 = ORIENTED_EDGE ( 'NONE', *, *, #935, .T. ) ;
#491 = DIRECTION ( 'NONE',  ( 0.000000000000000000, 1.000000000000000000, 0.000000000000000000 ) ) ;
#492 = DIRECTION ( 'NONE',  ( 0.000000000000000000, 0.000000000000000000, 1.000000000000000000 ) ) ;
#493 = CARTESIAN_POINT ( 'NONE',  ( 1.449953205709259896, 0.4209541611024799623, 0.000000000000000000 ) ) ;
#494 = LINE ( 'NONE', #823, #919 ) ;
#495 = AXIS2_PLACEMENT_3D ( 'NONE', #571, #258, #418 ) ;
#496 = ORIENTED_EDGE ( 'NONE', *, *, #875, .T. ) ;
#497 = AXIS2_PLACEMENT_3D ( 'NONE', #79, #321, #742 ) ;
#498 = LINE ( 'NONE', #148, #1008 ) ;
#499 = CARTESIAN_POINT ( 'NONE',  ( 2.699953205709259674, 3.770954161102480384, 0.000000000000000000 ) ) ;
#500 = EDGE_CURVE ( 'NONE', #999, #591, #941, .T. ) ;
#501 = ORIENTED_EDGE ( 'NONE', *, *, #23, .T. ) ;
#502 = ORIENTED_EDGE ( 'NONE', *, *, #314, .T. ) ;
#503 = FACE_OUTER_BOUND ( 'NONE', #928, .T. ) ;
#504 = UNCERTAINTY_MEASURE_WITH_UNIT (LENGTH_MEASURE( 1.000000000000000082E-05 ), #754, 'distance_accuracy_value', 'NONE');
#505 = PLANE ( 'NONE',  #495 ) ;
#506 = ORIENTED_EDGE ( 'NONE', *, *, #38, .F. ) ;
#507 = ADVANCED_FACE ( 'NONE', ( #365 ), #930, .T. ) ;
#508 = DIRECTION ( 'NONE',  ( 0.000000000000000000, -1.000000000000000000, 0.000000000000000000 ) ) ;
#509 = FACE_OUTER_BOUND ( 'NONE', #789, .T. ) ;
#510 = ORIENTED_EDGE ( 'NONE', *, *, #582, .T. ) ;
#511 = AXIS2_PLACEMENT_3D ( 'NONE', #898, #421, #78 ) ;
#512 = AXIS2_PLACEMENT_3D ( 'NONE', #429, #1036, #205 ) ;
#513 = AXIS2_PLACEMENT_3D ( 'NONE', #712, #1043, #966 ) ;
#514 = AXIS2_PLACEMENT_3D ( 'NONE', #155, #492, #655 ) ;
#515 = PLANE ( 'NONE',  #479 ) ;
#516 = PRODUCT_DEFINITION_SHAPE ( 'NONE', 'NONE',  #785 ) ;
#517 = FACE_OUTER_BOUND ( 'NONE', #76, .T. ) ;
#518 = CARTESIAN_POINT ( 'NONE',  ( 4.044782859545280829, 3.648799242126309572, 0.000000000000000000 ) ) ;
#519 = EDGE_LOOP ( 'NONE', ( #832, #572, #1017, #762 ) ) ;
#520 = DIRECTION ( 'NONE',  ( 0.000000000000000000, -1.000000000000000000, 0.000000000000000000 ) ) ;
#521 = SURFACE_SIDE_STYLE ('',( #275 ) ) ;
#522 = LINE ( 'NONE', #439, #890 ) ;
#523 = VERTEX_POINT ( 'NONE', #199 ) ;
#524 = DIRECTION ( 'NONE',  ( 1.000000000000000000, 0.000000000000000000, 0.000000000000000000 ) ) ;
#525 = DIRECTION ( 'NONE',  ( -1.000000000000000000, 0.000000000000000000, 0.000000000000000000 ) ) ;
#526 =( NAMED_UNIT ( * ) SI_UNIT ( $, .STERADIAN. ) SOLID_ANGLE_UNIT ( ) );
#527 = DIRECTION ( 'NONE',  ( 0.000000000000000000, 0.000000000000000000, 1.000000000000000000 ) ) ;
#528 = EDGE_LOOP ( 'NONE', ( #168, #506, #831, #260, #304, #510, #745, #8, #366, #599, #214, #826 ) ) ;
#529 = AXIS2_PLACEMENT_3D ( 'NONE', #45, #621, #131 ) ;
#530 = ITEM_DEFINED_TRANSFORMATION ( 'NONE', 'NONE', #282,  #756 ) ;
#531 = VECTOR ( 'NONE', #21, 1000.000000000000000 ) ;
#532 = CARTESIAN_POINT ( 'NONE',  ( 8.749953205709260828, 0.4209541611024799623, 0.000000000000000000 ) ) ;
#533 = ADVANCED_FACE ( 'NONE', ( #853 ), #100, .F. ) ;
#534 = ORIENTED_EDGE ( 'NONE', *, *, #202, .T. ) ;
#535 = DIRECTION ( 'NONE',  ( 1.000000000000000000, 0.000000000000000000, 0.000000000000000000 ) ) ;
#536 = SURFACE_SIDE_STYLE ('',( #200 ) ) ;
#537 = CARTESIAN_POINT ( 'NONE',  ( 2.785782859545280044, 1.248799242126309883, 0.000000000000000000 ) ) ;
#538 = EDGE_LOOP ( 'NONE', ( #340, #490, #25, #671, #48, #982 ) ) ;
#539 = LINE ( 'NONE', #468, #169 ) ;
#540 = EDGE_CURVE ( 'NONE', #603, #844, #36, .T. ) ;
#541 = DIRECTION ( 'NONE',  ( -2.312964634635739999E-16, 1.000000000000000000, 0.000000000000000000 ) ) ;
#542 = PRESENTATION_STYLE_ASSIGNMENT (( #192 ) ) ;
#543 = EDGE_LOOP ( 'NONE', ( #129, #311, #618, #938 ) ) ;
#544 = CARTESIAN_POINT ( 'NONE',  ( 0.1000000000000000056, 2.399999999999999911, 0.1000000000000000056 ) ) ;
#545 = PRODUCT_DEFINITION ( 'UNKNOWN', '', #721, #249 ) ;
#546 = VECTOR ( 'NONE', #1077, 1000.000000000000000 ) ;
#547 =( GEOMETRIC_REPRESENTATION_CONTEXT ( 3 ) GLOBAL_UNCERTAINTY_ASSIGNED_CONTEXT ( ( #1019 ) ) GLOBAL_UNIT_ASSIGNED_CONTEXT ( ( #113, #1033, #278 ) ) REPRESENTATION_CONTEXT ( 'NONE', 'WORKASPACE' ) );
#548 = CARTESIAN_POINT ( 'NONE',  ( 1.300000000000000044, 0.000000000000000000, 0.000000000000000000 ) ) ;
#549 = LINE ( 'NONE', #961, #956 ) ;
#550 = STYLED_ITEM ( 'NONE', ( #986 ), #378 ) ;
#551 = VERTEX_POINT ( 'NONE', #225 ) ;
#552 = CARTESIAN_POINT ( 'NONE',  ( 6.949953205709260118, 1.370954161102480029, 0.000000000000000000 ) ) ;
#553 = CARTESIAN_POINT ( 'NONE',  ( 5.099953205709260473, 2.570954161102480207, 0.000000000000000000 ) ) ;
#554 = LINE ( 'NONE', #487, #1028 ) ;
#555 = ORIENTED_EDGE ( 'NONE', *, *, #77, .T. ) ;
#556 = CARTESIAN_POINT ( 'NONE',  ( 8.749953205709260828, 0.4209541611024799623, 1.899999999999999911 ) ) ;
#557 = APPLICATION_CONTEXT ( 'automotive_design' ) ;
#558 = EDGE_CURVE ( 'NONE', #1066, #894, #42, .T. ) ;
#559 = ORIENTED_EDGE ( 'NONE', *, *, #164, .T. ) ;
#560 = DIRECTION ( 'NONE',  ( 0.000000000000000000, 0.000000000000000000, -1.000000000000000000 ) ) ;
#561 = AXIS2_PLACEMENT_3D ( 'NONE', #94, #215, #111 ) ;
#562 = LINE ( 'NONE', #143, #976 ) ;
#563 = VECTOR ( 'NONE', #1048, 1000.000000000000000 ) ;
#564 = VECTOR ( 'NONE', #925, 1000.000000000000000 ) ;
#565 = ORIENTED_EDGE ( 'NONE', *, *, #1045, .T. ) ;
#566 = DIRECTION ( 'NONE',  ( 0.000000000000000000, 1.000000000000000000, 0.000000000000000000 ) ) ;
#567 = FACE_OUTER_BOUND ( 'NONE', #267, .T. ) ;
#568 = ORIENTED_EDGE ( 'NONE', *, *, #59, .T. ) ;
#569 = ADVANCED_FACE ( 'NONE', ( #204 ), #299, .T. ) ;
#570 = LINE ( 'NONE', #405, #266 ) ;
#571 = CARTESIAN_POINT ( 'NONE',  ( 1.449953205709259896, 0.4209541611024799623, 0.000000000000000000 ) ) ;
#572 = ORIENTED_EDGE ( 'NONE', *, *, #401, .F. ) ;
#573 = CARTESIAN_POINT ( 'NONE',  ( 6.320453205709260835, 3.770954161102480384, 0.000000000000000000 ) ) ;
#574 = DIRECTION ( 'NONE',  ( 0.000000000000000000, 0.000000000000000000, 1.000000000000000000 ) ) ;
#575 = VECTOR ( 'NONE', #208, 1000.000000000000000 ) ;
#576 = ORIENTED_EDGE ( 'NONE', *, *, #851, .F. ) ;
#577 = PRODUCT_DEFINITION_FORMATION_WITH_SPECIFIED_SOURCE ( 'ANY', '', #287, .NOT_KNOWN. ) ;
#578 = ORIENTED_EDGE ( 'NONE', *, *, #59, .F. ) ;
#579 = CARTESIAN_POINT ( 'NONE',  ( 8.749953205709260828, 4.720954161102479674, 1.899999999999999911 ) ) ;
#580 = LINE ( 'NONE', #322, #356 ) ;
#581 = DIRECTION ( 'NONE',  ( -1.000000000000000000, 0.000000000000000000, 0.000000000000000000 ) ) ;
#582 = EDGE_CURVE ( 'NONE', #691, #271, #945, .T. ) ;
#583 = VERTEX_POINT ( 'NONE', #142 ) ;
#584 = CARTESIAN_POINT ( 'NONE',  ( 7.540953205709260310, 1.970954161102479896, 0.000000000000000000 ) ) ;
#585 = DIRECTION ( 'NONE',  ( 0.000000000000000000, 0.000000000000000000, 1.000000000000000000 ) ) ;
#586 = EDGE_LOOP ( 'NONE', ( #196, #333, #749, #578 ) ) ;
#587 = ADVANCED_FACE ( 'NONE', ( #474 ), #726, .F. ) ;
#588 = DIRECTION ( 'NONE',  ( 0.000000000000000000, 1.000000000000000000, 0.000000000000000000 ) ) ;
#589 = LINE ( 'NONE', #920, #319 ) ;
#590 = DIRECTION ( 'NONE',  ( 0.000000000000000000, 0.000000000000000000, 1.000000000000000000 ) ) ;
#591 = VERTEX_POINT ( 'NONE', #556 ) ;
#592 = VECTOR ( 'NONE', #343, 1000.000000000000000 ) ;
#593 = VECTOR ( 'NONE', #855, 1000.000000000000000 ) ;
#594 = AXIS2_PLACEMENT_3D ( 'NONE', #765, #1035, #786 ) ;
#595 = LINE ( 'NONE', #878, #1027 ) ;
#596 = DIRECTION ( 'NONE',  ( 0.000000000000000000, 0.000000000000000000, 1.000000000000000000 ) ) ;
#597 = CARTESIAN_POINT ( 'NONE',  ( 0.000000000000000000, 0.000000000000000000, 0.000000000000000000 ) ) ;
#598 = LINE ( 'NONE', #927, #123 ) ;
#599 = ORIENTED_EDGE ( 'NONE', *, *, #812, .F. ) ;
#600 = APPLICATION_PROTOCOL_DEFINITION ( 'draft international standard', 'automotive_design', 1998, #9 ) ;
#601 = ADVANCED_FACE ( 'NONE', ( #638 ), #389, .T. ) ;
#602 = PLANE ( 'NONE',  #285 ) ;
#603 = VERTEX_POINT ( 'NONE', #715 ) ;
#604 = EDGE_LOOP ( 'NONE', ( #740, #17, #159, #61, #296, #987 ) ) ;
#605 = PRODUCT_DEFINITION_SHAPE ( 'NONE', 'NONE',  #1082 ) ;
#606 = ADVANCED_FACE ( 'NONE', ( #478 ), #874, .F. ) ;
#607 = PRODUCT_DEFINITION_CONTEXT ( 'detailed design', #350, 'design' ) ;
#608 = FACE_OUTER_BOUND ( 'NONE', #360, .T. ) ;
#609 =( NAMED_UNIT ( * ) SI_UNIT ( $, .STERADIAN. ) SOLID_ANGLE_UNIT ( ) );
#610 = DIRECTION ( 'NONE',  ( 1.000000000000000000, 0.000000000000000000, 0.000000000000000000 ) ) ;
#611 = EDGE_LOOP ( 'NONE', ( #623, #182, #713, #501 ) ) ;
#612 = VECTOR ( 'NONE', #763, 1000.000000000000000 ) ;
#613 = CLOSED_SHELL ( 'NONE', ( #887, #477, #601, #778, #750, #380, #222, #863 ) ) ;
#614 = VECTOR ( 'NONE', #56, 1000.000000000000000 ) ;
#615 = DIRECTION ( 'NONE',  ( -2.312964634635739999E-16, 1.000000000000000000, 0.000000000000000000 ) ) ;
#616 =( LENGTH_UNIT ( ) NAMED_UNIT ( * ) SI_UNIT ( .MILLI., .METRE. ) );
#617 = EDGE_CURVE ( 'NONE', #241, #1078, #968, .T. ) ;
#618 = ORIENTED_EDGE ( 'NONE', *, *, #801, .F. ) ;
#619 = DIRECTION ( 'NONE',  ( 0.000000000000000000, 0.000000000000000000, 1.000000000000000000 ) ) ;
#620 = CONTEXT_DEPENDENT_SHAPE_REPRESENTATION ( #237, #347 ) ;
#621 = DIRECTION ( 'NONE',  ( 0.000000000000000000, -1.000000000000000000, 0.000000000000000000 ) ) ;
#622 = FILL_AREA_STYLE_COLOUR ( '', #245 ) ;
#623 = ORIENTED_EDGE ( 'NONE', *, *, #707, .T. ) ;
#624 = PRODUCT_DEFINITION ( 'UNKNOWN', '', #891, #852 ) ;
#625 = LINE ( 'NONE', #459, #152 ) ;
#626 = DIRECTION ( 'NONE',  ( -1.000000000000000000, 2.135044278125299864E-16, 0.000000000000000000 ) ) ;
#627 = LINE ( 'NONE', #971, #264 ) ;
#628 = ORIENTED_EDGE ( 'NONE', *, *, #730, .T. ) ;
#629 = DIRECTION ( 'NONE',  ( 1.000000000000000000, 0.000000000000000000, 0.000000000000000000 ) ) ;
#630 = VECTOR ( 'NONE', #760, 1000.000000000000000 ) ;
#631 =( GEOMETRIC_REPRESENTATION_CONTEXT ( 3 ) GLOBAL_UNCERTAINTY_ASSIGNED_CONTEXT ( ( #909 ) ) GLOBAL_UNIT_ASSIGNED_CONTEXT ( ( #682, #699, #609 ) ) REPRESENTATION_CONTEXT ( 'NONE', 'WORKASPACE' ) );
#632 = CARTESIAN_POINT ( 'NONE',  ( 0.000000000000000000, 2.399999999999999911, 0.000000000000000000 ) ) ;
#633 = DIRECTION ( 'NONE',  ( -1.000000000000000000, 2.135044278125299864E-16, 0.000000000000000000 ) ) ;
#634 = ORIENTED_EDGE ( 'NONE', *, *, #364, .F. ) ;
#635 = DIRECTION ( 'NONE',  ( 1.000000000000000000, 0.000000000000000000, 0.000000000000000000 ) ) ;
#636 = EDGE_CURVE ( 'NONE', #144, #962, #950, .T. ) ;
#637 = ORIENTED_EDGE ( 'NONE', *, *, #352, .F. ) ;
#638 = FACE_OUTER_BOUND ( 'NONE', #538, .T. ) ;
#639 = EDGE_CURVE ( 'NONE', #790, #732, #400, .T. ) ;
#640 = CARTESIAN_POINT ( 'NONE',  ( 8.749953205709260828, 3.770954161102480384, 0.1000000000000000056 ) ) ;
#641 = EDGE_LOOP ( 'NONE', ( #1054, #44, #1005, #882 ) ) ;
#642 = PRESENTATION_STYLE_ASSIGNMENT (( #336 ) ) ;
#643 =( GEOMETRIC_REPRESENTATION_CONTEXT ( 3 ) GLOBAL_UNCERTAINTY_ASSIGNED_CONTEXT ( ( #4 ) ) GLOBAL_UNIT_ASSIGNED_CONTEXT ( ( #654, #1074, #984 ) ) REPRESENTATION_CONTEXT ( 'NONE', 'WORKASPACE' ) );
#644 = DIRECTION ( 'NONE',  ( 1.000000000000000000, -2.135044278125299864E-16, 0.000000000000000000 ) ) ;
#645 = VECTOR ( 'NONE', #411, 1000.000000000000000 ) ;
#646 = ORIENTED_EDGE ( 'NONE', *, *, #917, .T. ) ;
#647 = EDGE_CURVE ( 'NONE', #252, #308, #870, .T. ) ;
#648 = UNCERTAINTY_MEASURE_WITH_UNIT (LENGTH_MEASURE( 1.000000000000000082E-05 ), #985, 'distance_accuracy_value', 'NONE');
#649 = CARTESIAN_POINT ( 'NONE',  ( 0.000000000000000000, 2.399999999999999911, 0.000000000000000000 ) ) ;
#650 = DIRECTION ( 'NONE',  ( 0.000000000000000000, 1.000000000000000000, 0.000000000000000000 ) ) ;
#651 = ORIENTED_EDGE ( 'NONE', *, *, #77, .F. ) ;
#652 = LINE ( 'NONE', #236, #62 ) ;
#653 = EDGE_CURVE ( 'NONE', #943, #220, #119, .T. ) ;
#654 =( LENGTH_UNIT ( ) NAMED_UNIT ( * ) SI_UNIT ( .MILLI., .METRE. ) );
#655 = DIRECTION ( 'NONE',  ( 1.000000000000000000, 0.000000000000000000, 0.000000000000000000 ) ) ;
#656 = FILL_AREA_STYLE ('',( #326 ) ) ;
#657 = DIRECTION ( 'NONE',  ( -1.000000000000000000, 0.000000000000000000, 0.000000000000000000 ) ) ;
#658 = ORIENTED_EDGE ( 'NONE', *, *, #51, .T. ) ;
#659 = ORIENTED_EDGE ( 'NONE', *, *, #218, .F. ) ;
#660 = DIRECTION ( 'NONE',  ( -1.000000000000000000, 4.409146245532789707E-16, 0.000000000000000000 ) ) ;
#661 = ADVANCED_FACE ( 'NONE', ( #794 ), #52, .F. ) ;
#662 = FACE_OUTER_BOUND ( 'NONE', #761, .T. ) ;
#663 = CARTESIAN_POINT ( 'NONE',  ( 1.449953205709259896, 1.370954161102480029, 0.1000000000000000056 ) ) ;
#664 = VECTOR ( 'NONE', #410, 1000.000000000000000 ) ;
#665 = ORIENTED_EDGE ( 'NONE', *, *, #719, .F. ) ;
#666 = LINE ( 'NONE', #253, #407 ) ;
#667 = EDGE_CURVE ( 'NONE', #790, #994, #209, .T. ) ;
#668 = DIRECTION ( 'NONE',  ( 0.000000000000000000, 0.000000000000000000, 1.000000000000000000 ) ) ;
#669 = LINE ( 'NONE', #423, #13 ) ;
#670 = ORIENTED_EDGE ( 'NONE', *, *, #330, .T. ) ;
#671 = ORIENTED_EDGE ( 'NONE', *, *, #1056, .F. ) ;
#672 = CARTESIAN_POINT ( 'NONE',  ( 7.540953205709260310, 1.370954161102480029, 0.1000000000000000056 ) ) ;
#673 = UNCERTAINTY_MEASURE_WITH_UNIT (LENGTH_MEASURE( 1.000000000000000082E-05 ), #960, 'distance_accuracy_value', 'NONE');
#674 = CARTESIAN_POINT ( 'NONE',  ( 1.449953205709259896, 0.4209541611024799623, 1.899999999999999911 ) ) ;
#675 = LINE ( 'NONE', #997, #546 ) ;
#676 = ORIENTED_EDGE ( 'NONE', *, *, #998, .F. ) ;
#677 = PRODUCT_DEFINITION_SHAPE ( 'NONE', 'NONE',  #624 ) ;
#678 = VERTEX_POINT ( 'NONE', #58 ) ;
#679 = CARTESIAN_POINT ( 'NONE',  ( 8.749953205709260828, 4.720954161102479674, 0.000000000000000000 ) ) ;
#680 = CONTEXT_DEPENDENT_SHAPE_REPRESENTATION ( #394, #91 ) ;
#681 = CARTESIAN_POINT ( 'NONE',  ( 0.6500000000000000222, 1.199999999999999956, 0.000000000000000000 ) ) ;
#682 =( LENGTH_UNIT ( ) NAMED_UNIT ( * ) SI_UNIT ( .MILLI., .METRE. ) );
#683 =( NAMED_UNIT ( * ) PLANE_ANGLE_UNIT ( ) SI_UNIT ( $, .RADIAN. ) );
#684 = VECTOR ( 'NONE', #377, 1000.000000000000000 ) ;
#685 = VECTOR ( 'NONE', #39, 1000.000000000000000 ) ;
#686 = EDGE_CURVE ( 'NONE', #967, #158, #666, .T. ) ;
#687 =( GEOMETRIC_REPRESENTATION_CONTEXT ( 3 ) GLOBAL_UNCERTAINTY_ASSIGNED_CONTEXT ( ( #1034 ) ) GLOBAL_UNIT_ASSIGNED_CONTEXT ( ( #616, #683, #1011 ) ) REPRESENTATION_CONTEXT ( 'NONE', 'WORKASPACE' ) );
#688 = VECTOR ( 'NONE', #668, 1000.000000000000000 ) ;
#689 = APPLICATION_PROTOCOL_DEFINITION ( 'draft international standard', 'automotive_design', 1998, #406 ) ;
#690 = LINE ( 'NONE', #697, #739 ) ;
#691 = VERTEX_POINT ( 'NONE', #73 ) ;
#692 = PRODUCT_CONTEXT ( 'NONE', #788, 'mechanical' ) ;
#693 = DIRECTION ( 'NONE',  ( 0.000000000000000000, 0.000000000000000000, 1.000000000000000000 ) ) ;
#694 = ORIENTED_EDGE ( 'NONE', *, *, #149, .T. ) ;
#695 = DIRECTION ( 'NONE',  ( 0.000000000000000000, 1.000000000000000000, 0.000000000000000000 ) ) ;
#696 = UNCERTAINTY_MEASURE_WITH_UNIT (LENGTH_MEASURE( 1.000000000000000082E-05 ), #860, 'distance_accuracy_value', 'NONE');
#697 = CARTESIAN_POINT ( 'NONE',  ( 1.449953205709259896, 1.495954161102480251, 0.1000000000000000056 ) ) ;
#698 = ADVANCED_FACE ( 'NONE', ( #427 ), #907, .T. ) ;
#699 =( NAMED_UNIT ( * ) PLANE_ANGLE_UNIT ( ) SI_UNIT ( $, .RADIAN. ) );
#700 = CARTESIAN_POINT ( 'NONE',  ( 4.044782859545280829, 3.648799242126309572, 0.9000000000000000222 ) ) ;
#701 = VERTEX_POINT ( 'NONE', #579 ) ;
#702 = CARTESIAN_POINT ( 'NONE',  ( 1.449953205709259896, 3.770954161102480384, 0.1000000000000000056 ) ) ;
#703 = PRESENTATION_LAYER_ASSIGNMENT (  '', '', ( #228 ) ) ;
#704 = VECTOR ( 'NONE', #234, 1000.000000000000000 ) ;
#705 = AXIS2_PLACEMENT_3D ( 'NONE', #179, #520, #109 ) ;
#706 = FACE_OUTER_BOUND ( 'NONE', #473, .T. ) ;
#707 = EDGE_CURVE ( 'NONE', #994, #381, #246, .T. ) ;
#708 = LINE ( 'NONE', #24, #593 ) ;
#709 = ORIENTED_EDGE ( 'NONE', *, *, #983, .T. ) ;
#710 = DIRECTION ( 'NONE',  ( 0.000000000000000000, -1.000000000000000000, 0.000000000000000000 ) ) ;
#711 = DIRECTION ( 'NONE',  ( 0.000000000000000000, 1.000000000000000000, 0.000000000000000000 ) ) ;
#712 = CARTESIAN_POINT ( 'NONE',  ( 8.170453205709259592, 2.570954161102480207, 0.1000000000000000056 ) ) ;
#713 = ORIENTED_EDGE ( 'NONE', *, *, #248, .T. ) ;
#714 = LINE ( 'NONE', #792, #575 ) ;
#715 = CARTESIAN_POINT ( 'NONE',  ( 0.000000000000000000, 0.000000000000000000, 0.9000000000000000222 ) ) ;
#716 =( NAMED_UNIT ( * ) SI_UNIT ( $, .STERADIAN. ) SOLID_ANGLE_UNIT ( ) );
#717 = CARTESIAN_POINT ( 'NONE',  ( 7.540953205709260310, 3.770954161102480384, 0.000000000000000000 ) ) ;
#718 = ORIENTED_EDGE ( 'NONE', *, *, #1067, .F. ) ;
#719 = EDGE_CURVE ( 'NONE', #583, #943, #498, .T. ) ;
#720 = VECTOR ( 'NONE', #803, 1000.000000000000000 ) ;
#721 = PRODUCT_DEFINITION_FORMATION_WITH_SPECIFIED_SOURCE ( 'ANY', '', #247, .NOT_KNOWN. ) ;
#722 = CARTESIAN_POINT ( 'NONE',  ( 2.699953205709259674, 1.370954161102480029, 0.000000000000000000 ) ) ;
#723 = FACE_OUTER_BOUND ( 'NONE', #328, .T. ) ;
#724 = EDGE_LOOP ( 'NONE', ( #488, #637, #363, #430 ) ) ;
#725 = ADVANCED_FACE ( 'NONE', ( #995 ), #819, .T. ) ;
#726 = PLANE ( 'NONE',  #334 ) ;
#727 = CARTESIAN_POINT ( 'NONE',  ( 1.300000000000000044, 0.000000000000000000, 0.1000000000000000056 ) ) ;
#728 = ORIENTED_EDGE ( 'NONE', *, *, #29, .F. ) ;
#729 = CARTESIAN_POINT ( 'NONE',  ( 3.944782859545280296, 1.848799242126309972, 0.1000000000000000056 ) ) ;
#730 = EDGE_CURVE ( 'NONE', #272, #54, #1063, .T. ) ;
#731 = LINE ( 'NONE', #464, #704 ) ;
#732 = VERTEX_POINT ( 'NONE', #320 ) ;
#733 = CARTESIAN_POINT ( 'NONE',  ( 2.785782859545280044, 3.648799242126309572, 0.1000000000000000056 ) ) ;
#734 = VECTOR ( 'NONE', #574, 1000.000000000000000 ) ;
#735 = DIRECTION ( 'NONE',  ( 1.000000000000000000, 0.000000000000000000, 0.000000000000000000 ) ) ;
#736 = PRODUCT_DEFINITION_FORMATION_WITH_SPECIFIED_SOURCE ( 'ANY', '', #783, .NOT_KNOWN. ) ;
#737 = PLANE ( 'NONE',  #893 ) ;
#738 = EDGE_CURVE ( 'NONE', #227, #523, #741, .T. ) ;
#739 = VECTOR ( 'NONE', #854, 1000.000000000000000 ) ;
#740 = ORIENTED_EDGE ( 'NONE', *, *, #667, .T. ) ;
#741 = LINE ( 'NONE', #584, #368 ) ;
#742 = DIRECTION ( 'NONE',  ( 1.000000000000000000, 0.000000000000000000, 0.000000000000000000 ) ) ;
#743 = PLANE ( 'NONE',  #358 ) ;
#744 = PLANE ( 'NONE',  #353 ) ;
#745 = ORIENTED_EDGE ( 'NONE', *, *, #998, .T. ) ;
#746 = SURFACE_STYLE_FILL_AREA ( #752 ) ;
#747 =( NAMED_UNIT ( * ) PLANE_ANGLE_UNIT ( ) SI_UNIT ( $, .RADIAN. ) );
#748 = CARTESIAN_POINT ( 'NONE',  ( 0.1000000000000000056, 2.399999999999999911, 0.9000000000000000222 ) ) ;
#749 = ORIENTED_EDGE ( 'NONE', *, *, #314, .F. ) ;
#750 = ADVANCED_FACE ( 'NONE', ( #503 ), #325, .T. ) ;
#751 = MANIFOLD_SOLID_BREP ( 'Imported1', #318 ) ;
#752 = FILL_AREA_STYLE ('',( #312 ) ) ;
#753 = CARTESIAN_POINT ( 'NONE',  ( 7.540953205709260310, 3.770954161102480384, 0.000000000000000000 ) ) ;
#754 =( LENGTH_UNIT ( ) NAMED_UNIT ( * ) SI_UNIT ( .MILLI., .METRE. ) );
#755 = ORIENTED_EDGE ( 'NONE', *, *, #965, .F. ) ;
#756 = AXIS2_PLACEMENT_3D ( 'NONE', #808, #821, #828 ) ;
#757 = VECTOR ( 'NONE', #693, 1000.000000000000000 ) ;
#758 = DIRECTION ( 'NONE',  ( 0.000000000000000000, 0.000000000000000000, 1.000000000000000000 ) ) ;
#759 = LINE ( 'NONE', #753, #873 ) ;
#760 = DIRECTION ( 'NONE',  ( -1.000000000000000000, 0.000000000000000000, 0.000000000000000000 ) ) ;
#761 = EDGE_LOOP ( 'NONE', ( #857, #90, #187, #534 ) ) ;
#762 = ORIENTED_EDGE ( 'NONE', *, *, #500, .T. ) ;
#763 = DIRECTION ( 'NONE',  ( 1.000000000000000000, -4.409146245532789707E-16, 0.000000000000000000 ) ) ;
#764 = ITEM_DEFINED_TRANSFORMATION ( 'NONE', 'NONE', #497,  #512 ) ;
#765 = CARTESIAN_POINT ( 'NONE',  ( 1.449953205709259896, 4.720954161102479674, 0.000000000000000000 ) ) ;
#766 = CARTESIAN_POINT ( 'NONE',  ( 0.000000000000000000, 0.000000000000000000, 0.000000000000000000 ) ) ;
#767 = EDGE_CURVE ( 'NONE', #108, #151, #165, .T. ) ;
#768 = SURFACE_STYLE_FILL_AREA ( #946 ) ;
#769 = CARTESIAN_POINT ( 'NONE',  ( 0.000000000000000000, 0.000000000000000000, 0.000000000000000000 ) ) ;
#770 = DIRECTION ( 'NONE',  ( 1.000000000000000000, 0.000000000000000000, 0.000000000000000000 ) ) ;
#771 = VECTOR ( 'NONE', #1006, 1000.000000000000000 ) ;
#772 = PRESENTATION_LAYER_ASSIGNMENT (  '', '', ( #1029 ) ) ;
#773 = EDGE_LOOP ( 'NONE', ( #502, #137, #163, #802 ) ) ;
#774 = SHAPE_DEFINITION_REPRESENTATION ( #446, #817 ) ;
#775 = CARTESIAN_POINT ( 'NONE',  ( 2.699953205709259674, 3.770954161102480384, 0.000000000000000000 ) ) ;
#776 = CARTESIAN_POINT ( 'NONE',  ( 0.000000000000000000, 2.399999999999999911, 0.000000000000000000 ) ) ;
#777 = ORIENTED_EDGE ( 'NONE', *, *, #337, .T. ) ;
#778 = ADVANCED_FACE ( 'NONE', ( #989 ), #515, .T. ) ;
#779 = FACE_OUTER_BOUND ( 'NONE', #641, .T. ) ;
#780 = CARTESIAN_POINT ( 'NONE',  ( 7.540953205709260310, 3.770954161102480384, 0.1000000000000000056 ) ) ;
#781 = VERTEX_POINT ( 'NONE', #955 ) ;
#782 = CARTESIAN_POINT ( 'NONE',  ( 8.749953205709260828, 4.720954161102479674, 0.000000000000000000 ) ) ;
#783 = PRODUCT ( '??1^GX_SX_CX_HX(2)_EEFKX0D471RB', '??1^GX_SX_CX_HX(2)_EEFKX0D471RB', '', ( #273 ) ) ;
#784 = PRODUCT_CONTEXT ( 'NONE', #1039, 'mechanical' ) ;
#785 = PRODUCT_DEFINITION ( 'UNKNOWN', '', #191, #68 ) ;
#786 = DIRECTION ( 'NONE',  ( 1.000000000000000000, 0.000000000000000000, 0.000000000000000000 ) ) ;
#787 = PRESENTATION_STYLE_ASSIGNMENT (( #185 ) ) ;
#788 = APPLICATION_CONTEXT ( 'automotive_design' ) ;
#789 = EDGE_LOOP ( 'NONE', ( #694, #374, #403, #559, #276, #346, #867, #255 ) ) ;
#790 = VERTEX_POINT ( 'NONE', #845 ) ;
#791 = VECTOR ( 'NONE', #535, 1000.000000000000000 ) ;
#792 = CARTESIAN_POINT ( 'NONE',  ( 4.044782859545280829, 3.648799242126309572, 0.000000000000000000 ) ) ;
#793 =( GEOMETRIC_REPRESENTATION_CONTEXT ( 3 ) GLOBAL_UNCERTAINTY_ASSIGNED_CONTEXT ( ( #673 ) ) GLOBAL_UNIT_ASSIGNED_CONTEXT ( ( #960, #135, #46 ) ) REPRESENTATION_CONTEXT ( 'NONE', 'WORKASPACE' ) );
#794 = FACE_OUTER_BOUND ( 'NONE', #1080, .T. ) ;
#795 = PLANE ( 'NONE',  #513 ) ;
#796 = ORIENTED_EDGE ( 'NONE', *, *, #902, .F. ) ;
#797 = CARTESIAN_POINT ( 'NONE',  ( 8.749953205709260828, 4.720954161102479674, 1.899999999999999911 ) ) ;
#798 = DIRECTION ( 'NONE',  ( 0.000000000000000000, 0.000000000000000000, 1.000000000000000000 ) ) ;
#799 = SURFACE_STYLE_USAGE ( .BOTH. , #294 ) ;
#800 = CARTESIAN_POINT ( 'NONE',  ( 8.749953205709260828, 1.370954161102480029, 0.1000000000000000056 ) ) ;
#801 = EDGE_CURVE ( 'NONE', #54, #603, #1041, .T. ) ;
#802 = ORIENTED_EDGE ( 'NONE', *, *, #1038, .T. ) ;
#803 = DIRECTION ( 'NONE',  ( 0.000000000000000000, -1.000000000000000000, 0.000000000000000000 ) ) ;
#804 = CARTESIAN_POINT ( 'NONE',  ( 0.1000000000000000056, 1.800000000000000044, 0.1000000000000000056 ) ) ;
#805 = ORIENTED_EDGE ( 'NONE', *, *, #248, .F. ) ;
#806 = AXIS2_PLACEMENT_3D ( 'NONE', #548, #485, #560 ) ;
#807 = CARTESIAN_POINT ( 'NONE',  ( 7.540953205709260310, 1.370954161102480029, 0.000000000000000000 ) ) ;
#808 = CARTESIAN_POINT ( 'NONE',  ( 0.000000000000000000, 0.000000000000000000, 0.000000000000000000 ) ) ;
#809 = VECTOR ( 'NONE', #931, 1000.000000000000000 ) ;
#810 = DIRECTION ( 'NONE',  ( -0.000000000000000000, 1.000000000000000000, 0.000000000000000000 ) ) ;
#811 = VERTEX_POINT ( 'NONE', #702 ) ;
#812 = EDGE_CURVE ( 'NONE', #224, #921, #595, .T. ) ;
#813 = DIRECTION ( 'NONE',  ( 1.000000000000000000, 0.000000000000000000, 0.000000000000000000 ) ) ;
#814 = ORIENTED_EDGE ( 'NONE', *, *, #18, .T. ) ;
#815 = EDGE_CURVE ( 'NONE', #329, #678, #293, .T. ) ;
#816 = LINE ( 'NONE', #60, #688 ) ;
#817 = SHAPE_REPRESENTATION ( '??2^GX_SX_CX_HX(2)_EEFKX0D471RB', ( #512 ), #87 ) ;
#818 = ORIENTED_EDGE ( 'NONE', *, *, #582, .F. ) ;
#819 = PLANE ( 'NONE',  #30 ) ;
#820 = VECTOR ( 'NONE', #660, 1000.000000000000000 ) ;
#821 = DIRECTION ( 'NONE',  ( 0.000000000000000000, 0.000000000000000000, 1.000000000000000000 ) ) ;
#822 = DIRECTION ( 'NONE',  ( -1.000000000000000000, 0.000000000000000000, 0.000000000000000000 ) ) ;
#823 = CARTESIAN_POINT ( 'NONE',  ( 3.249953205709259940, 3.770954161102480384, 0.000000000000000000 ) ) ;
#824 = VECTOR ( 'NONE', #250, 1000.000000000000000 ) ;
#825 = PRESENTATION_LAYER_ASSIGNMENT (  '', '', ( #550 ) ) ;
#826 = ORIENTED_EDGE ( 'NONE', *, *, #738, .T. ) ;
#827 = CARTESIAN_POINT ( 'NONE',  ( 0.1000000000000000056, 0.000000000000000000, 0.9000000000000000222 ) ) ;
#828 = DIRECTION ( 'NONE',  ( 1.000000000000000000, 0.000000000000000000, 0.000000000000000000 ) ) ;
#829 = CARTESIAN_POINT ( 'NONE',  ( 1.449953205709259896, 4.720954161102479674, 0.000000000000000000 ) ) ;
#830 = CARTESIAN_POINT ( 'NONE',  ( 2.785782859545280044, 1.248799242126309883, 0.1000000000000000056 ) ) ;
#831 = ORIENTED_EDGE ( 'NONE', *, *, #145, .F. ) ;
#832 = ORIENTED_EDGE ( 'NONE', *, *, #344, .T. ) ;
#833 = DIRECTION ( 'NONE',  ( -0.000000000000000000, 1.000000000000000000, 0.000000000000000000 ) ) ;
#834 = PRODUCT ( 'SX2.0^GX_SX_CX_HX(2)_EEFKX0D471RB', 'SX2.0^GX_SX_CX_HX(2)_EEFKX0D471RB', '', ( #361 ) ) ;
#835 =( LENGTH_UNIT ( ) NAMED_UNIT ( * ) SI_UNIT ( .MILLI., .METRE. ) );
#836 = ORIENTED_EDGE ( 'NONE', *, *, #1079, .F. ) ;
#837 = SURFACE_SIDE_STYLE ('',( #746 ) ) ;
#838 = LINE ( 'NONE', #161, #89 ) ;
#839 = FACE_OUTER_BOUND ( 'NONE', #611, .T. ) ;
#840 = VECTOR ( 'NONE', #948, 1000.000000000000000 ) ;
#841 = EDGE_LOOP ( 'NONE', ( #399, #676, #814, #659 ) ) ;
#842 = MECHANICAL_DESIGN_GEOMETRIC_PRESENTATION_REPRESENTATION (  '', ( #1029 ), #354 ) ;
#843 = AXIS2_PLACEMENT_3D ( 'NONE', #553, #798, #1047 ) ;
#844 = VERTEX_POINT ( 'NONE', #125 ) ;
#845 = CARTESIAN_POINT ( 'NONE',  ( 3.944782859545280296, 1.248799242126309883, 0.1000000000000000056 ) ) ;
#846 = CONTEXT_DEPENDENT_SHAPE_REPRESENTATION ( #93, #605 ) ;
#847 = EDGE_CURVE ( 'NONE', #329, #115, #625, .T. ) ;
#848 = CARTESIAN_POINT ( 'NONE',  ( 4.044782859545280829, 3.648799242126309572, 0.000000000000000000 ) ) ;
#849 = LINE ( 'NONE', #992, #630 ) ;
#850 = ORIENTED_EDGE ( 'NONE', *, *, #202, .F. ) ;
#851 = EDGE_CURVE ( 'NONE', #116, #224, #918, .T. ) ;
#852 = PRODUCT_DEFINITION_CONTEXT ( 'detailed design', #83, 'design' ) ;
#853 = FACE_OUTER_BOUND ( 'NONE', #528, .T. ) ;
#854 = DIRECTION ( 'NONE',  ( 0.000000000000000000, -1.000000000000000000, 0.000000000000000000 ) ) ;
#855 = DIRECTION ( 'NONE',  ( 0.000000000000000000, 0.000000000000000000, 1.000000000000000000 ) ) ;
#856 = EDGE_CURVE ( 'NONE', #921, #701, #170, .T. ) ;
#857 = ORIENTED_EDGE ( 'NONE', *, *, #420, .F. ) ;
#858 = ITEM_DEFINED_TRANSFORMATION ( 'NONE', 'NONE', #232,  #512 ) ;
#859 =( NAMED_UNIT ( * ) PLANE_ANGLE_UNIT ( ) SI_UNIT ( $, .RADIAN. ) );
#860 =( LENGTH_UNIT ( ) NAMED_UNIT ( * ) SI_UNIT ( .MILLI., .METRE. ) );
#861 = LINE ( 'NONE', #700, #481 ) ;
#862 = VERTEX_POINT ( 'NONE', #348 ) ;
#863 = ADVANCED_FACE ( 'NONE', ( #34 ), #26, .T. ) ;
#864 = FACE_OUTER_BOUND ( 'NONE', #936, .T. ) ;
#865 = SHAPE_DEFINITION_REPRESENTATION ( #19, #383 ) ;
#866 = FACE_OUTER_BOUND ( 'NONE', #277, .T. ) ;
#867 = ORIENTED_EDGE ( 'NONE', *, *, #911, .T. ) ;
#868 = EDGE_LOOP ( 'NONE', ( #886, #57, #1023, #900 ) ) ;
#869 = DIRECTION ( 'NONE',  ( 0.000000000000000000, 1.000000000000000000, 0.000000000000000000 ) ) ;
#870 = LINE ( 'NONE', #963, #720 ) ;
#871 = ORIENTED_EDGE ( 'NONE', *, *, #686, .F. ) ;
#872 = LINE ( 'NONE', #552, #612 ) ;
#873 = VECTOR ( 'NONE', #69, 1000.000000000000000 ) ;
#874 = PLANE ( 'NONE',  #441 ) ;
#875 = EDGE_CURVE ( 'NONE', #124, #781, #714, .T. ) ;
#876 = CARTESIAN_POINT ( 'NONE',  ( 3.944782859545280296, 1.248799242126309883, 0.9000000000000000222 ) ) ;
#877 = ORIENTED_EDGE ( 'NONE', *, *, #558, .F. ) ;
#878 = CARTESIAN_POINT ( 'NONE',  ( 8.749953205709260828, 0.4209541611024799623, 0.000000000000000000 ) ) ;
#879 = DIRECTION ( 'NONE',  ( 1.000000000000000000, 0.000000000000000000, 0.000000000000000000 ) ) ;
#880 = PRODUCT_RELATED_PRODUCT_CATEGORY ( 'part', '', ( #1022 ) ) ;
#881 = CARTESIAN_POINT ( 'NONE',  ( 0.1000000000000000056, 2.399999999999999911, 0.1000000000000000056 ) ) ;
#882 = ORIENTED_EDGE ( 'NONE', *, *, #917, .F. ) ;
#883 = CARTESIAN_POINT ( 'NONE',  ( 0.000000000000000000, 0.000000000000000000, 0.1000000000000000056 ) ) ;
#884 = SURFACE_STYLE_FILL_AREA ( #486 ) ;
#885 = CARTESIAN_POINT ( 'NONE',  ( 1.449953205709259896, 3.770954161102480384, 0.000000000000000000 ) ) ;
#886 = ORIENTED_EDGE ( 'NONE', *, *, #639, .T. ) ;
#887 = ADVANCED_FACE ( 'NONE', ( #431 ), #1046, .T. ) ;
#888 = APPLICATION_CONTEXT ( 'automotive_design' ) ;
#889 = VECTOR ( 'NONE', #454, 1000.000000000000000 ) ;
#890 = VECTOR ( 'NONE', #770, 1000.000000000000000 ) ;
#891 = PRODUCT_DEFINITION_FORMATION_WITH_SPECIFIED_SOURCE ( 'ANY', '', #1022, .NOT_KNOWN. ) ;
#892 = DIRECTION ( 'NONE',  ( 0.000000000000000000, 1.000000000000000000, 0.000000000000000000 ) ) ;
#893 = AXIS2_PLACEMENT_3D ( 'NONE', #428, #585, #915 ) ;
#894 = VERTEX_POINT ( 'NONE', #286 ) ;
#895 = SURFACE_STYLE_FILL_AREA ( #656 ) ;
#896 = VERTEX_POINT ( 'NONE', #544 ) ;
#897 = SHAPE_REPRESENTATION ( '??1^GX_SX_CX_HX(2)_EEFKX0D471RB', ( #512 ), #631 ) ;
#898 = CARTESIAN_POINT ( 'NONE',  ( 3.415282859545279770, 2.448799242126310283, 0.1000000000000000056 ) ) ;
#899 = DIRECTION ( 'NONE',  ( 0.000000000000000000, -1.000000000000000000, 0.000000000000000000 ) ) ;
#900 = ORIENTED_EDGE ( 'NONE', *, *, #667, .F. ) ;
#901 = STYLED_ITEM ( 'NONE', ( #787 ), #970 ) ;
#902 = EDGE_CURVE ( 'NONE', #523, #12, #872, .T. ) ;
#903 = CARTESIAN_POINT ( 'NONE',  ( 0.1000000000000000056, 2.399999999999999911, 0.9000000000000000222 ) ) ;
#904 = CARTESIAN_POINT ( 'NONE',  ( 2.785782859545280044, 1.248799242126309883, 0.000000000000000000 ) ) ;
#905 = ORIENTED_EDGE ( 'NONE', *, *, #18, .F. ) ;
#906 = ORIENTED_EDGE ( 'NONE', *, *, #29, .T. ) ;
#907 = PLANE ( 'NONE',  #511 ) ;
#908 =( NAMED_UNIT ( * ) SI_UNIT ( $, .STERADIAN. ) SOLID_ANGLE_UNIT ( ) );
#909 = UNCERTAINTY_MEASURE_WITH_UNIT (LENGTH_MEASURE( 1.000000000000000082E-05 ), #682, 'distance_accuracy_value', 'NONE');
#910 = DIRECTION ( 'NONE',  ( 1.000000000000000000, 0.000000000000000000, 0.000000000000000000 ) ) ;
#911 = EDGE_CURVE ( 'NONE', #115, #811, #539, .T. ) ;
#912 = ORIENTED_EDGE ( 'NONE', *, *, #617, .T. ) ;
#913 = DIRECTION ( 'NONE',  ( 1.000000000000000000, 0.000000000000000000, 0.000000000000000000 ) ) ;
#914 = PRODUCT_DEFINITION_SHAPE ( 'NONE', 'NONE',  #1083 ) ;
#915 = DIRECTION ( 'NONE',  ( 1.000000000000000000, 0.000000000000000000, 0.000000000000000000 ) ) ;
#916 = ORIENTED_EDGE ( 'NONE', *, *, #118, .F. ) ;
#917 = EDGE_CURVE ( 'NONE', #678, #701, #944, .T. ) ;
#918 = LINE ( 'NONE', #1031, #840 ) ;
#919 = VECTOR ( 'NONE', #657, 1000.000000000000000 ) ;
#920 = CARTESIAN_POINT ( 'NONE',  ( 3.944782859545280296, 1.248799242126309883, 0.1000000000000000056 ) ) ;
#921 = VERTEX_POINT ( 'NONE', #782 ) ;
#922 = VECTOR ( 'NONE', #105, 1000.000000000000000 ) ;
#923 = EDGE_CURVE ( 'NONE', #151, #98, #10, .T. ) ;
#924 = CONTEXT_DEPENDENT_SHAPE_REPRESENTATION ( #221, #914 ) ;
#925 = DIRECTION ( 'NONE',  ( 0.000000000000000000, 0.000000000000000000, 1.000000000000000000 ) ) ;
#926 = FILL_AREA_STYLE ('',( #180 ) ) ;
#927 = CARTESIAN_POINT ( 'NONE',  ( 7.540953205709260310, 1.370954161102480029, 0.000000000000000000 ) ) ;
#928 = EDGE_LOOP ( 'NONE', ( #568, #167, #375, #555, #709, #92 ) ) ;
#929 = DIRECTION ( 'NONE',  ( 0.000000000000000000, 0.000000000000000000, 1.000000000000000000 ) ) ;
#930 = PLANE ( 'NONE',  #705 ) ;
#931 = DIRECTION ( 'NONE',  ( 0.000000000000000000, 1.000000000000000000, 0.000000000000000000 ) ) ;
#932 = APPLICATION_PROTOCOL_DEFINITION ( 'draft international standard', 'automotive_design', 1998, #466 ) ;
#933 = PLANE ( 'NONE',  #1064 ) ;
#934 = SHAPE_REPRESENTATION_RELATIONSHIP ( 'NONE' , 'NONE' ,  #178, #970 ) ;
#935 = EDGE_CURVE ( 'NONE', #962, #54, #263, .T. ) ;
#936 = EDGE_LOOP ( 'NONE', ( #877, #805, #440, #259 ) ) ;
#937 =( GEOMETRIC_REPRESENTATION_CONTEXT ( 3 ) GLOBAL_UNCERTAINTY_ASSIGNED_CONTEXT ( ( #177 ) ) GLOBAL_UNIT_ASSIGNED_CONTEXT ( ( #290, #371, #526 ) ) REPRESENTATION_CONTEXT ( 'NONE', 'WORKASPACE' ) );
#938 = ORIENTED_EDGE ( 'NONE', *, *, #730, .F. ) ;
#939 = PLANE ( 'NONE',  #49 ) ;
#940 = PRESENTATION_LAYER_ASSIGNMENT (  '', '', ( #993 ) ) ;
#941 = LINE ( 'NONE', #532, #564 ) ;
#942 = EDGE_LOOP ( 'NONE', ( #755, #1058, #718, #871 ) ) ;
#943 = VERTEX_POINT ( 'NONE', #130 ) ;
#944 = LINE ( 'NONE', #797, #791 ) ;
#945 = LINE ( 'NONE', #384, #210 ) ;
#946 = FILL_AREA_STYLE ('',( #622 ) ) ;
#947 = VERTEX_POINT ( 'NONE', #341 ) ;
#948 = DIRECTION ( 'NONE',  ( 0.000000000000000000, 0.000000000000000000, -1.000000000000000000 ) ) ;
#949 = ADVANCED_FACE ( 'NONE', ( #864 ), #939, .F. ) ;
#950 = LINE ( 'NONE', #883, #684 ) ;
#951 =( LENGTH_UNIT ( ) NAMED_UNIT ( * ) SI_UNIT ( .MILLI., .METRE. ) );
#952 = LINE ( 'NONE', #223, #32 ) ;
#953 = ORIENTED_EDGE ( 'NONE', *, *, #500, .F. ) ;
#954 = AXIS2_PLACEMENT_3D ( 'NONE', #722, #1042, #626 ) ;
#955 = CARTESIAN_POINT ( 'NONE',  ( 2.785782859545280044, 3.648799242126309572, 0.000000000000000000 ) ) ;
#956 = VECTOR ( 'NONE', #219, 1000.000000000000000 ) ;
#957 = PRODUCT_RELATED_PRODUCT_CATEGORY ( 'part', '', ( #834 ) ) ;
#958 = VECTOR ( 'NONE', #1065, 1000.000000000000000 ) ;
#959 = DIRECTION ( 'NONE',  ( -1.000000000000000000, 0.000000000000000000, 0.000000000000000000 ) ) ;
#960 =( LENGTH_UNIT ( ) NAMED_UNIT ( * ) SI_UNIT ( .MILLI., .METRE. ) );
#961 = CARTESIAN_POINT ( 'NONE',  ( 1.399953205709259851, 3.770954161102480384, 0.1000000000000000056 ) ) ;
#962 = VERTEX_POINT ( 'NONE', #324 ) ;
#963 = CARTESIAN_POINT ( 'NONE',  ( 1.449953205709259896, 4.720954161102479674, 0.000000000000000000 ) ) ;
#964 = SHAPE_REPRESENTATION_RELATIONSHIP ( 'NONE' , 'NONE' ,  #817, #288 ) ;
#965 = EDGE_CURVE ( 'NONE', #1078, #967, #652, .T. ) ;
#966 = DIRECTION ( 'NONE',  ( 1.000000000000000000, 0.000000000000000000, 0.000000000000000000 ) ) ;
#967 = VERTEX_POINT ( 'NONE', #388 ) ;
#968 = LINE ( 'NONE', #632, #369 ) ;
#969 =( NAMED_UNIT ( * ) PLANE_ANGLE_UNIT ( ) SI_UNIT ( $, .RADIAN. ) );
#970 = ADVANCED_BREP_SHAPE_REPRESENTATION ( '', ( #28, #512 ), #461 ) ;
#971 = CARTESIAN_POINT ( 'NONE',  ( 1.449953205709259896, 1.370954161102480029, 0.000000000000000000 ) ) ;
#972 = PRODUCT_DEFINITION ( 'UNKNOWN', '', #736, #280 ) ;
#973 = EDGE_LOOP ( 'NONE', ( #415, #316, #476, #82, #110, #670, #953, #175 ) ) ;
#974 = AXIS2_PLACEMENT_3D ( 'NONE', #2, #203, #629 ) ;
#975 = VECTOR ( 'NONE', #491, 1000.000000000000000 ) ;
#976 = VECTOR ( 'NONE', #979, 1000.000000000000000 ) ;
#977 = PRESENTATION_LAYER_ASSIGNMENT (  '', '', ( #373 ) ) ;
#978 = COLOUR_RGB ( '',0.6392156862745097534, 0.6392156862745097534, 0.6862745098039215730 ) ;
#979 = DIRECTION ( 'NONE',  ( 1.000000000000000000, 0.000000000000000000, 0.000000000000000000 ) ) ;
#980 = ORIENTED_EDGE ( 'NONE', *, *, #1056, .T. ) ;
#981 = DIRECTION ( 'NONE',  ( 0.000000000000000000, 0.000000000000000000, 1.000000000000000000 ) ) ;
#982 = ORIENTED_EDGE ( 'NONE', *, *, #1025, .T. ) ;
#983 = EDGE_CURVE ( 'NONE', #844, #272, #483, .T. ) ;
#984 =( NAMED_UNIT ( * ) SI_UNIT ( $, .STERADIAN. ) SOLID_ANGLE_UNIT ( ) );
#985 =( LENGTH_UNIT ( ) NAMED_UNIT ( * ) SI_UNIT ( .MILLI., .METRE. ) );
#986 = PRESENTATION_STYLE_ASSIGNMENT (( #489 ) ) ;
#987 = ORIENTED_EDGE ( 'NONE', *, *, #395, .F. ) ;
#988 = ORIENTED_EDGE ( 'NONE', *, *, #157, .T. ) ;
#989 = FACE_OUTER_BOUND ( 'NONE', #773, .T. ) ;
#990 = VECTOR ( 'NONE', #879, 1000.000000000000000 ) ;
#991 = LINE ( 'NONE', #166, #174 ) ;
#992 = CARTESIAN_POINT ( 'NONE',  ( 1.300000000000000044, 2.399999999999999911, 0.000000000000000000 ) ) ;
#993 = STYLED_ITEM ( 'NONE', ( #542 ), #28 ) ;
#994 = VERTEX_POINT ( 'NONE', #830 ) ;
#995 = FACE_OUTER_BOUND ( 'NONE', #973, .T. ) ;
#996 = DIRECTION ( 'NONE',  ( 1.000000000000000000, 0.000000000000000000, 0.000000000000000000 ) ) ;
#997 = CARTESIAN_POINT ( 'NONE',  ( 1.300000000000000044, 0.000000000000000000, 0.000000000000000000 ) ) ;
#998 = EDGE_CURVE ( 'NONE', #271, #115, #494, .T. ) ;
#999 = VERTEX_POINT ( 'NONE', #70 ) ;
#1000 = CARTESIAN_POINT ( 'NONE',  ( 3.415282859545279770, 2.448799242126310283, 0.000000000000000000 ) ) ;
#1001 = LINE ( 'NONE', #417, #958 ) ;
#1002 = LINE ( 'NONE', #518, #592 ) ;
#1003 = ORIENTED_EDGE ( 'NONE', *, *, #935, .F. ) ;
#1004 = ADVANCED_FACE ( 'NONE', ( #173 ), #332, .F. ) ;
#1005 = ORIENTED_EDGE ( 'NONE', *, *, #330, .F. ) ;
#1006 = DIRECTION ( 'NONE',  ( -1.000000000000000000, 0.000000000000000000, 0.000000000000000000 ) ) ;
#1007 = PRODUCT_CONTEXT ( 'NONE', #141, 'mechanical' ) ;
#1008 = VECTOR ( 'NONE', #65, 1000.000000000000000 ) ;
#1009 = DIRECTION ( 'NONE',  ( 1.000000000000000000, 0.000000000000000000, 0.000000000000000000 ) ) ;
#1010 =( GEOMETRIC_REPRESENTATION_CONTEXT ( 3 ) GLOBAL_UNCERTAINTY_ASSIGNED_CONTEXT ( ( #648 ) ) GLOBAL_UNIT_ASSIGNED_CONTEXT ( ( #985, #747, #908 ) ) REPRESENTATION_CONTEXT ( 'NONE', 'WORKASPACE' ) );
#1011 =( NAMED_UNIT ( * ) SI_UNIT ( $, .STERADIAN. ) SOLID_ANGLE_UNIT ( ) );
#1012 = VECTOR ( 'NONE', #644, 1000.000000000000000 ) ;
#1013 =( GEOMETRIC_REPRESENTATION_CONTEXT ( 3 ) GLOBAL_UNCERTAINTY_ASSIGNED_CONTEXT ( ( #450 ) ) GLOBAL_UNIT_ASSIGNED_CONTEXT ( ( #835, #859, #184 ) ) REPRESENTATION_CONTEXT ( 'NONE', 'WORKASPACE' ) );
#1014 = FACE_OUTER_BOUND ( 'NONE', #942, .T. ) ;
#1015 = FILL_AREA_STYLE_COLOUR ( '', #212 ) ;
#1016 = CARTESIAN_POINT ( 'NONE',  ( 8.749953205709260828, 0.4209541611024799623, 0.000000000000000000 ) ) ;
#1017 = ORIENTED_EDGE ( 'NONE', *, *, #145, .T. ) ;
#1018 = DIRECTION ( 'NONE',  ( 1.000000000000000000, 0.000000000000000000, 0.000000000000000000 ) ) ;
#1019 = UNCERTAINTY_MEASURE_WITH_UNIT (LENGTH_MEASURE( 1.000000000000000082E-05 ), #113, 'distance_accuracy_value', 'NONE');
#1020 = CARTESIAN_POINT ( 'NONE',  ( 8.749953205709260828, 4.720954161102479674, 0.000000000000000000 ) ) ;
#1021 = LINE ( 'NONE', #106, #63 ) ;
#1022 = PRODUCT ( 'GX_SX_CX_HX(2)^EEFKX0D471RB', 'GX_SX_CX_HX(2)^EEFKX0D471RB', '', ( #784 ) ) ;
#1023 = ORIENTED_EDGE ( 'NONE', *, *, #707, .F. ) ;
#1024 = SHAPE_DEFINITION_REPRESENTATION ( #455, #897 ) ;
#1025 = EDGE_CURVE ( 'NONE', #967, #144, #675, .T. ) ;
#1026 = DIRECTION ( 'NONE',  ( 1.000000000000000000, 0.000000000000000000, 0.000000000000000000 ) ) ;
#1027 = VECTOR ( 'NONE', #869, 1000.000000000000000 ) ;
#1028 = VECTOR ( 'NONE', #121, 1000.000000000000000 ) ;
#1029 = STYLED_ITEM ( 'NONE', ( #270 ), #408 ) ;
#1030 = ORIENTED_EDGE ( 'NONE', *, *, #540, .T. ) ;
#1031 = CARTESIAN_POINT ( 'NONE',  ( 8.749953205709260828, 3.770954161102480384, 0.000000000000000000 ) ) ;
#1032 = AXIS2_PLACEMENT_3D ( 'NONE', #254, #1070, #910 ) ;
#1033 =( NAMED_UNIT ( * ) PLANE_ANGLE_UNIT ( ) SI_UNIT ( $, .RADIAN. ) );
#1034 = UNCERTAINTY_MEASURE_WITH_UNIT (LENGTH_MEASURE( 1.000000000000000082E-05 ), #616, 'distance_accuracy_value', 'NONE');
#1035 = DIRECTION ( 'NONE',  ( -0.000000000000000000, 1.000000000000000000, 0.000000000000000000 ) ) ;
#1036 = DIRECTION ( 'NONE',  ( 0.000000000000000000, 0.000000000000000000, 1.000000000000000000 ) ) ;
#1037 = LINE ( 'NONE', #537, #392 ) ;
#1038 = EDGE_CURVE ( 'NONE', #158, #862, #75, .T. ) ;
#1039 = APPLICATION_CONTEXT ( 'automotive_design' ) ;
#1040 = ORIENTED_EDGE ( 'NONE', *, *, #856, .F. ) ;
#1041 = LINE ( 'NONE', #382, #771 ) ;
#1042 = DIRECTION ( 'NONE',  ( -2.135044278125299864E-16, -1.000000000000000000, 0.000000000000000000 ) ) ;
#1043 = DIRECTION ( 'NONE',  ( 0.000000000000000000, 0.000000000000000000, 1.000000000000000000 ) ) ;
#1044 = EDGE_LOOP ( 'NONE', ( #628, #1003, #345, #386 ) ) ;
#1045 = EDGE_CURVE ( 'NONE', #124, #583, #1002, .T. ) ;
#1046 = PLANE ( 'NONE',  #974 ) ;
#1047 = DIRECTION ( 'NONE',  ( 1.000000000000000000, 0.000000000000000000, 0.000000000000000000 ) ) ;
#1048 = DIRECTION ( 'NONE',  ( 0.000000000000000000, 0.000000000000000000, 1.000000000000000000 ) ) ;
#1049 = ORIENTED_EDGE ( 'NONE', *, *, #138, .T. ) ;
#1050 = AXIS2_PLACEMENT_3D ( 'NONE', #1059, #833, #913 ) ;
#1051 = ADVANCED_FACE ( 'NONE', ( #509 ), #505, .T. ) ;
#1052 = DIRECTION ( 'NONE',  ( 0.000000000000000000, 0.000000000000000000, 1.000000000000000000 ) ) ;
#1053 = PLANE ( 'NONE',  #213 ) ;
#1054 = ORIENTED_EDGE ( 'NONE', *, *, #164, .F. ) ;
#1055 = DIRECTION ( 'NONE',  ( -0.000000000000000000, 1.000000000000000000, 0.000000000000000000 ) ) ;
#1056 = EDGE_CURVE ( 'NONE', #1078, #603, #162, .T. ) ;
#1057 = CARTESIAN_POINT ( 'NONE',  ( 7.540953205709260310, 1.370954161102480029, 0.1000000000000000056 ) ) ;
#1058 = ORIENTED_EDGE ( 'NONE', *, *, #617, .F. ) ;
#1059 = CARTESIAN_POINT ( 'NONE',  ( 0.000000000000000000, 2.399999999999999911, 0.000000000000000000 ) ) ;
#1060 = CARTESIAN_POINT ( 'NONE',  ( 4.044782859545280829, 3.648799242126309572, 0.1000000000000000056 ) ) ;
#1061 = VERTEX_POINT ( 'NONE', #663 ) ;
#1062 = VECTOR ( 'NONE', #590, 1000.000000000000000 ) ;
#1063 = LINE ( 'NONE', #827, #664 ) ;
#1064 = AXIS2_PLACEMENT_3D ( 'NONE', #775, #434, #615 ) ;
#1065 = DIRECTION ( 'NONE',  ( 0.000000000000000000, 0.000000000000000000, 1.000000000000000000 ) ) ;
#1066 = VERTEX_POINT ( 'NONE', #904 ) ;
#1067 = EDGE_CURVE ( 'NONE', #158, #241, #849, .T. ) ;
#1068 = DIRECTION ( 'NONE',  ( 0.000000000000000000, 1.000000000000000000, 0.000000000000000000 ) ) ;
#1069 = DIRECTION ( 'NONE',  ( 0.000000000000000000, 0.000000000000000000, 1.000000000000000000 ) ) ;
#1070 = DIRECTION ( 'NONE',  ( -0.000000000000000000, 1.000000000000000000, 0.000000000000000000 ) ) ;
#1071 = EDGE_LOOP ( 'NONE', ( #235, #413, #458, #777 ) ) ;
#1072 = ADVANCED_FACE ( 'NONE', ( #839 ), #744, .T. ) ;
#1073 = EDGE_LOOP ( 'NONE', ( #453, #796, #658, #22 ) ) ;
#1074 =( NAMED_UNIT ( * ) PLANE_ANGLE_UNIT ( ) SI_UNIT ( $, .RADIAN. ) );
#1075 = UNCERTAINTY_MEASURE_WITH_UNIT (LENGTH_MEASURE( 1.000000000000000082E-05 ), #951, 'distance_accuracy_value', 'NONE');
#1076 = FACE_OUTER_BOUND ( 'NONE', #419, .T. ) ;
#1077 = DIRECTION ( 'NONE',  ( 0.000000000000000000, 0.000000000000000000, 1.000000000000000000 ) ) ;
#1078 = VERTEX_POINT ( 'NONE', #766 ) ;
#1079 = EDGE_CURVE ( 'NONE', #220, #551, #669, .T. ) ;
#1080 = EDGE_LOOP ( 'NONE', ( #133, #850, #447, #103 ) ) ;
#1081 = NEXT_ASSEMBLY_USAGE_OCCURRENCE ( 'NAUO1', ' ', ' ', #107, #624, $ ) ;
#1082 = NEXT_ASSEMBLY_USAGE_OCCURRENCE ( 'NAUO2', ' ', ' ', #624, #785, $ ) ;
#1083 = NEXT_ASSEMBLY_USAGE_OCCURRENCE ( 'NAUO3', ' ', ' ', #624, #972, $ ) ;
#1084 = NEXT_ASSEMBLY_USAGE_OCCURRENCE ( 'NAUO4', ' ', ' ', #624, #545, $ ) ;
ENDSEC;
END-ISO-10303-21;
