ISO-10303-21;
HEADER;
FILE_DESCRIPTION (( 'STEP AP214' ),
    '1' );
FILE_NAME ('WLA.10_Web.STEP',
    '2021-03-04T11:51:05',
    ( 'localadmin' ),
    ( '' ),
    'SwSTEP 2.0',
    'SolidWorks 2018',
    '' );
FILE_SCHEMA (( 'AUTOMOTIVE_DESIGN' ));
ENDSEC;

DATA;
#1 =( LENGTH_UNIT ( ) NAMED_UNIT ( * ) SI_UNIT ( .MILLI., .METRE. ) );
#2 = EDGE_CURVE ( 'NONE', #430, #661, #195, .T. ) ;
#3 = CARTESIAN_POINT ( 'NONE',  ( -1.599999999999997202, -0.001000000000000024307, -0.8000000000000020428 ) ) ;
#4 = ORIENTED_EDGE ( 'NONE', *, *, #519, .T. ) ;
#5 = DIRECTION ( 'NONE',  ( 0.0000000000000000000, -1.000000000000000000, -0.0000000000000000000 ) ) ;
#6 = CARTESIAN_POINT ( 'NONE',  ( 1.200000000000002842, 0.5010000000000000009, -0.8000000000000020428 ) ) ;
#7 = ORIENTED_EDGE ( 'NONE', *, *, #2, .T. ) ;
#8 = CARTESIAN_POINT ( 'NONE',  ( -1.199999999999997291, 0.5010000000000000009, -0.8000000000000020428 ) ) ;
#9 = PLANE ( 'NONE',  #647 ) ;
#10 = LINE ( 'NONE', #546, #410 ) ;
#11 = COLOUR_RGB ( '',1.000000000000000000, 1.000000000000000000, 1.000000000000000000 ) ;
#12 = CARTESIAN_POINT ( 'NONE',  ( -0.4999999999999975020, 0.4989999999999999991, -0.6000000000000003109 ) ) ;
#13 = VERTEX_POINT ( 'NONE', #99 ) ;
#14 = EDGE_CURVE ( 'NONE', #432, #390, #375, .T. ) ;
#15 = DIRECTION ( 'NONE',  ( 0.0000000000000000000, 1.000000000000000000, 0.0000000000000000000 ) ) ;
#16 = PLANE ( 'NONE',  #597 ) ;
#17 =( LENGTH_UNIT ( ) NAMED_UNIT ( * ) SI_UNIT ( .MILLI., .METRE. ) );
#18 = CARTESIAN_POINT ( 'NONE',  ( 0.0000000000000000000, 0.5000000000000000000, 0.0000000000000000000 ) ) ;
#19 = ORIENTED_EDGE ( 'NONE', *, *, #154, .F. ) ;
#20 = ORIENTED_EDGE ( 'NONE', *, *, #216, .F. ) ;
#21 = DIRECTION ( 'NONE',  ( -0.0000000000000000000, -1.000000000000000000, -0.0000000000000000000 ) ) ;
#22 = PRESENTATION_STYLE_ASSIGNMENT (( #494 ) ) ;
#23 = VECTOR ( 'NONE', #675, 1000.000000000000000 ) ;
#24 = LINE ( 'NONE', #152, #280 ) ;
#25 = CARTESIAN_POINT ( 'NONE',  ( -1.199999999999996625, 0.0000000000000000000, 0.7999999999999986011 ) ) ;
#26 = FACE_OUTER_BOUND ( 'NONE', #147, .T. ) ;
#27 = EDGE_CURVE ( 'NONE', #101, #354, #24, .T. ) ;
#28 = DIRECTION ( 'NONE',  ( 1.000000000000000000, 0.0000000000000000000, -5.421010862427524142E-16 ) ) ;
#29 = ORIENTED_EDGE ( 'NONE', *, *, #197, .T. ) ;
#30 = SURFACE_STYLE_FILL_AREA ( #569 ) ;
#31 = ADVANCED_FACE ( 'NONE', ( #142 ), #388, .F. ) ;
#32 =( LENGTH_UNIT ( ) NAMED_UNIT ( * ) SI_UNIT ( .MILLI., .METRE. ) );
#33 = AXIS2_PLACEMENT_3D ( 'NONE', #12, #460, #505 ) ;
#34 = SURFACE_SIDE_STYLE ('',( #30 ) ) ;
#35 = ORIENTED_EDGE ( 'NONE', *, *, #547, .T. ) ;
#36 = PLANE ( 'NONE',  #224 ) ;
#37 = EDGE_CURVE ( 'NONE', #54, #13, #526, .T. ) ;
#38 = ORIENTED_EDGE ( 'NONE', *, *, #693, .F. ) ;
#39 = ORIENTED_EDGE ( 'NONE', *, *, #585, .T. ) ;
#40 = LINE ( 'NONE', #274, #593 ) ;
#41 = VECTOR ( 'NONE', #276, 1000.000000000000000 ) ;
#42 = PRODUCT_DEFINITION ( 'UNKNOWN', '', #73, #471 ) ;
#43 =( NAMED_UNIT ( * ) PLANE_ANGLE_UNIT ( ) SI_UNIT ( $, .RADIAN. ) );
#44 = ORIENTED_EDGE ( 'NONE', *, *, #304, .T. ) ;
#45 = CARTESIAN_POINT ( 'NONE',  ( -1.099999999999997424, 0.4989999999999999991, -0.6000000000000001998 ) ) ;
#46 = VECTOR ( 'NONE', #424, 1000.000000000000000 ) ;
#47 = EDGE_CURVE ( 'NONE', #523, #166, #155, .T. ) ;
#48 = ORIENTED_EDGE ( 'NONE', *, *, #406, .F. ) ;
#49 = CARTESIAN_POINT ( 'NONE',  ( 0.0000000000000000000, -0.001000000000000000021, 0.0000000000000000000 ) ) ;
#50 = ORIENTED_EDGE ( 'NONE', *, *, #409, .T. ) ;
#51 = ORIENTED_EDGE ( 'NONE', *, *, #367, .T. ) ;
#52 = CARTESIAN_POINT ( 'NONE',  ( 0.0000000000000000000, 0.5010000000000000009, -0.8000000000000020428 ) ) ;
#53 = AXIS2_PLACEMENT_3D ( 'NONE', #256, #139, #685 ) ;
#54 = VERTEX_POINT ( 'NONE', #446 ) ;
#55 = FILL_AREA_STYLE_COLOUR ( '', #642 ) ;
#56 = ORIENTED_EDGE ( 'NONE', *, *, #560, .T. ) ;
#57 = EDGE_CURVE ( 'NONE', #414, #13, #631, .T. ) ;
#58 = ORIENTED_EDGE ( 'NONE', *, *, #93, .F. ) ;
#59 = ORIENTED_EDGE ( 'NONE', *, *, #573, .F. ) ;
#60 = CARTESIAN_POINT ( 'NONE',  ( 1.200000000000002842, -0.001000000000000018235, 0.7999999999999984901 ) ) ;
#61 =( GEOMETRIC_REPRESENTATION_CONTEXT ( 3 ) GLOBAL_UNCERTAINTY_ASSIGNED_CONTEXT ( ( #296 ) ) GLOBAL_UNIT_ASSIGNED_CONTEXT ( ( #248, #43, #584 ) ) REPRESENTATION_CONTEXT ( 'NONE', 'WORKASPACE' ) );
#62 = CARTESIAN_POINT ( 'NONE',  ( 0.0000000000000000000, -0.001000000000000000021, 0.7999999999999986011 ) ) ;
#63 = ORIENTED_EDGE ( 'NONE', *, *, #117, .T. ) ;
#64 = DIRECTION ( 'NONE',  ( 1.355252715606880049E-16, 0.0000000000000000000, -1.000000000000000000 ) ) ;
#65 = ADVANCED_FACE ( 'NONE', ( #393 ), #688, .F. ) ;
#66 = ORIENTED_EDGE ( 'NONE', *, *, #677, .F. ) ;
#67 = EDGE_CURVE ( 'NONE', #570, #348, #485, .T. ) ;
#68 = CARTESIAN_POINT ( 'NONE',  ( -0.4999999999999975020, 0.5000000000000000000, -0.6000000000000003109 ) ) ;
#69 = LINE ( 'NONE', #156, #255 ) ;
#70 = CARTESIAN_POINT ( 'NONE',  ( -1.199999999999997291, 0.5010000000000000009, -0.8000000000000020428 ) ) ;
#71 = VECTOR ( 'NONE', #295, 1000.000000000000000 ) ;
#72 = CARTESIAN_POINT ( 'NONE',  ( -0.4999999999999975020, 0.4989999999999999991, -0.6000000000000003109 ) ) ;
#73 = PRODUCT_DEFINITION_FORMATION_WITH_SPECIFIED_SOURCE ( 'ANY', '', #438, .NOT_KNOWN. ) ;
#74 = DIRECTION ( 'NONE',  ( -2.710505431213762071E-16, 0.0000000000000000000, -1.000000000000000000 ) ) ;
#75 = ORIENTED_EDGE ( 'NONE', *, *, #626, .F. ) ;
#76 = ORIENTED_EDGE ( 'NONE', *, *, #205, .T. ) ;
#77 = LINE ( 'NONE', #476, #594 ) ;
#78 = ORIENTED_EDGE ( 'NONE', *, *, #57, .T. ) ;
#79 = DIRECTION ( 'NONE',  ( 1.000000000000000000, -0.0000000000000000000, 1.355252715606880049E-16 ) ) ;
#80 = EDGE_CURVE ( 'NONE', #619, #570, #77, .T. ) ;
#81 = DIRECTION ( 'NONE',  ( 0.0000000000000000000, 1.000000000000000000, -0.0000000000000000000 ) ) ;
#82 = UNCERTAINTY_MEASURE_WITH_UNIT (LENGTH_MEASURE( 1.000000000000000082E-05 ), #32, 'distance_accuracy_value', 'NONE');
#83 = EDGE_LOOP ( 'NONE', ( #369, #510, #270, #341 ) ) ;
#84 = ORIENTED_EDGE ( 'NONE', *, *, #394, .T. ) ;
#85 = PRESENTATION_STYLE_ASSIGNMENT (( #690 ) ) ;
#86 = VECTOR ( 'NONE', #219, 1000.000000000000000 ) ;
#87 = COLOUR_RGB ( '',0.5019607843137254832, 0.5019607843137254832, 0.5019607843137254832 ) ;
#88 = PRESENTATION_LAYER_ASSIGNMENT (  '', '', ( #309 ) ) ;
#89 = CARTESIAN_POINT ( 'NONE',  ( -0.4999999999999975020, 0.4989999999999999991, -0.6000000000000003109 ) ) ;
#90 = EDGE_LOOP ( 'NONE', ( #493, #135, #378, #63 ) ) ;
#91 = FILL_AREA_STYLE ('',( #201 ) ) ;
#92 = ORIENTED_EDGE ( 'NONE', *, *, #37, .T. ) ;
#93 = EDGE_CURVE ( 'NONE', #109, #159, #131, .T. ) ;
#94 = COLOUR_RGB ( '',0.5019607843137254832, 0.5019607843137254832, 0.5019607843137254832 ) ;
#95 = EDGE_LOOP ( 'NONE', ( #689, #518, #75, #233 ) ) ;
#96 = VERTEX_POINT ( 'NONE', #431 ) ;
#97 = LINE ( 'NONE', #98, #259 ) ;
#98 = CARTESIAN_POINT ( 'NONE',  ( 0.0000000000000000000, 0.0000000000000000000, -0.8000000000000020428 ) ) ;
#99 = CARTESIAN_POINT ( 'NONE',  ( 1.200000000000001954, 0.5000000000000000000, 0.7999999999999986011 ) ) ;
#100 = DIRECTION ( 'NONE',  ( -0.0000000000000000000, 0.0000000000000000000, -1.000000000000000000 ) ) ;
#101 = VERTEX_POINT ( 'NONE', #425 ) ;
#102 = ORIENTED_EDGE ( 'NONE', *, *, #437, .F. ) ;
#103 = CARTESIAN_POINT ( 'NONE',  ( 0.0000000000000000000, 0.5010000000000000009, 0.7999999999999986011 ) ) ;
#104 = LINE ( 'NONE', #6, #86 ) ;
#105 = EDGE_CURVE ( 'NONE', #172, #603, #684, .T. ) ;
#106 = DIRECTION ( 'NONE',  ( 1.000000000000000000, 0.0000000000000000000, -2.710505431213760099E-16 ) ) ;
#107 = CARTESIAN_POINT ( 'NONE',  ( -1.099999999999996980, 0.4989999999999999991, 0.5999999999999997558 ) ) ;
#108 = PRODUCT_RELATED_PRODUCT_CATEGORY ( 'part', '', ( #438 ) ) ;
#109 = VERTEX_POINT ( 'NONE', #8 ) ;
#110 = VERTEX_POINT ( 'NONE', #380 ) ;
#111 = LINE ( 'NONE', #604, #673 ) ;
#112 = PRESENTATION_STYLE_ASSIGNMENT (( #652 ) ) ;
#113 = DIRECTION ( 'NONE',  ( 1.000000000000000000, 0.0000000000000000000, -0.0000000000000000000 ) ) ;
#114 = CARTESIAN_POINT ( 'NONE',  ( 1.600000000000003419, 0.5010000000000000009, -0.8000000000000020428 ) ) ;
#115 = SURFACE_SIDE_STYLE ('',( #539 ) ) ;
#116 = FILL_AREA_STYLE_COLOUR ( '', #287 ) ;
#117 = EDGE_CURVE ( 'NONE', #432, #166, #674, .T. ) ;
#118 = ORIENTED_EDGE ( 'NONE', *, *, #626, .T. ) ;
#119 = CARTESIAN_POINT ( 'NONE',  ( 1.200000000000002842, -0.001000000000000000021, 0.7999999999999986011 ) ) ;
#120 = LINE ( 'NONE', #396, #681 ) ;
#121 = EDGE_LOOP ( 'NONE', ( #343, #608, #217, #555 ) ) ;
#122 = CARTESIAN_POINT ( 'NONE',  ( -0.4999999999999973910, 0.5000000000000000000, 0.5999999999999994227 ) ) ;
#123 = DIRECTION ( 'NONE',  ( 1.000000000000000000, 0.0000000000000000000, 0.0000000000000000000 ) ) ;
#124 = AXIS2_PLACEMENT_3D ( 'NONE', #107, #329, #536 ) ;
#125 = VECTOR ( 'NONE', #496, 1000.000000000000000 ) ;
#126 = FILL_AREA_STYLE ('',( #116 ) ) ;
#127 = EDGE_LOOP ( 'NONE', ( #148, #183, #490, #391, #416, #29, #78, #359, #84, #562, #174, #683 ) ) ;
#128 = CARTESIAN_POINT ( 'NONE',  ( -1.099999999999997424, 0.4989999999999999991, -0.6000000000000001998 ) ) ;
#129 = ORIENTED_EDGE ( 'NONE', *, *, #677, .T. ) ;
#130 = ORIENTED_EDGE ( 'NONE', *, *, #216, .T. ) ;
#131 = LINE ( 'NONE', #651, #521 ) ;
#132 = DIRECTION ( 'NONE',  ( 1.000000000000000000, -0.0000000000000000000, 0.0000000000000000000 ) ) ;
#133 = LINE ( 'NONE', #517, #495 ) ;
#134 = VECTOR ( 'NONE', #229, 1000.000000000000000 ) ;
#135 = ORIENTED_EDGE ( 'NONE', *, *, #662, .F. ) ;
#136 = VECTOR ( 'NONE', #434, 1000.000000000000000 ) ;
#137 = SURFACE_STYLE_FILL_AREA ( #621 ) ;
#138 = VERTEX_POINT ( 'NONE', #640 ) ;
#139 = DIRECTION ( 'NONE',  ( 0.0000000000000000000, 1.000000000000000000, 0.0000000000000000000 ) ) ;
#140 = AXIS2_PLACEMENT_3D ( 'NONE', #435, #330, #277 ) ;
#141 = ADVANCED_FACE ( 'NONE', ( #525 ), #384, .F. ) ;
#142 = FACE_OUTER_BOUND ( 'NONE', #515, .T. ) ;
#143 = FACE_OUTER_BOUND ( 'NONE', #83, .T. ) ;
#144 = EDGE_CURVE ( 'NONE', #529, #303, #457, .T. ) ;
#145 = ORIENTED_EDGE ( 'NONE', *, *, #447, .T. ) ;
#146 = DIRECTION ( 'NONE',  ( -1.355252715606880049E-16, 0.0000000000000000000, 1.000000000000000000 ) ) ;
#147 = EDGE_LOOP ( 'NONE', ( #214, #39, #118, #576 ) ) ;
#148 = ORIENTED_EDGE ( 'NONE', *, *, #117, .F. ) ;
#149 = CARTESIAN_POINT ( 'NONE',  ( 1.600000000000003419, 0.5000000000000000000, -0.8000000000000020428 ) ) ;
#150 = PLANE ( 'NONE',  #331 ) ;
#151 = VECTOR ( 'NONE', #232, 1000.000000000000000 ) ;
#152 = CARTESIAN_POINT ( 'NONE',  ( 1.600000000000003419, 0.5010000000000000009, -0.8000000000000020428 ) ) ;
#153 = APPLICATION_CONTEXT ( 'automotive_design' ) ;
#154 = EDGE_CURVE ( 'NONE', #310, #138, #69, .T. ) ;
#155 = LINE ( 'NONE', #344, #582 ) ;
#156 = CARTESIAN_POINT ( 'NONE',  ( 1.200000000000003064, -0.001000000000000000021, -0.8000000000000021538 ) ) ;
#157 = DIRECTION ( 'NONE',  ( -0.0000000000000000000, -1.000000000000000000, -0.0000000000000000000 ) ) ;
#158 = ORIENTED_EDGE ( 'NONE', *, *, #234, .T. ) ;
#159 = VERTEX_POINT ( 'NONE', #543 ) ;
#160 = DIRECTION ( 'NONE',  ( 1.000000000000000000, 0.0000000000000000000, 0.0000000000000000000 ) ) ;
#161 = CARTESIAN_POINT ( 'NONE',  ( -1.599999999999996980, 0.5010000000000000009, 0.7999999999999986011 ) ) ;
#162 = AXIS2_PLACEMENT_3D ( 'NONE', #654, #164, #392 ) ;
#163 = ORIENTED_EDGE ( 'NONE', *, *, #105, .F. ) ;
#164 = DIRECTION ( 'NONE',  ( -1.000000000000000000, 0.0000000000000000000, 3.614007241618348278E-16 ) ) ;
#165 = LINE ( 'NONE', #448, #151 ) ;
#166 = VERTEX_POINT ( 'NONE', #531 ) ;
#167 = DIRECTION ( 'NONE',  ( -2.710505431213760099E-16, 0.0000000000000000000, -1.000000000000000000 ) ) ;
#168 =( NAMED_UNIT ( * ) SI_UNIT ( $, .STERADIAN. ) SOLID_ANGLE_UNIT ( ) );
#169 = CARTESIAN_POINT ( 'NONE',  ( -1.599999999999996758, 0.5000000000000000000, 0.7999999999999986011 ) ) ;
#170 = MECHANICAL_DESIGN_GEOMETRIC_PRESENTATION_REPRESENTATION (  '', ( #290 ), #260 ) ;
#171 = PLANE ( 'NONE',  #568 ) ;
#172 = VERTEX_POINT ( 'NONE', #325 ) ;
#173 = LINE ( 'NONE', #450, #691 ) ;
#174 = ORIENTED_EDGE ( 'NONE', *, *, #615, .T. ) ;
#175 = VECTOR ( 'NONE', #132, 1000.000000000000000 ) ;
#176 = LINE ( 'NONE', #306, #23 ) ;
#177 = AXIS2_PLACEMENT_3D ( 'NONE', #466, #635, #146 ) ;
#178 = PLANE ( 'NONE',  #350 ) ;
#179 = UNCERTAINTY_MEASURE_WITH_UNIT (LENGTH_MEASURE( 1.000000000000000082E-05 ), #312, 'distance_accuracy_value', 'NONE');
#180 = DIRECTION ( 'NONE',  ( 0.0000000000000000000, -1.000000000000000000, -0.0000000000000000000 ) ) ;
#181 = ORIENTED_EDGE ( 'NONE', *, *, #656, .T. ) ;
#182 = EDGE_CURVE ( 'NONE', #96, #653, #263, .T. ) ;
#183 = ORIENTED_EDGE ( 'NONE', *, *, #14, .T. ) ;
#184 = PLANE ( 'NONE',  #211 ) ;
#185 =( LENGTH_UNIT ( ) NAMED_UNIT ( * ) SI_UNIT ( .MILLI., .METRE. ) );
#186 = CARTESIAN_POINT ( 'NONE',  ( 1.200000000000002842, 0.5010000000000000009, -0.8000000000000020428 ) ) ;
#187 =( GEOMETRIC_REPRESENTATION_CONTEXT ( 3 ) GLOBAL_UNCERTAINTY_ASSIGNED_CONTEXT ( ( #179 ) ) GLOBAL_UNIT_ASSIGNED_CONTEXT ( ( #312, #698, #692 ) ) REPRESENTATION_CONTEXT ( 'NONE', 'WORKASPACE' ) );
#188 = FILL_AREA_STYLE_COLOUR ( '', #11 ) ;
#189 = PRODUCT_DEFINITION_SHAPE ( 'NONE', 'NONE',  #42 ) ;
#190 = FILL_AREA_STYLE_COLOUR ( '', #630 ) ;
#191 = MANIFOLD_SOLID_BREP ( 'NONE', #192 ) ;
#192 = CLOSED_SHELL ( 'NONE', ( #246, #514, #250, #464, #361, #561, #198, #65, #302, #508, #461, #680, #616, #31, #141, #294, #501, #455, #194 ) ) ;
#193 = CARTESIAN_POINT ( 'NONE',  ( 0.0000000000000000000, 0.5010000000000000009, 0.7999999999999986011 ) ) ;
#194 = ADVANCED_FACE ( 'NONE', ( #273 ), #184, .T. ) ;
#195 = LINE ( 'NONE', #45, #46 ) ;
#196 = CARTESIAN_POINT ( 'NONE',  ( -1.199999999999997291, 0.5010000000000000009, -0.8000000000000020428 ) ) ;
#197 = EDGE_CURVE ( 'NONE', #101, #414, #520, .T. ) ;
#198 = ADVANCED_FACE ( 'NONE', ( #318 ), #36, .T. ) ;
#199 = PRESENTATION_STYLE_ASSIGNMENT (( #551 ) ) ;
#200 = PRESENTATION_LAYER_ASSIGNMENT (  '', '', ( #580 ) ) ;
#201 = FILL_AREA_STYLE_COLOUR ( '', #94 ) ;
#202 = CARTESIAN_POINT ( 'NONE',  ( -1.099999999999997424, 0.4989999999999999991, -0.6000000000000001998 ) ) ;
#203 = PRESENTATION_STYLE_ASSIGNMENT (( #421 ) ) ;
#204 = DIRECTION ( 'NONE',  ( 0.0000000000000000000, -0.0000000000000000000, -1.000000000000000000 ) ) ;
#205 = EDGE_CURVE ( 'NONE', #252, #627, #676, .T. ) ;
#206 = LINE ( 'NONE', #611, #504 ) ;
#207 = APPLICATION_PROTOCOL_DEFINITION ( 'draft international standard', 'automotive_design', 1998, #696 ) ;
#208 = FILL_AREA_STYLE_COLOUR ( '', #87 ) ;
#209 = CARTESIAN_POINT ( 'NONE',  ( -1.099999999999996980, 0.5000000000000000000, 0.0000000000000000000 ) ) ;
#210 = DIRECTION ( 'NONE',  ( 0.0000000000000000000, -0.0000000000000000000, 1.000000000000000000 ) ) ;
#211 = AXIS2_PLACEMENT_3D ( 'NONE', #412, #564, #624 ) ;
#212 = LINE ( 'NONE', #3, #136 ) ;
#213 = SHAPE_DEFINITION_REPRESENTATION ( #189, #339 ) ;
#214 = ORIENTED_EDGE ( 'NONE', *, *, #560, .F. ) ;
#215 = FILL_AREA_STYLE ('',( #323 ) ) ;
#216 = EDGE_CURVE ( 'NONE', #603, #138, #332, .T. ) ;
#217 = ORIENTED_EDGE ( 'NONE', *, *, #447, .F. ) ;
#218 = CARTESIAN_POINT ( 'NONE',  ( -0.4999999999999975020, 0.5000000000000000000, 0.0000000000000000000 ) ) ;
#219 = DIRECTION ( 'NONE',  ( -1.355252715606880049E-16, -0.0000000000000000000, 1.000000000000000000 ) ) ;
#220 = LINE ( 'NONE', #243, #658 ) ;
#221 = PLANE ( 'NONE',  #140 ) ;
#222 = UNCERTAINTY_MEASURE_WITH_UNIT (LENGTH_MEASURE( 1.000000000000000082E-05 ), #17, 'distance_accuracy_value', 'NONE');
#223 = FILL_AREA_STYLE ('',( #190 ) ) ;
#224 = AXIS2_PLACEMENT_3D ( 'NONE', #370, #374, #204 ) ;
#225 = PLANE ( 'NONE',  #659 ) ;
#226 = FACE_OUTER_BOUND ( 'NONE', #609, .T. ) ;
#227 = EDGE_LOOP ( 'NONE', ( #407, #44, #363, #320 ) ) ;
#228 = VECTOR ( 'NONE', #686, 1000.000000000000000 ) ;
#229 = DIRECTION ( 'NONE',  ( -1.000000000000000000, -0.0000000000000000000, 0.0000000000000000000 ) ) ;
#230 = DIRECTION ( 'NONE',  ( -1.000000000000000000, -0.0000000000000000000, 0.0000000000000000000 ) ) ;
#231 = ORIENTED_EDGE ( 'NONE', *, *, #205, .F. ) ;
#232 = DIRECTION ( 'NONE',  ( -0.0000000000000000000, 0.0000000000000000000, -1.000000000000000000 ) ) ;
#233 = ORIENTED_EDGE ( 'NONE', *, *, #14, .F. ) ;
#234 = EDGE_CURVE ( 'NONE', #627, #523, #212, .T. ) ;
#235 = CARTESIAN_POINT ( 'NONE',  ( 1.200000000000002842, -0.001000000000000000021, 0.7999999999999984901 ) ) ;
#236 = DIRECTION ( 'NONE',  ( 2.710505431213760099E-16, -0.0000000000000000000, 1.000000000000000000 ) ) ;
#237 = ORIENTED_EDGE ( 'NONE', *, *, #234, .F. ) ;
#238 = VECTOR ( 'NONE', #382, 1000.000000000000000 ) ;
#239 = MECHANICAL_DESIGN_GEOMETRIC_PRESENTATION_REPRESENTATION (  '', ( #580 ), #385 ) ;
#240 =( NAMED_UNIT ( * ) PLANE_ANGLE_UNIT ( ) SI_UNIT ( $, .RADIAN. ) );
#241 = CARTESIAN_POINT ( 'NONE',  ( -1.599999999999996980, -0.001000000000000016067, -0.8000000000000020428 ) ) ;
#242 = FACE_OUTER_BOUND ( 'NONE', #95, .T. ) ;
#243 = CARTESIAN_POINT ( 'NONE',  ( 1.200000000000003064, 0.5000000000000000000, -0.8000000000000020428 ) ) ;
#244 = UNCERTAINTY_MEASURE_WITH_UNIT (LENGTH_MEASURE( 1.000000000000000082E-05 ), #373, 'distance_accuracy_value', 'NONE');
#245 = MECHANICAL_DESIGN_GEOMETRIC_PRESENTATION_REPRESENTATION (  '', ( #468 ), #316 ) ;
#246 = ADVANCED_FACE ( 'NONE', ( #242 ), #649, .F. ) ;
#247 = DIRECTION ( 'NONE',  ( -1.000000000000000000, -0.0000000000000000000, -0.0000000000000000000 ) ) ;
#248 =( LENGTH_UNIT ( ) NAMED_UNIT ( * ) SI_UNIT ( .MILLI., .METRE. ) );
#249 = DIRECTION ( 'NONE',  ( -1.355252715606880049E-16, -0.0000000000000000000, -1.000000000000000000 ) ) ;
#250 = ADVANCED_FACE ( 'NONE', ( #554 ), #311, .F. ) ;
#251 = PRESENTATION_LAYER_ASSIGNMENT (  '', '', ( #492 ) ) ;
#252 = VERTEX_POINT ( 'NONE', #305 ) ;
#253 =( NAMED_UNIT ( * ) PLANE_ANGLE_UNIT ( ) SI_UNIT ( $, .RADIAN. ) );
#254 = FACE_OUTER_BOUND ( 'NONE', #269, .T. ) ;
#255 = VECTOR ( 'NONE', #157, 1000.000000000000000 ) ;
#256 = CARTESIAN_POINT ( 'NONE',  ( 0.0000000000000000000, 0.0000000000000000000, 0.0000000000000000000 ) ) ;
#257 = FACE_OUTER_BOUND ( 'NONE', #346, .T. ) ;
#258 = EDGE_CURVE ( 'NONE', #166, #252, #540, .T. ) ;
#259 = VECTOR ( 'NONE', #442, 1000.000000000000000 ) ;
#260 =( GEOMETRIC_REPRESENTATION_CONTEXT ( 3 ) GLOBAL_UNCERTAINTY_ASSIGNED_CONTEXT ( ( #244 ) ) GLOBAL_UNIT_ASSIGNED_CONTEXT ( ( #373, #420, #589 ) ) REPRESENTATION_CONTEXT ( 'NONE', 'WORKASPACE' ) );
#261 = LINE ( 'NONE', #119, #301 ) ;
#262 = MECHANICAL_DESIGN_GEOMETRIC_PRESENTATION_REPRESENTATION (  '', ( #462 ), #368 ) ;
#263 = LINE ( 'NONE', #667, #398 ) ;
#264 = SURFACE_SIDE_STYLE ('',( #137 ) ) ;
#265 = VECTOR ( 'NONE', #74, 1000.000000000000000 ) ;
#266 = CARTESIAN_POINT ( 'NONE',  ( -1.099999999999996980, 0.4989999999999999991, 0.5999999999999997558 ) ) ;
#267 = VECTOR ( 'NONE', #313, 1000.000000000000000 ) ;
#268 = DIRECTION ( 'NONE',  ( -1.000000000000000000, 0.0000000000000000000, 1.807003620809174139E-16 ) ) ;
#269 = EDGE_LOOP ( 'NONE', ( #19, #655, #300, #237, #4, #59, #376, #452, #283, #129, #356, #130 ) ) ;
#270 = ORIENTED_EDGE ( 'NONE', *, *, #379, .F. ) ;
#271 = EDGE_CURVE ( 'NONE', #661, #619, #427, .T. ) ;
#272 = LINE ( 'NONE', #72, #470 ) ;
#273 = FACE_OUTER_BOUND ( 'NONE', #284, .T. ) ;
#274 = CARTESIAN_POINT ( 'NONE',  ( -1.599999999999997202, 0.5000000000000000000, -0.8000000000000020428 ) ) ;
#275 =( NAMED_UNIT ( * ) SI_UNIT ( $, .STERADIAN. ) SOLID_ANGLE_UNIT ( ) );
#276 = DIRECTION ( 'NONE',  ( 0.0000000000000000000, -0.0000000000000000000, 1.000000000000000000 ) ) ;
#277 = DIRECTION ( 'NONE',  ( 0.0000000000000000000, -0.0000000000000000000, -1.000000000000000000 ) ) ;
#278 = MECHANICAL_DESIGN_GEOMETRIC_PRESENTATION_REPRESENTATION (  '', ( #309 ), #297 ) ;
#279 = VERTEX_POINT ( 'NONE', #321 ) ;
#280 = VECTOR ( 'NONE', #581, 1000.000000000000000 ) ;
#281 = DIRECTION ( 'NONE',  ( 0.0000000000000000000, 0.0000000000000000000, 1.000000000000000000 ) ) ;
#282 = LINE ( 'NONE', #196, #465 ) ;
#283 = ORIENTED_EDGE ( 'NONE', *, *, #437, .T. ) ;
#284 = EDGE_LOOP ( 'NONE', ( #600, #491, #51, #487 ) ) ;
#285 = CARTESIAN_POINT ( 'NONE',  ( 1.200000000000002842, 0.0000000000000000000, -0.8000000000000020428 ) ) ;
#286 = COLOUR_RGB ( '',1.000000000000000000, 1.000000000000000000, 1.000000000000000000 ) ;
#287 = COLOUR_RGB ( '',0.0000000000000000000, 0.0000000000000000000, 1.000000000000000000 ) ;
#288 = FACE_OUTER_BOUND ( 'NONE', #121, .T. ) ;
#289 = CARTESIAN_POINT ( 'NONE',  ( 1.200000000000002620, 0.5000000000000000000, -0.8000000000000020428 ) ) ;
#290 = STYLED_ITEM ( 'NONE', ( #445 ), #65 ) ;
#291 = DIRECTION ( 'NONE',  ( 1.000000000000000000, 0.0000000000000000000, -0.0000000000000000000 ) ) ;
#292 = DIRECTION ( 'NONE',  ( 0.0000000000000000000, 1.000000000000000000, -0.0000000000000000000 ) ) ;
#293 = EDGE_CURVE ( 'NONE', #653, #348, #574, .T. ) ;
#294 = ADVANCED_FACE ( 'NONE', ( #143 ), #150, .F. ) ;
#295 = DIRECTION ( 'NONE',  ( 0.0000000000000000000, 1.000000000000000000, 0.0000000000000000000 ) ) ;
#296 = UNCERTAINTY_MEASURE_WITH_UNIT (LENGTH_MEASURE( 1.000000000000000082E-05 ), #248, 'distance_accuracy_value', 'NONE');
#297 =( GEOMETRIC_REPRESENTATION_CONTEXT ( 3 ) GLOBAL_UNCERTAINTY_ASSIGNED_CONTEXT ( ( #82 ) ) GLOBAL_UNIT_ASSIGNED_CONTEXT ( ( #32, #670, #353 ) ) REPRESENTATION_CONTEXT ( 'NONE', 'WORKASPACE' ) );
#298 = FILL_AREA_STYLE ('',( #188 ) ) ;
#299 = ORIENTED_EDGE ( 'NONE', *, *, #656, .F. ) ;
#300 = ORIENTED_EDGE ( 'NONE', *, *, #662, .T. ) ;
#301 = VECTOR ( 'NONE', #544, 1000.000000000000000 ) ;
#302 = ADVANCED_FACE ( 'NONE', ( #549 ), #695, .F. ) ;
#303 = VERTEX_POINT ( 'NONE', #575 ) ;
#304 = EDGE_CURVE ( 'NONE', #96, #110, #395, .T. ) ;
#305 = CARTESIAN_POINT ( 'NONE',  ( -1.599999999999996536, -0.001000000000000008044, 0.7999999999999986011 ) ) ;
#306 = CARTESIAN_POINT ( 'NONE',  ( -1.199999999999997291, 0.5000000000000000000, 0.0000000000000000000 ) ) ;
#307 =( LENGTH_UNIT ( ) NAMED_UNIT ( * ) SI_UNIT ( .MILLI., .METRE. ) );
#308 = LINE ( 'NONE', #563, #411 ) ;
#309 = STYLED_ITEM ( 'NONE', ( #199 ), #246 ) ;
#310 = VERTEX_POINT ( 'NONE', #285 ) ;
#311 = PLANE ( 'NONE',  #177 ) ;
#312 =( LENGTH_UNIT ( ) NAMED_UNIT ( * ) SI_UNIT ( .MILLI., .METRE. ) );
#313 = DIRECTION ( 'NONE',  ( 0.0000000000000000000, 1.000000000000000000, 0.0000000000000000000 ) ) ;
#314 = CARTESIAN_POINT ( 'NONE',  ( 0.0000000000000000000, -0.001000000000000000021, -0.8000000000000020428 ) ) ;
#315 =( NAMED_UNIT ( * ) PLANE_ANGLE_UNIT ( ) SI_UNIT ( $, .RADIAN. ) );
#316 =( GEOMETRIC_REPRESENTATION_CONTEXT ( 3 ) GLOBAL_UNCERTAINTY_ASSIGNED_CONTEXT ( ( #222 ) ) GLOBAL_UNIT_ASSIGNED_CONTEXT ( ( #17, #240, #463 ) ) REPRESENTATION_CONTEXT ( 'NONE', 'WORKASPACE' ) );
#317 = ORIENTED_EDGE ( 'NONE', *, *, #406, .T. ) ;
#318 = FACE_OUTER_BOUND ( 'NONE', #345, .T. ) ;
#319 = CARTESIAN_POINT ( 'NONE',  ( 0.0000000000000000000, 0.0000000000000000000, 0.7999999999999986011 ) ) ;
#320 = ORIENTED_EDGE ( 'NONE', *, *, #293, .F. ) ;
#321 = CARTESIAN_POINT ( 'NONE',  ( -1.199999999999996625, 0.0000000000000000000, -0.8000000000000020428 ) ) ;
#322 = ORIENTED_EDGE ( 'NONE', *, *, #693, .T. ) ;
#323 = FILL_AREA_STYLE_COLOUR ( '', #286 ) ;
#324 = ORIENTED_EDGE ( 'NONE', *, *, #409, .F. ) ;
#325 = CARTESIAN_POINT ( 'NONE',  ( 1.600000000000003419, -0.001000000000000008044, 0.7999999999999986011 ) ) ;
#326 = CARTESIAN_POINT ( 'NONE',  ( -1.199999999999996625, -0.001000000000000022789, -0.8000000000000020428 ) ) ;
#327 = DIRECTION ( 'NONE',  ( 1.000000000000000000, 0.0000000000000000000, -0.0000000000000000000 ) ) ;
#328 = PRESENTATION_STYLE_ASSIGNMENT (( #567 ) ) ;
#329 = DIRECTION ( 'NONE',  ( 5.421010862427524142E-16, -0.0000000000000000000, 1.000000000000000000 ) ) ;
#330 = DIRECTION ( 'NONE',  ( 0.0000000000000000000, -1.000000000000000000, 0.0000000000000000000 ) ) ;
#331 = AXIS2_PLACEMENT_3D ( 'NONE', #149, #469, #697 ) ;
#332 = LINE ( 'NONE', #314, #599 ) ;
#333 = DIRECTION ( 'NONE',  ( 0.0000000000000000000, 0.0000000000000000000, -1.000000000000000000 ) ) ;
#334 = EDGE_CURVE ( 'NONE', #310, #279, #97, .T. ) ;
#335 = CARTESIAN_POINT ( 'NONE',  ( 1.200000000000003064, 0.5010000000000000009, -0.8000000000000020428 ) ) ;
#336 = CARTESIAN_POINT ( 'NONE',  ( 1.200000000000002176, 0.5010000000000000009, 0.7999999999999986011 ) ) ;
#337 = ORIENTED_EDGE ( 'NONE', *, *, #340, .T. ) ;
#338 = PLANE ( 'NONE',  #512 ) ;
#339 = ADVANCED_BREP_SHAPE_REPRESENTATION ( 'WLA.10_Web', ( #191, #633 ), #61 ) ;
#340 = EDGE_CURVE ( 'NONE', #348, #110, #441, .T. ) ;
#341 = ORIENTED_EDGE ( 'NONE', *, *, #105, .T. ) ;
#342 = SURFACE_SIDE_STYLE ('',( #672 ) ) ;
#343 = ORIENTED_EDGE ( 'NONE', *, *, #547, .F. ) ;
#344 = CARTESIAN_POINT ( 'NONE',  ( -1.199999999999996847, -0.001000000000000018235, 0.7999999999999986011 ) ) ;
#345 = EDGE_LOOP ( 'NONE', ( #76, #158, #636, #516 ) ) ;
#346 = EDGE_LOOP ( 'NONE', ( #678, #473, #601, #66 ) ) ;
#347 = SURFACE_STYLE_USAGE ( .BOTH. , #618 ) ;
#348 = VERTEX_POINT ( 'NONE', #122 ) ;
#349 = ORIENTED_EDGE ( 'NONE', *, *, #293, .T. ) ;
#350 = AXIS2_PLACEMENT_3D ( 'NONE', #18, #15, #499 ) ;
#351 = DIRECTION ( 'NONE',  ( 3.614007241618348278E-16, 0.0000000000000000000, 1.000000000000000000 ) ) ;
#352 = CARTESIAN_POINT ( 'NONE',  ( 1.200000000000002620, 0.0000000000000000000, 0.7999999999999986011 ) ) ;
#353 =( NAMED_UNIT ( * ) SI_UNIT ( $, .STERADIAN. ) SOLID_ANGLE_UNIT ( ) );
#354 = VERTEX_POINT ( 'NONE', #114 ) ;
#355 = LINE ( 'NONE', #52, #404 ) ;
#356 = ORIENTED_EDGE ( 'NONE', *, *, #422, .T. ) ;
#357 = AXIS2_PLACEMENT_3D ( 'NONE', #49, #595, #210 ) ;
#358 = EDGE_LOOP ( 'NONE', ( #35, #644, #50, #7 ) ) ;
#359 = ORIENTED_EDGE ( 'NONE', *, *, #37, .F. ) ;
#360 = ORIENTED_EDGE ( 'NONE', *, *, #639, .F. ) ;
#361 = ADVANCED_FACE ( 'NONE', ( #26 ), #338, .F. ) ;
#362 = MECHANICAL_DESIGN_GEOMETRIC_PRESENTATION_REPRESENTATION (  '', ( #492 ), #623 ) ;
#363 = ORIENTED_EDGE ( 'NONE', *, *, #340, .F. ) ;
#364 = ORIENTED_EDGE ( 'NONE', *, *, #519, .F. ) ;
#365 = VECTOR ( 'NONE', #534, 1000.000000000000000 ) ;
#366 = DIRECTION ( 'NONE',  ( -1.000000000000000000, -0.0000000000000000000, -0.0000000000000000000 ) ) ;
#367 = EDGE_CURVE ( 'NONE', #303, #109, #282, .T. ) ;
#368 =( GEOMETRIC_REPRESENTATION_CONTEXT ( 3 ) GLOBAL_UNCERTAINTY_ASSIGNED_CONTEXT ( ( #679 ) ) GLOBAL_UNIT_ASSIGNED_CONTEXT ( ( #307, #253, #522 ) ) REPRESENTATION_CONTEXT ( 'NONE', 'WORKASPACE' ) );
#369 = ORIENTED_EDGE ( 'NONE', *, *, #422, .F. ) ;
#370 = CARTESIAN_POINT ( 'NONE',  ( 0.0000000000000000000, -0.001000000000000000021, 0.0000000000000000000 ) ) ;
#371 = UNCERTAINTY_MEASURE_WITH_UNIT (LENGTH_MEASURE( 1.000000000000000082E-05 ), #1, 'distance_accuracy_value', 'NONE');
#372 = VECTOR ( 'NONE', #247, 1000.000000000000000 ) ;
#373 =( LENGTH_UNIT ( ) NAMED_UNIT ( * ) SI_UNIT ( .MILLI., .METRE. ) );
#374 = DIRECTION ( 'NONE',  ( 0.0000000000000000000, -1.000000000000000000, 0.0000000000000000000 ) ) ;
#375 = LINE ( 'NONE', #319, #419 ) ;
#376 = ORIENTED_EDGE ( 'NONE', *, *, #93, .T. ) ;
#377 = AXIS2_PLACEMENT_3D ( 'NONE', #70, #498, #451 ) ;
#378 = ORIENTED_EDGE ( 'NONE', *, *, #502, .T. ) ;
#379 = EDGE_CURVE ( 'NONE', #172, #101, #308, .T. ) ;
#380 = CARTESIAN_POINT ( 'NONE',  ( -1.099999999999996980, 0.5000000000000000000, 0.5999999999999996447 ) ) ;
#381 = VECTOR ( 'NONE', #100, 1000.000000000000000 ) ;
#382 = DIRECTION ( 'NONE',  ( 1.000000000000000000, 0.0000000000000000000, -0.0000000000000000000 ) ) ;
#383 = CARTESIAN_POINT ( 'NONE',  ( -1.599999999999997202, 0.5000000000000000000, -0.8000000000000020428 ) ) ;
#384 = PLANE ( 'NONE',  #403 ) ;
#385 =( GEOMETRIC_REPRESENTATION_CONTEXT ( 3 ) GLOBAL_UNCERTAINTY_ASSIGNED_CONTEXT ( ( #484 ) ) GLOBAL_UNIT_ASSIGNED_CONTEXT ( ( #185, #660, #663 ) ) REPRESENTATION_CONTEXT ( 'NONE', 'WORKASPACE' ) );
#386 = EDGE_LOOP ( 'NONE', ( #92, #322, #402, #317 ) ) ;
#387 = CARTESIAN_POINT ( 'NONE',  ( 1.600000000000003419, -0.001000000000000000021, 0.0000000000000000000 ) ) ;
#388 = PLANE ( 'NONE',  #377 ) ;
#389 = DIRECTION ( 'NONE',  ( -1.000000000000000000, -0.0000000000000000000, 0.0000000000000000000 ) ) ;
#390 = VERTEX_POINT ( 'NONE', #352 ) ;
#391 = ORIENTED_EDGE ( 'NONE', *, *, #602, .T. ) ;
#392 = DIRECTION ( 'NONE',  ( 3.614007241618348278E-16, 0.0000000000000000000, 1.000000000000000000 ) ) ;
#393 = FACE_OUTER_BOUND ( 'NONE', #503, .T. ) ;
#394 = EDGE_CURVE ( 'NONE', #54, #303, #632, .T. ) ;
#395 = LINE ( 'NONE', #266, #125 ) ;
#396 = CARTESIAN_POINT ( 'NONE',  ( 0.0000000000000000000, 0.5010000000000000009, -0.8000000000000020428 ) ) ;
#397 = CARTESIAN_POINT ( 'NONE',  ( -0.4999999999999971689, 0.4989999999999999991, 0.5999999999999994227 ) ) ;
#398 = VECTOR ( 'NONE', #28, 1000.000000000000000 ) ;
#399 = VECTOR ( 'NONE', #509, 1000.000000000000000 ) ;
#400 = CARTESIAN_POINT ( 'NONE',  ( -1.099999999999997202, 0.5000000000000000000, -0.6000000000000001998 ) ) ;
#401 = CARTESIAN_POINT ( 'NONE',  ( 1.200000000000002842, -0.001000000000000009128, 0.7999999999999986011 ) ) ;
#402 = ORIENTED_EDGE ( 'NONE', *, *, #528, .T. ) ;
#403 = AXIS2_PLACEMENT_3D ( 'NONE', #645, #106, #167 ) ;
#404 = VECTOR ( 'NONE', #606, 1000.000000000000000 ) ;
#405 = CARTESIAN_POINT ( 'NONE',  ( -1.599999999999997202, 0.5010000000000000009, -0.8000000000000020428 ) ) ;
#406 = EDGE_CURVE ( 'NONE', #159, #54, #176, .T. ) ;
#407 = ORIENTED_EDGE ( 'NONE', *, *, #182, .F. ) ;
#408 = SURFACE_STYLE_FILL_AREA ( #215 ) ;
#409 = EDGE_CURVE ( 'NONE', #653, #430, #507, .T. ) ;
#410 = VECTOR ( 'NONE', #351, 1000.000000000000000 ) ;
#411 = VECTOR ( 'NONE', #292, 1000.000000000000000 ) ;
#412 = CARTESIAN_POINT ( 'NONE',  ( 0.0000000000000000000, 0.5010000000000000009, 0.0000000000000000000 ) ) ;
#413 = VERTEX_POINT ( 'NONE', #405 ) ;
#414 = VERTEX_POINT ( 'NONE', #336 ) ;
#415 = COLOUR_RGB ( '',0.5019607843137254832, 0.5019607843137254832, 0.5019607843137254832 ) ;
#416 = ORIENTED_EDGE ( 'NONE', *, *, #379, .T. ) ;
#417 = PRESENTATION_STYLE_ASSIGNMENT (( #347 ) ) ;
#418 = UNCERTAINTY_MEASURE_WITH_UNIT (LENGTH_MEASURE( 1.000000000000000082E-05 ), #590, 'distance_accuracy_value', 'NONE');
#419 = VECTOR ( 'NONE', #113, 1000.000000000000000 ) ;
#420 =( NAMED_UNIT ( * ) PLANE_ANGLE_UNIT ( ) SI_UNIT ( $, .RADIAN. ) );
#421 = SURFACE_STYLE_USAGE ( .BOTH. , #638 ) ;
#422 = EDGE_CURVE ( 'NONE', #354, #603, #133, .T. ) ;
#423 = DIRECTION ( 'NONE',  ( -1.807003620809174139E-16, 0.0000000000000000000, -1.000000000000000000 ) ) ;
#424 = DIRECTION ( 'NONE',  ( -1.000000000000000000, 0.0000000000000000000, 1.807003620809174139E-16 ) ) ;
#425 = CARTESIAN_POINT ( 'NONE',  ( 1.600000000000003419, 0.5010000000000000009, 0.7999999999999986011 ) ) ;
#426 = STYLED_ITEM ( 'NONE', ( #85 ), #198 ) ;
#427 = LINE ( 'NONE', #202, #489 ) ;
#428 = FILL_AREA_STYLE_COLOUR ( '', #415 ) ;
#429 =( NAMED_UNIT ( * ) PLANE_ANGLE_UNIT ( ) SI_UNIT ( $, .RADIAN. ) );
#430 = VERTEX_POINT ( 'NONE', #459 ) ;
#431 = CARTESIAN_POINT ( 'NONE',  ( -1.099999999999996980, 0.4989999999999999991, 0.5999999999999997558 ) ) ;
#432 = VERTEX_POINT ( 'NONE', #25 ) ;
#433 = LINE ( 'NONE', #668, #556 ) ;
#434 = DIRECTION ( 'NONE',  ( 1.000000000000000000, 0.0000000000000000000, -0.0000000000000000000 ) ) ;
#435 = CARTESIAN_POINT ( 'NONE',  ( 0.0000000000000000000, 0.5010000000000000009, 0.0000000000000000000 ) ) ;
#436 = SURFACE_STYLE_FILL_AREA ( #91 ) ;
#437 = EDGE_CURVE ( 'NONE', #617, #671, #220, .T. ) ;
#438 = PRODUCT ( 'WLA.10_Web', 'WLA.10_Web', '', ( #577 ) ) ;
#439 = DIRECTION ( 'NONE',  ( 0.0000000000000000000, -0.0000000000000000000, 1.000000000000000000 ) ) ;
#440 = AXIS2_PLACEMENT_3D ( 'NONE', #637, #423, #268 ) ;
#441 = LINE ( 'NONE', #664, #134 ) ;
#442 = DIRECTION ( 'NONE',  ( -1.000000000000000000, -0.0000000000000000000, 0.0000000000000000000 ) ) ;
#443 = PRESENTATION_LAYER_ASSIGNMENT (  '', '', ( #290 ) ) ;
#444 = DIRECTION ( 'NONE',  ( -0.0000000000000000000, 1.000000000000000000, 0.0000000000000000000 ) ) ;
#445 = PRESENTATION_STYLE_ASSIGNMENT (( #694 ) ) ;
#446 = CARTESIAN_POINT ( 'NONE',  ( -1.199999999999997069, 0.5000000000000000000, 0.7999999999999986011 ) ) ;
#447 = EDGE_CURVE ( 'NONE', #110, #619, #532, .T. ) ;
#448 = CARTESIAN_POINT ( 'NONE',  ( 1.200000000000002620, 0.0000000000000000000, 0.0000000000000000000 ) ) ;
#449 = ORIENTED_EDGE ( 'NONE', *, *, #57, .F. ) ;
#450 = CARTESIAN_POINT ( 'NONE',  ( -1.599999999999996758, 0.5000000000000000000, 0.7999999999999986011 ) ) ;
#451 = DIRECTION ( 'NONE',  ( 1.355252715606880049E-16, 0.0000000000000000000, 1.000000000000000000 ) ) ;
#452 = ORIENTED_EDGE ( 'NONE', *, *, #528, .F. ) ;
#453 = PRESENTATION_LAYER_ASSIGNMENT (  '', '', ( #610 ) ) ;
#454 = PLANE ( 'NONE',  #33 ) ;
#455 = ADVANCED_FACE ( 'NONE', ( #257 ), #221, .F. ) ;
#456 = VECTOR ( 'NONE', #230, 1000.000000000000000 ) ;
#457 = LINE ( 'NONE', #103, #238 ) ;
#458 = CARTESIAN_POINT ( 'NONE',  ( -1.599999999999996758, 0.5000000000000000000, 0.7999999999999986011 ) ) ;
#459 = CARTESIAN_POINT ( 'NONE',  ( -0.4999999999999975020, 0.4989999999999999991, -0.6000000000000003109 ) ) ;
#460 = DIRECTION ( 'NONE',  ( 1.000000000000000000, 0.0000000000000000000, -2.710505431213762071E-16 ) ) ;
#461 = ADVANCED_FACE ( 'NONE', ( #572 ), #650, .F. ) ;
#462 = STYLED_ITEM ( 'NONE', ( #328 ), #194 ) ;
#463 =( NAMED_UNIT ( * ) SI_UNIT ( $, .STERADIAN. ) SOLID_ANGLE_UNIT ( ) );
#464 = ADVANCED_FACE ( 'NONE', ( #254 ), #171, .F. ) ;
#465 = VECTOR ( 'NONE', #249, 1000.000000000000000 ) ;
#466 = CARTESIAN_POINT ( 'NONE',  ( -1.199999999999996847, -0.001000000000000000021, 0.7999999999999986011 ) ) ;
#467 = MECHANICAL_DESIGN_GEOMETRIC_PRESENTATION_REPRESENTATION (  '', ( #426 ), #187 ) ;
#468 = STYLED_ITEM ( 'NONE', ( #417 ), #191 ) ;
#469 = DIRECTION ( 'NONE',  ( -1.000000000000000000, 0.0000000000000000000, 0.0000000000000000000 ) ) ;
#470 = VECTOR ( 'NONE', #497, 1000.000000000000000 ) ;
#471 = PRODUCT_DEFINITION_CONTEXT ( 'detailed design', #696, 'design' ) ;
#472 = EDGE_CURVE ( 'NONE', #671, #414, #104, .T. ) ;
#473 = ORIENTED_EDGE ( 'NONE', *, *, #197, .F. ) ;
#474 = CARTESIAN_POINT ( 'NONE',  ( -1.599999999999996536, -0.001000000000000000021, 0.0000000000000000000 ) ) ;
#475 = DIRECTION ( 'NONE',  ( 0.0000000000000000000, 0.0000000000000000000, 1.000000000000000000 ) ) ;
#476 = CARTESIAN_POINT ( 'NONE',  ( 0.0000000000000000000, 0.5000000000000000000, -0.6000000000000001998 ) ) ;
#477 = CARTESIAN_POINT ( 'NONE',  ( -1.599999999999997202, 0.5000000000000000000, -0.8000000000000020428 ) ) ;
#478 = ORIENTED_EDGE ( 'NONE', *, *, #602, .F. ) ;
#479 = LINE ( 'NONE', #383, #456 ) ;
#480 = CARTESIAN_POINT ( 'NONE',  ( -1.199999999999996847, -0.001000000000000000021, 0.7999999999999986011 ) ) ;
#481 = MECHANICAL_DESIGN_GEOMETRIC_PRESENTATION_REPRESENTATION (  '', ( #610 ), #666 ) ;
#482 = DIRECTION ( 'NONE',  ( -0.0000000000000000000, -1.000000000000000000, -0.0000000000000000000 ) ) ;
#483 = DIRECTION ( 'NONE',  ( 0.0000000000000000000, 1.000000000000000000, 0.0000000000000000000 ) ) ;
#484 = UNCERTAINTY_MEASURE_WITH_UNIT (LENGTH_MEASURE( 1.000000000000000082E-05 ), #185, 'distance_accuracy_value', 'NONE');
#485 = LINE ( 'NONE', #218, #41 ) ;
#486 = PRESENTATION_LAYER_ASSIGNMENT (  '', '', ( #462 ) ) ;
#487 = ORIENTED_EDGE ( 'NONE', *, *, #573, .T. ) ;
#488 = CARTESIAN_POINT ( 'NONE',  ( 1.600000000000003419, -0.001000000000000008044, -0.8000000000000020428 ) ) ;
#489 = VECTOR ( 'NONE', #81, 1000.000000000000000 ) ;
#490 = ORIENTED_EDGE ( 'NONE', *, *, #585, .F. ) ;
#491 = ORIENTED_EDGE ( 'NONE', *, *, #144, .T. ) ;
#492 = STYLED_ITEM ( 'NONE', ( #112 ), #455 ) ;
#493 = ORIENTED_EDGE ( 'NONE', *, *, #47, .F. ) ;
#494 = SURFACE_STYLE_USAGE ( .BOTH. , #342 ) ;
#495 = VECTOR ( 'NONE', #557, 1000.000000000000000 ) ;
#496 = DIRECTION ( 'NONE',  ( 0.0000000000000000000, 1.000000000000000000, 0.0000000000000000000 ) ) ;
#497 = DIRECTION ( 'NONE',  ( -0.0000000000000000000, -1.000000000000000000, -0.0000000000000000000 ) ) ;
#498 = DIRECTION ( 'NONE',  ( -1.000000000000000000, 0.0000000000000000000, 1.355252715606880049E-16 ) ) ;
#499 = DIRECTION ( 'NONE',  ( 0.0000000000000000000, -0.0000000000000000000, 1.000000000000000000 ) ) ;
#500 = CARTESIAN_POINT ( 'NONE',  ( 1.200000000000001954, 0.5000000000000000000, 0.7999999999999986011 ) ) ;
#501 = ADVANCED_FACE ( 'NONE', ( #648 ), #9, .T. ) ;
#502 = EDGE_CURVE ( 'NONE', #279, #432, #537, .T. ) ;
#503 = EDGE_LOOP ( 'NONE', ( #56, #20, #163, #478 ) ) ;
#504 = VECTOR ( 'NONE', #180, 1000.000000000000000 ) ;
#505 = DIRECTION ( 'NONE',  ( -2.710505431213762071E-16, 0.0000000000000000000, -1.000000000000000000 ) ) ;
#506 = FACE_OUTER_BOUND ( 'NONE', #386, .T. ) ;
#507 = LINE ( 'NONE', #89, #265 ) ;
#508 = ADVANCED_FACE ( 'NONE', ( #288 ), #598, .F. ) ;
#509 = DIRECTION ( 'NONE',  ( -0.0000000000000000000, 0.0000000000000000000, -1.000000000000000000 ) ) ;
#510 = ORIENTED_EDGE ( 'NONE', *, *, #27, .F. ) ;
#511 = DIRECTION ( 'NONE',  ( -0.0000000000000000000, 0.0000000000000000000, -1.000000000000000000 ) ) ;
#512 = AXIS2_PLACEMENT_3D ( 'NONE', #235, #79, #513 ) ;
#513 = DIRECTION ( 'NONE',  ( 1.355252715606880049E-16, 0.0000000000000000000, -1.000000000000000000 ) ) ;
#514 = ADVANCED_FACE ( 'NONE', ( #628 ), #225, .F. ) ;
#515 = EDGE_LOOP ( 'NONE', ( #542, #612, #48, #58 ) ) ;
#516 = ORIENTED_EDGE ( 'NONE', *, *, #258, .T. ) ;
#517 = CARTESIAN_POINT ( 'NONE',  ( 1.600000000000003419, 0.5000000000000000000, -0.8000000000000020428 ) ) ;
#518 = ORIENTED_EDGE ( 'NONE', *, *, #334, .F. ) ;
#519 = EDGE_CURVE ( 'NONE', #627, #413, #40, .T. ) ;
#520 = LINE ( 'NONE', #193, #372 ) ;
#521 = VECTOR ( 'NONE', #5, 1000.000000000000000 ) ;
#522 =( NAMED_UNIT ( * ) SI_UNIT ( $, .STERADIAN. ) SOLID_ANGLE_UNIT ( ) );
#523 = VERTEX_POINT ( 'NONE', #326 ) ;
#524 = SURFACE_SIDE_STYLE ('',( #436 ) ) ;
#525 = FACE_OUTER_BOUND ( 'NONE', #578, .T. ) ;
#526 = LINE ( 'NONE', #458, #175 ) ;
#527 = APPLICATION_PROTOCOL_DEFINITION ( 'draft international standard', 'automotive_design', 1998, #153 ) ;
#528 = EDGE_CURVE ( 'NONE', #617, #159, #479, .T. ) ;
#529 = VERTEX_POINT ( 'NONE', #161 ) ;
#530 = VECTOR ( 'NONE', #482, 1000.000000000000000 ) ;
#531 = CARTESIAN_POINT ( 'NONE',  ( -1.199999999999996847, -0.001000000000000009128, 0.7999999999999986011 ) ) ;
#532 = LINE ( 'NONE', #209, #399 ) ;
#533 = FILL_AREA_STYLE ('',( #55 ) ) ;
#534 = DIRECTION ( 'NONE',  ( 0.0000000000000000000, -0.0000000000000000000, 1.000000000000000000 ) ) ;
#535 = ORIENTED_EDGE ( 'NONE', *, *, #472, .F. ) ;
#536 = DIRECTION ( 'NONE',  ( 1.000000000000000000, 0.0000000000000000000, -5.421010862427524142E-16 ) ) ;
#537 = LINE ( 'NONE', #596, #365 ) ;
#538 = PRESENTATION_LAYER_ASSIGNMENT (  '', '', ( #468 ) ) ;
#539 = SURFACE_STYLE_FILL_AREA ( #223 ) ;
#540 = LINE ( 'NONE', #629, #605 ) ;
#541 = CARTESIAN_POINT ( 'NONE',  ( 0.0000000000000000000, 0.4989999999999999991, 0.0000000000000000000 ) ) ;
#542 = ORIENTED_EDGE ( 'NONE', *, *, #367, .F. ) ;
#543 = CARTESIAN_POINT ( 'NONE',  ( -1.199999999999997291, 0.5000000000000000000, -0.8000000000000020428 ) ) ;
#544 = DIRECTION ( 'NONE',  ( 0.0000000000000000000, 1.000000000000000000, 0.0000000000000000000 ) ) ;
#545 = LINE ( 'NONE', #62, #592 ) ;
#546 = CARTESIAN_POINT ( 'NONE',  ( -1.099999999999997424, 0.4989999999999999991, -0.6000000000000001998 ) ) ;
#547 = EDGE_CURVE ( 'NONE', #661, #96, #10, .T. ) ;
#548 = DIRECTION ( 'NONE',  ( -1.355252715606880049E-16, 0.0000000000000000000, 1.000000000000000000 ) ) ;
#549 = FACE_OUTER_BOUND ( 'NONE', #591, .T. ) ;
#550 = DIRECTION ( 'NONE',  ( 1.000000000000000000, -0.0000000000000000000, 1.355252715606880049E-16 ) ) ;
#551 = SURFACE_STYLE_USAGE ( .BOTH. , #622 ) ;
#552 = PRESENTATION_LAYER_ASSIGNMENT (  '', '', ( #426 ) ) ;
#553 = ORIENTED_EDGE ( 'NONE', *, *, #615, .F. ) ;
#554 = FACE_OUTER_BOUND ( 'NONE', #90, .T. ) ;
#555 = ORIENTED_EDGE ( 'NONE', *, *, #304, .F. ) ;
#556 = VECTOR ( 'NONE', #511, 1000.000000000000000 ) ;
#557 = DIRECTION ( 'NONE',  ( -0.0000000000000000000, -1.000000000000000000, 0.0000000000000000000 ) ) ;
#558 = ORIENTED_EDGE ( 'NONE', *, *, #271, .F. ) ;
#559 = CARTESIAN_POINT ( 'NONE',  ( 0.0000000000000000000, 0.0000000000000000000, 0.0000000000000000000 ) ) ;
#560 = EDGE_CURVE ( 'NONE', #643, #138, #579, .T. ) ;
#561 = ADVANCED_FACE ( 'NONE', ( #682, #506 ), #178, .T. ) ;
#562 = ORIENTED_EDGE ( 'NONE', *, *, #144, .F. ) ;
#563 = CARTESIAN_POINT ( 'NONE',  ( 1.600000000000003419, 0.5000000000000000000, 0.7999999999999986011 ) ) ;
#564 = DIRECTION ( 'NONE',  ( 0.0000000000000000000, 1.000000000000000000, 0.0000000000000000000 ) ) ;
#565 = VECTOR ( 'NONE', #665, 1000.000000000000000 ) ;
#566 = ORIENTED_EDGE ( 'NONE', *, *, #67, .T. ) ;
#567 = SURFACE_STYLE_USAGE ( .BOTH. , #34 ) ;
#568 = AXIS2_PLACEMENT_3D ( 'NONE', #477, #281, #327 ) ;
#569 = FILL_AREA_STYLE ('',( #208 ) ) ;
#570 = VERTEX_POINT ( 'NONE', #68 ) ;
#571 = ORIENTED_EDGE ( 'NONE', *, *, #80, .F. ) ;
#572 = FACE_OUTER_BOUND ( 'NONE', #227, .T. ) ;
#573 = EDGE_CURVE ( 'NONE', #109, #413, #355, .T. ) ;
#574 = LINE ( 'NONE', #687, #267 ) ;
#575 = CARTESIAN_POINT ( 'NONE',  ( -1.199999999999997069, 0.5010000000000000009, 0.7999999999999986011 ) ) ;
#576 = ORIENTED_EDGE ( 'NONE', *, *, #154, .T. ) ;
#577 = PRODUCT_CONTEXT ( 'NONE', #153, 'mechanical' ) ;
#578 = EDGE_LOOP ( 'NONE', ( #553, #360, #364, #231 ) ) ;
#579 = LINE ( 'NONE', #60, #565 ) ;
#580 = STYLED_ITEM ( 'NONE', ( #22 ), #561 ) ;
#581 = DIRECTION ( 'NONE',  ( -0.0000000000000000000, -0.0000000000000000000, -1.000000000000000000 ) ) ;
#582 = VECTOR ( 'NONE', #548, 1000.000000000000000 ) ;
#583 = DIRECTION ( 'NONE',  ( 1.000000000000000000, 0.0000000000000000000, -0.0000000000000000000 ) ) ;
#584 =( NAMED_UNIT ( * ) SI_UNIT ( $, .STERADIAN. ) SOLID_ANGLE_UNIT ( ) );
#585 = EDGE_CURVE ( 'NONE', #643, #390, #261, .T. ) ;
#586 = DIRECTION ( 'NONE',  ( -1.000000000000000000, 0.0000000000000000000, -0.0000000000000000000 ) ) ;
#587 = EDGE_LOOP ( 'NONE', ( #145, #625, #566, #337 ) ) ;
#588 = DIRECTION ( 'NONE',  ( 0.0000000000000000000, -0.0000000000000000000, -1.000000000000000000 ) ) ;
#589 =( NAMED_UNIT ( * ) SI_UNIT ( $, .STERADIAN. ) SOLID_ANGLE_UNIT ( ) );
#590 =( LENGTH_UNIT ( ) NAMED_UNIT ( * ) SI_UNIT ( .MILLI., .METRE. ) );
#591 = EDGE_LOOP ( 'NONE', ( #607, #299, #571, #558 ) ) ;
#592 = VECTOR ( 'NONE', #291, 1000.000000000000000 ) ;
#593 = VECTOR ( 'NONE', #646, 1000.000000000000000 ) ;
#594 = VECTOR ( 'NONE', #583, 1000.000000000000000 ) ;
#595 = DIRECTION ( 'NONE',  ( 0.0000000000000000000, 1.000000000000000000, 0.0000000000000000000 ) ) ;
#596 = CARTESIAN_POINT ( 'NONE',  ( -1.199999999999996625, 0.0000000000000000000, 0.0000000000000000000 ) ) ;
#597 = AXIS2_PLACEMENT_3D ( 'NONE', #186, #550, #64 ) ;
#598 = PLANE ( 'NONE',  #162 ) ;
#599 = VECTOR ( 'NONE', #389, 1000.000000000000000 ) ;
#600 = ORIENTED_EDGE ( 'NONE', *, *, #639, .T. ) ;
#601 = ORIENTED_EDGE ( 'NONE', *, *, #27, .T. ) ;
#602 = EDGE_CURVE ( 'NONE', #643, #172, #545, .T. ) ;
#603 = VERTEX_POINT ( 'NONE', #488 ) ;
#604 = CARTESIAN_POINT ( 'NONE',  ( -1.599999999999997202, 0.5010000000000000009, -0.8000000000000020428 ) ) ;
#605 = VECTOR ( 'NONE', #366, 1000.000000000000000 ) ;
#606 = DIRECTION ( 'NONE',  ( -1.000000000000000000, -0.0000000000000000000, 0.0000000000000000000 ) ) ;
#607 = ORIENTED_EDGE ( 'NONE', *, *, #2, .F. ) ;
#608 = ORIENTED_EDGE ( 'NONE', *, *, #271, .T. ) ;
#609 = EDGE_LOOP ( 'NONE', ( #324, #349, #634, #181 ) ) ;
#610 = STYLED_ITEM ( 'NONE', ( #203 ), #339 ) ;
#611 = CARTESIAN_POINT ( 'NONE',  ( -1.199999999999996625, 0.5000000000000000000, -0.8000000000000020428 ) ) ;
#612 = ORIENTED_EDGE ( 'NONE', *, *, #394, .F. ) ;
#613 = CARTESIAN_POINT ( 'NONE',  ( -1.199999999999997069, 0.5000000000000000000, 0.7999999999999986011 ) ) ;
#614 = VECTOR ( 'NONE', #588, 1000.000000000000000 ) ;
#615 = EDGE_CURVE ( 'NONE', #529, #252, #173, .T. ) ;
#616 = ADVANCED_FACE ( 'NONE', ( #620 ), #16, .F. ) ;
#617 = VERTEX_POINT ( 'NONE', #289 ) ;
#618 = SURFACE_SIDE_STYLE ('',( #657 ) ) ;
#619 = VERTEX_POINT ( 'NONE', #400 ) ;
#620 = FACE_OUTER_BOUND ( 'NONE', #669, .T. ) ;
#621 = FILL_AREA_STYLE ('',( #428 ) ) ;
#622 = SURFACE_SIDE_STYLE ('',( #641 ) ) ;
#623 =( GEOMETRIC_REPRESENTATION_CONTEXT ( 3 ) GLOBAL_UNCERTAINTY_ASSIGNED_CONTEXT ( ( #418 ) ) GLOBAL_UNIT_ASSIGNED_CONTEXT ( ( #590, #429, #168 ) ) REPRESENTATION_CONTEXT ( 'NONE', 'WORKASPACE' ) );
#624 = DIRECTION ( 'NONE',  ( 0.0000000000000000000, -0.0000000000000000000, 1.000000000000000000 ) ) ;
#625 = ORIENTED_EDGE ( 'NONE', *, *, #80, .T. ) ;
#626 = EDGE_CURVE ( 'NONE', #390, #310, #165, .T. ) ;
#627 = VERTEX_POINT ( 'NONE', #241 ) ;
#628 = FACE_OUTER_BOUND ( 'NONE', #127, .T. ) ;
#629 = CARTESIAN_POINT ( 'NONE',  ( 0.0000000000000000000, -0.001000000000000000021, 0.7999999999999986011 ) ) ;
#630 = COLOUR_RGB ( '',0.5019607843137254832, 0.5019607843137254832, 0.5019607843137254832 ) ;
#631 = LINE ( 'NONE', #500, #228 ) ;
#632 = LINE ( 'NONE', #613, #71 ) ;
#633 = AXIS2_PLACEMENT_3D ( 'NONE', #559, #475, #160 ) ;
#634 = ORIENTED_EDGE ( 'NONE', *, *, #67, .F. ) ;
#635 = DIRECTION ( 'NONE',  ( -1.000000000000000000, 0.0000000000000000000, -1.355252715606880049E-16 ) ) ;
#636 = ORIENTED_EDGE ( 'NONE', *, *, #47, .T. ) ;
#637 = CARTESIAN_POINT ( 'NONE',  ( -1.099999999999997424, 0.4989999999999999991, -0.6000000000000001998 ) ) ;
#638 = SURFACE_SIDE_STYLE ('',( #408 ) ) ;
#639 = EDGE_CURVE ( 'NONE', #413, #529, #111, .T. ) ;
#640 = CARTESIAN_POINT ( 'NONE',  ( 1.200000000000003064, -0.001000000000000009128, -0.8000000000000020428 ) ) ;
#641 = SURFACE_STYLE_FILL_AREA ( #533 ) ;
#642 = COLOUR_RGB ( '',0.0000000000000000000, 0.0000000000000000000, 1.000000000000000000 ) ;
#643 = VERTEX_POINT ( 'NONE', #401 ) ;
#644 = ORIENTED_EDGE ( 'NONE', *, *, #182, .T. ) ;
#645 = CARTESIAN_POINT ( 'NONE',  ( -1.599999999999997202, 0.5000000000000000000, -0.8000000000000020428 ) ) ;
#646 = DIRECTION ( 'NONE',  ( 0.0000000000000000000, 1.000000000000000000, 0.0000000000000000000 ) ) ;
#647 = AXIS2_PLACEMENT_3D ( 'NONE', #541, #483, #439 ) ;
#648 = FACE_OUTER_BOUND ( 'NONE', #358, .T. ) ;
#649 = PLANE ( 'NONE',  #53 ) ;
#650 = PLANE ( 'NONE',  #124 ) ;
#651 = CARTESIAN_POINT ( 'NONE',  ( -1.199999999999997291, 0.5000000000000000000, -0.8000000000000020428 ) ) ;
#652 = SURFACE_STYLE_USAGE ( .BOTH. , #115 ) ;
#653 = VERTEX_POINT ( 'NONE', #397 ) ;
#654 = CARTESIAN_POINT ( 'NONE',  ( -1.099999999999997424, 0.4989999999999999991, -0.6000000000000001998 ) ) ;
#655 = ORIENTED_EDGE ( 'NONE', *, *, #334, .T. ) ;
#656 = EDGE_CURVE ( 'NONE', #570, #430, #272, .T. ) ;
#657 = SURFACE_STYLE_FILL_AREA ( #298 ) ;
#658 = VECTOR ( 'NONE', #444, 1000.000000000000000 ) ;
#659 = AXIS2_PLACEMENT_3D ( 'NONE', #169, #333, #586 ) ;
#660 =( NAMED_UNIT ( * ) PLANE_ANGLE_UNIT ( ) SI_UNIT ( $, .RADIAN. ) );
#661 = VERTEX_POINT ( 'NONE', #128 ) ;
#662 = EDGE_CURVE ( 'NONE', #279, #523, #206, .T. ) ;
#663 =( NAMED_UNIT ( * ) SI_UNIT ( $, .STERADIAN. ) SOLID_ANGLE_UNIT ( ) );
#664 = CARTESIAN_POINT ( 'NONE',  ( 0.0000000000000000000, 0.5000000000000000000, 0.5999999999999994227 ) ) ;
#665 = DIRECTION ( 'NONE',  ( 1.355252715606880049E-16, 0.0000000000000000000, -1.000000000000000000 ) ) ;
#666 =( GEOMETRIC_REPRESENTATION_CONTEXT ( 3 ) GLOBAL_UNCERTAINTY_ASSIGNED_CONTEXT ( ( #371 ) ) GLOBAL_UNIT_ASSIGNED_CONTEXT ( ( #1, #315, #275 ) ) REPRESENTATION_CONTEXT ( 'NONE', 'WORKASPACE' ) );
#667 = CARTESIAN_POINT ( 'NONE',  ( -1.099999999999996980, 0.4989999999999999991, 0.5999999999999997558 ) ) ;
#668 = CARTESIAN_POINT ( 'NONE',  ( 1.200000000000001954, 0.5000000000000000000, 0.0000000000000000000 ) ) ;
#669 = EDGE_LOOP ( 'NONE', ( #535, #102, #38, #449 ) ) ;
#670 =( NAMED_UNIT ( * ) PLANE_ANGLE_UNIT ( ) SI_UNIT ( $, .RADIAN. ) );
#671 = VERTEX_POINT ( 'NONE', #335 ) ;
#672 = SURFACE_STYLE_FILL_AREA ( #126 ) ;
#673 = VECTOR ( 'NONE', #236, 1000.000000000000000 ) ;
#674 = LINE ( 'NONE', #480, #530 ) ;
#675 = DIRECTION ( 'NONE',  ( 0.0000000000000000000, -0.0000000000000000000, 1.000000000000000000 ) ) ;
#676 = LINE ( 'NONE', #474, #614 ) ;
#677 = EDGE_CURVE ( 'NONE', #671, #354, #120, .T. ) ;
#678 = ORIENTED_EDGE ( 'NONE', *, *, #472, .T. ) ;
#679 = UNCERTAINTY_MEASURE_WITH_UNIT (LENGTH_MEASURE( 1.000000000000000082E-05 ), #307, 'distance_accuracy_value', 'NONE');
#680 = ADVANCED_FACE ( 'NONE', ( #226 ), #454, .F. ) ;
#681 = VECTOR ( 'NONE', #123, 1000.000000000000000 ) ;
#682 = FACE_BOUND ( 'NONE', #587, .T. ) ;
#683 = ORIENTED_EDGE ( 'NONE', *, *, #258, .F. ) ;
#684 = LINE ( 'NONE', #387, #381 ) ;
#685 = DIRECTION ( 'NONE',  ( 0.0000000000000000000, -0.0000000000000000000, 1.000000000000000000 ) ) ;
#686 = DIRECTION ( 'NONE',  ( -0.0000000000000000000, -1.000000000000000000, -0.0000000000000000000 ) ) ;
#687 = CARTESIAN_POINT ( 'NONE',  ( -0.4999999999999971689, 0.4989999999999999991, 0.5999999999999994227 ) ) ;
#688 = PLANE ( 'NONE',  #357 ) ;
#689 = ORIENTED_EDGE ( 'NONE', *, *, #502, .F. ) ;
#690 = SURFACE_STYLE_USAGE ( .BOTH. , #264 ) ;
#691 = VECTOR ( 'NONE', #21, 1000.000000000000000 ) ;
#692 =( NAMED_UNIT ( * ) SI_UNIT ( $, .STERADIAN. ) SOLID_ANGLE_UNIT ( ) );
#693 = EDGE_CURVE ( 'NONE', #13, #617, #433, .T. ) ;
#694 = SURFACE_STYLE_USAGE ( .BOTH. , #524 ) ;
#695 = PLANE ( 'NONE',  #440 ) ;
#696 = APPLICATION_CONTEXT ( 'automotive_design' ) ;
#697 = DIRECTION ( 'NONE',  ( 0.0000000000000000000, 0.0000000000000000000, 1.000000000000000000 ) ) ;
#698 =( NAMED_UNIT ( * ) PLANE_ANGLE_UNIT ( ) SI_UNIT ( $, .RADIAN. ) );
ENDSEC;
END-ISO-10303-21;
